<ttFont>
          <CharString index="0">
            rmoveto
            -87 -67 -58 -96 -84 -65 60 79 -17 vhcurveto
            81 25 72 45 94 182 callsubr
            return
          </CharString>
          <CharString index="1">
            -92 callsubr
            -102 callsubr
            return
          </CharString>
          <CharString index="2">
            rmoveto
            -39 callgsubr
            -27 19 -19 27 27 21 19 27 26 -21 21 -27 hvcurveto
            return
          </CharString>
          <CharString index="3">
            109 -101 callgsubr
            return
          </CharString>
          <CharString index="4">
            hhcurveto
            75 57 26 45 34 hvcurveto
            -81 callgsubr
            return
          </CharString>
          <CharString index="5">
            -12 callgsubr
            hvcurveto
            -102 callgsubr
            return
          </CharString>
          <CharString index="6">
            -2 -8 -10 0 -5 -97 callsubr
            return
          </CharString>
          <CharString index="7">
            137 callgsubr
            -65 -93 callsubr
            return
          </CharString>
          <CharString index="8">
            -51 -21 -21 -43 -32 -32 15 0 vhcurveto
            -59 vlineto
            -5 12 27 -7 30 hhcurveto
            82 38 49 80 hvcurveto
            239 return
          </CharString>
          <CharString index="9">
            -84 callsubr
            -9 callgsubr
            return
          </CharString>
          <CharString index="10">
            hhcurveto
            -122 -55 100 109 101 51 52 60 59 35 -40 -89 hvcurveto
            -75 61 74 vlineto
            94 return
          </CharString>
          <CharString index="11">
            hlineto
            -99 callgsubr
            return
          </CharString>
          <CharString index="12">
            -101 -81 -57 -47 -80 -46 -38 13 15 -31 hvcurveto
            -57 -84 callgsubr
            return
          </CharString>
          <CharString index="13">
            -78 callsubr
            -95 -57 84 callsubr
            return
          </CharString>
          <CharString index="14">
            -53 -96 callsubr
            return
          </CharString>
          <CharString index="15">
            -63 callgsubr
            -101 -66 -87 -117 -146 90 -116 140 return
          </CharString>
          <CharString index="16">
            rlineto
            75 hlineto
            -183 280 rlineto
            -4 31 55 -5 96 hhcurveto
            return
          </CharString>
          <CharString index="17">
            579 120 return
          </CharString>
          <CharString index="18">
            -93 callgsubr
            110 63 57 return
          </CharString>
          <CharString index="19">
            -102 callgsubr
            46 39 66 29 23 -12 -8 13 vhcurveto
            -397 62 579 120 return
          </CharString>
          <CharString index="20">
            -44 callgsubr
            -26 50 67 -15 162 callsubr
            74 62 88 101 -78 28 -96 5 hvcurveto
            -110 6 -31 23 48 vvcurveto
            52 48 17 45 vhcurveto
            return
          </CharString>
          <CharString index="21">
            54 vlineto
            -1 -5 -12 -1 -7 hhcurveto
            -105 -49 70 return
          </CharString>
          <CharString index="22">
            -82 callgsubr
            -124 return
          </CharString>
          <CharString index="23">
            -49 callgsubr
            15 -35 12 -28 vhcurveto
            return
          </CharString>
          <CharString index="24">
            68 -44 64 -91 -82 -53 -58 -61 -37 9 -15 4 -11 vhcurveto
            62 hlineto
            -3 10 -10 11 35 vvcurveto
            39 22 35 51 51 22 -37 -45 return
          </CharString>
          <CharString index="25">
            142 -76 callsubr
            return
          </CharString>
          <CharString index="26">
            -20 27 -30 17 -34 5 rrcurveto
            48 13 41 41 70 vvcurveto
            80 -57 55 -107 -37 -32 -8 -10 -24 vhcurveto
            -59 vlineto
            11 20 37 12 38 hhcurveto
            70 30 -32 -55 -53 -35 -39 -78 hvcurveto
            -33 -57 33 hlineto
            87 46 -37 -60 -84 -75 -27 -55 -52 -32 13 17 -35 hvcurveto
            -59 vlineto
            -14 30 43 -11 45 hhcurveto
            121 72 68 94 9 -1 9 -1 9 hvcurveto
            147 -268 61 579 return
          </CharString>
          <CharString index="27">
            48 43 17 32 28 hvcurveto
            -152 -34 callsubr
            return
          </CharString>
          <CharString index="28">
            36 callgsubr
            -58 vlineto
            0 29 6 24 50 38 -17 -36 27 vhcurveto
            91 -119 -82 73 rlineto
            28 -32 -39 24 -54 hhcurveto
            -26 -27 -7 0 hvcurveto
            -62 vlineto
            0 35 9 24 return
          </CharString>
          <CharString index="29">
            -9 16 -5 20 20 vvcurveto
            41 22 39 54 54 39 -34 -80 -93 -66 -57 -114 vhcurveto
            return
          </CharString>
          <CharString index="30">
            hlineto
            -98 callsubr
            return
          </CharString>
          <CharString index="31">
            -242 -77 callsubr
            return
          </CharString>
          <CharString index="32">
            -41 -30 -21 -42 -43 vvcurveto
            -84 77 -91 144 callsubr
            -54 55 66 54 50 53 100 74 29 -37 -43 -18 -4 -21 -11 -14 hvcurveto
            61 hlineto
            8 16 3 21 19 vvcurveto
            62 -45 67 -115 -37 -33 -6 -10 -28 vhcurveto
            -21 5 -35 30 90 callgsubr
          </CharString>
          <CharString index="33">
            vlineto
            -98 callsubr
            return
          </CharString>
          <CharString index="34">
            -55 178 -240 hlineto
            -99 callsubr
            return
          </CharString>
          <CharString index="35">
            -25 callgsubr
            vhcurveto
            -179 -80 callgsubr
          </CharString>
          <CharString index="36">
            59 35 -40 -89 hvcurveto
            -75 61 74 vlineto
            94 46 39 66 29 23 -12 -8 13 vhcurveto
            -397 -65 callsubr
            return
          </CharString>
          <CharString index="37">
            rmoveto
            11 -21 -45 12 -60 hhcurveto
            -88 -70 -50 -84 -83 69 -36 64 -25 hvcurveto
            74 -29 44 -23 -57 vvcurveto
            -43 -33 -33 -71 -47 -53 13 25 -44 vhcurveto
            -63 vlineto
            -16 30 57 -14 61 hhcurveto
            102 61 53 83 84 -69 37 -76 31 hvcurveto
            -56 23 -51 20 56 vvcurveto
            43 36 31 59 50 49 -11 -16 28 vhcurveto
            return
          </CharString>
          <CharString index="38">
            rmoveto
            119 150 rlineto
            -64 hlineto
            -86 -107 -87 107 rlineto
            -64 hlineto
            119 -150 rlineto
            return
          </CharString>
          <CharString index="39">
            88 -16 -69 54 -109 hhcurveto
            -28 -29 -5 -7 -16 hvcurveto
            -53 vlineto
            8 18 27 5 31 hhcurveto
            82 48 -55 -76 -80 -51 -59 -95 -59 -51 19 22 -36 hvcurveto
            -59 vlineto
            -18 37 45 -18 68 hhcurveto
            120 79 76 103 7 hvcurveto
            return
          </CharString>
          <CharString index="40">
            hhcurveto
            -86 -67 -65 -82 -79 62 -51 74 19 18 4 8 17 hvcurveto
            52 vlineto
            -9 -18 -17 -3 -17 hhcurveto
            -44 -33 31 49 48 33 45 63 81 44 -53 -79 -112 -86 -88 -18 callgsubr
            345 vlineto
            return
          </CharString>
          <CharString index="41">
            57 vlineto
            -18 -30 -58 -19 -52 hhcurveto
            -108 -75 56 102 113 91 54 114 23 21 -2 -3 20 hvcurveto
            return
          </CharString>
          <CharString index="42">
            62 -90 callsubr
            return
          </CharString>
          <CharString index="43">
            -61 callgsubr
            55 48 69 return
          </CharString>
          <CharString index="44">
            -66 callsubr
            endchar
          </CharString>
          <CharString index="45">
            -55 619 24 callsubr
            -5 hlineto
            57 -19 -56 51 -93 hhcurveto
            -37 5 callgsubr
            105 63 62 94 hvcurveto
            44 hlineto
            52 41 -35 -43 8 hvcurveto
            -28 vlineto
            114 callgsubr
            return
          </CharString>
          <CharString index="46">
            86 54 40 47 26 hvcurveto
            -179 -80 callgsubr
          </CharString>
          <CharString index="47">
            -120 -55 120 51 callsubr
            119 55 -120 return
          </CharString>
          <CharString index="48">
            62 285 hlineto
            208 -2 108 0 vhcurveto
            0 65 -109 126 -209 vhcurveto
            171 -283 rlineto
            85 674 -62 -286 hlineto
            -211 2 -104 0 vhcurveto
            0 -62 104 -128 212 vhcurveto
            -172 285 rlineto
            -85 hlineto
            return
          </CharString>
          <CharString index="49">
            rmoveto
            -21 -10 -12 -22 -28 -39 -41 46 -53 hhcurveto
            -43 -37 -31 -37 -17 hvcurveto
            36 -30 rlineto
            29 15 20 20 32 35 48 -46 47 hhcurveto
            35 34 21 43 20 hvcurveto
            return
          </CharString>
          <CharString index="50">
            -67 callgsubr
            101 -391 -98 callgsubr
            return
          </CharString>
          <CharString index="51">
            rmoveto
            -82 -36 -37 -68 -73 -24 50 70 vhcurveto
            229 201 vlineto
            return
          </CharString>
          <CharString index="52">
            -99 -66 -51 -72 -77 -38 36 106 vhcurveto
            return
          </CharString>
          <CharString index="53">
            rmoveto
            -24 18 -19 25 24 19 19 24 25 -19 18 -24 -25 -18 -18 -25 vhcurveto
            184 hmoveto
            -24 19 -19 24 -50 callsubr
            vhcurveto
            return
          </CharString>
          <CharString index="54">
            -4 callgsubr
            -83 callsubr
            return
          </CharString>
          <CharString index="55">
            rmoveto
            -18 -28 -35 -11 -43 hhcurveto
            -87 -62 63 88 42 12 35 22 26 hvcurveto
            478 245 rmoveto
            return
          </CharString>
          <CharString index="56">
            403 rmoveto
            -99 -66 -55 -72 -77 -38 40 106 vhcurveto
            184 253 vlineto
            return
          </CharString>
          <CharString index="57">
            25 18 19 24 25 -18 18 -25 -24 -19 -18 -25 return
          </CharString>
          <CharString index="58">
            hhcurveto
            -91 -51 45 56 65 54 41 87 hvcurveto
            62 53 -53 hlineto
            -77 -72 26 70 59 54 48 98 hvcurveto
            55 return
          </CharString>
          <CharString index="59">
            rmoveto
            24 -47 -51 12 -72 hhcurveto
            -187 -150 -136 -206 -221 140 -128 201 64 64 15 28 40 hvcurveto
            68 vlineto
            -30 -38 -61 -22 -66 hhcurveto
            -168 -112 113 177 171 119 112 152 88 34 -16 -26 50 hvcurveto
            return
          </CharString>
          <CharString index="60">
            rmoveto
            -63 -85 53 133 117 57 84 96 63 83 -53 -153 -136 -89 -45 -62 hvcurveto
            151 437 rmoveto
            -89 vlineto
            57 -29 -50 40 -79 hhcurveto
            -125 -80 -112 -150 -155 100 -86 111 70 51 37 56 31 hvcurveto
            -66 vlineto
            -124 -71 -48 -95 -46 -55 10 21 -42 vhcurveto
            -60 vlineto
            -20 42 57 -9 49 hhcurveto
            123 99 69 161 hvcurveto
            468 vlineto
            endchar
          </CharString>
          <CharString index="61">
            rmoveto
            -55 callsubr
            204 253 vlineto
            -548 hmoveto
            233 -130 hlineto
            19 -29 -36 12 -44 -26 callgsubr
            1275 204 rmoveto
            55 -1427 -55 90 -209 vlineto
            117 callsubr
            38 -20 -39 26 vhcurveto
            -140 -38 callsubr
            64 52 50 63 -105 callgsubr
            148 vlineto
            endchar
          </CharString>
          <CharString index="62">
            13 21 31 11 37 hhcurveto
            47 30 -28 -38 -61 -57 -36 -75 -102 -74 65 100 91 66 76 131 31 33 -3 -6 38 hvcurveto
            return
          </CharString>
          <CharString index="63">
            20 callgsubr
            55 47 60 return
          </CharString>
          <CharString index="64">
            -55 351 65 callsubr
            -65 167 callsubr
            57 -20 58 hhcurveto
            97 65 64 83 37 -15 31 -25 24 hvcurveto
            return
          </CharString>
          <CharString index="65">
            -118 51 -55 108 110 56 62 110 vhcurveto
            return
          </CharString>
          <CharString index="66">
            rmoveto
            -45 callsubr
            180 151 55 -594 -55 381 -118 vlineto
            2 -19 -19 1 -17 hhcurveto
            -156 -90 -107 -115 40 callgsubr
            hvcurveto
            return
          </CharString>
          <CharString index="67">
            -55 214 -45 callgsubr
            return
          </CharString>
          <CharString index="68">
            vvcurveto
            -61 43 -47 76 24 27 5 13 20 vhcurveto
            50 vlineto
            -11 -15 -27 -9 -22 hhcurveto
            -42 -28 22 43 54 49 42 return
          </CharString>
          <CharString index="69">
            63 -48 115 vhcurveto
            -8 callsubr
            return
          </CharString>
          <CharString index="70">
            rmoveto
            251 262 57 -262 252 297 57 -359 -674 365 57 vlineto
            endchar
          </CharString>
          <CharString index="71">
            58 49 -16 -43 -53 -53 -30 -90 -15 hvcurveto
            13 callgsubr
            121 return
          </CharString>
          <CharString index="72">
            -21 callsubr
            55 return
          </CharString>
          <CharString index="73">
            62 314 vlineto
            return
          </CharString>
          <CharString index="74">
            383 rmoveto
            -99 -66 -55 -72 -77 -38 40 106 vhcurveto
            204 253 vlineto
            return
          </CharString>
          <CharString index="75">
            181 callsubr
            280 hlineto
            114 75 62 77 62 47 -40 -81 vhcurveto
            -335 61 354 vlineto
            94 -62 67 -99 -72 -57 -30 -65 -32 vhcurveto
            endchar
          </CharString>
          <CharString index="76">
            rmoveto
            -221 -55 159 -231 hlineto
            -16 -31 -45 -15 -61 hhcurveto
            -173 -105 106 178 174 111 112 156 64 71 -17 -37 53 hvcurveto
            69 vlineto
            34 -56 -74 13 -66 hhcurveto
            -186 -137 -145 -203 -217 139 -129 202 75 76 22 36 49 hvcurveto
            endchar
          </CharString>
          <CharString index="77">
            7 -13 -25 9 -32 hhcurveto
            -75 -47 -36 -62 -14 -63 callgsubr
            return
          </CharString>
          <CharString index="78">
            65 1 45 27 27 40 rrcurveto
            -245 -68 callgsubr
          </CharString>
          <CharString index="79">
            62 callgsubr
            -177 -74 callsubr
            return
          </CharString>
          <CharString index="80">
            79 58 52 74 22 return
          </CharString>
          <CharString index="81">
            339 rmoveto
            -223 240 223 hlineto
            return
          </CharString>
          <CharString index="82">
            rmoveto
            54 hlineto
            110 187 rlineto
            -76 hlineto
            return
          </CharString>
          <CharString index="83">
            -65 hhcurveto
            -26 -22 -6 0 hvcurveto
            -55 vlineto
            0 22 6 24 43 26 -16 -40 26 vhcurveto
            return
          </CharString>
          <CharString index="84">
            rmoveto
            145 52 -145 127 -62 -127 -83 -52 83 -312 hlineto
            -93 41 -55 103 19 31 8 11 17 vhcurveto
            62 vlineto
            -13 -16 -27 -10 -25 hhcurveto
            -57 -24 31 56 hvcurveto
            endchar
          </CharString>
          <CharString index="85">
            75 hlineto
            97 128 96 -128 rlineto
            75 hlineto
            return
          </CharString>
          <CharString index="86">
            -579 -98 callgsubr
            return
          </CharString>
          <CharString index="87">
            rmoveto
            -80 -72 -34 -80 -71 -75 34 80 76 64 41 87 87 60 -38 -79 vhcurveto
            -290 367 rmoveto
            258 -159 rlineto
            -25 -19 -30 -11 -42 hhcurveto
            -52 hlineto
            -77 -38 37 96 hvcurveto
            282 hmoveto
            -23 -2 -20 -5 -16 vhcurveto
            -274 173 rlineto
            281 hlineto
            return
          </CharString>
          <CharString index="88">
            rmoveto
            -50 callsubr
            -24 19 -19 24 hvcurveto
            return
          </CharString>
          <CharString index="89">
            rmoveto
            55 hlineto
            128 150 rlineto
            -81 hlineto
            return
          </CharString>
          <CharString index="90">
            rmoveto
            -83 -64 -58 -93 -98 -58 58 84 97 81 38 76 91 65 -46 -90 vhcurveto
            144 323 rmoveto
            55 -601 -55 290 -135 vlineto
            -104 -4 -106 -57 -126 vvcurveto
            return
          </CharString>
          <CharString index="91">
            221 -258 rlineto
            83 hlineto
            -229 260 rlineto
            return
          </CharString>
          <CharString index="92">
            -128 80 -97 134 -34 callgsubr
            return
          </CharString>
          <CharString index="93">
            -98 callgsubr
            hlineto
            endchar
          </CharString>
          <CharString index="94">
            -55 740 -313 hlineto
            3 callsubr
            -211 hlineto
            -92 callgsubr
            134 hlineto
            -21 -30 -13 -37 -45 39 callsubr
            return
          </CharString>
          <CharString index="95">
            -55 370 -313 hlineto
            -107 callgsubr
            64 return
          </CharString>
          <CharString index="96">
            -54 vlineto
            109 74 -38 -91 -77 -57 -41 -80 -46 -37 13 15 -31 hvcurveto
            -57 vlineto
            -13 30 39 -10 47 hhcurveto
            129 69 77 95 53 -26 47 -46 27 hvcurveto
            return
          </CharString>
          <CharString index="97">
            hhcurveto
            -48 -43 -17 -32 -28 hvcurveto
            return
          </CharString>
          <CharString index="98">
            rmoveto
            151 55 -594 -55 381 -118 hlineto
            2 -19 -19 1 -17 hhcurveto
            -156 -90 -107 -115 -111 72 -76 100 -23 hvcurveto
            -110 -144 rlineto
            -22 callsubr
            -108 142 rlineto
            85 17 52 57 69 vvcurveto
            67 callgsubr
            vhcurveto
            -56 vlineto
            -45 callsubr
            endchar
          </CharString>
          <CharString index="99">
            65 1 45 25 27 39 rrcurveto
            -246 -34 callsubr
            return
          </CharString>
          <CharString index="100">
            rmoveto
            15 callgsubr
            315 55 -611 -55 234 -109 vlineto
            -60 callgsubr
            181 93 127 123 139 -90 50 -89 -86 -67 -65 -82 -79 62 -51 74 19 18 4 8 17 hvcurveto
            endchar
          </CharString>
          <CharString index="101">
            hhcurveto
            -82 -65 52 83 67 callsubr
            hvcurveto
            55 vlineto
            4 -16 -24 3 -22 hhcurveto
            -111 -80 -78 -107 136 callgsubr
            return
          </CharString>
          <CharString index="102">
            -84 callgsubr
            71 -30 49 -45 27 hvcurveto
            return
          </CharString>
          <CharString index="103">
            634 rmoveto
            return
          </CharString>
          <CharString index="104">
            18 callsubr
            51 64 vvcurveto
            59 -43 56 -129 return
          </CharString>
          <CharString index="105">
            rmoveto
            253 -196 hlineto
            -55 callsubr
            return
          </CharString>
          <CharString index="106">
            95 callsubr
            -557 -55 348 177 callgsubr
            -82 61 -50 77 -2 hvcurveto
            88 7 rlineto
            54 33 -32 -50 -65 -53 -33 -77 -62 -75 24 28 -45 hvcurveto
            -63 vlineto
            34 -18 41 -12 43 -6 -107 -141 rcurveline
            127 callsubr
            143 82 18 48 54 1 71 rlinecurve
            76 -47 59 -94 vhcurveto
            -88 -6 rlineto
            -50 1 -36 29 52 vvcurveto
            52 48 17 45 vhcurveto
            endchar
          </CharString>
          <CharString index="107">
            181 callsubr
            283 hlineto
            82 51 90 76 15 12 -2 -4 13 vhcurveto
            62 vlineto
            1 -9 -8 1 -8 hhcurveto
            -73 -44 -37 -55 -25 hvcurveto
            endchar
          </CharString>
          <CharString index="108">
            rmoveto
            122 55 -559 -55 375 -313 hlineto
            -64 -55 -47 -60 -71 -52 50 74 87 61 46 72 7 9 -1 -1 5 vhcurveto
            54 vlineto
            2 -5 -9 1 -9 hhcurveto
            -104 -89 -70 -118 180 callsubr
            hvcurveto
            -146 -148 rlineto
            76 hlineto
            194 197 rlineto
            90 callsubr
          </CharString>
          <CharString index="109">
            -89 7 -39 12 45 vvcurveto
            43 37 23 63 vhcurveto
            152 137 return
          </CharString>
          <CharString index="110">
            -64 -55 -47 -60 -71 -52 50 74 87 61 46 72 7 9 -1 -1 5 vhcurveto
            54 vlineto
            2 -5 -9 1 -9 hhcurveto
            -33 -32 -7 -14 -28 hvcurveto
            return
          </CharString>
          <CharString index="111">
            hlineto
            -3 10 -10 11 35 vvcurveto
            39 22 35 51 51 22 -37 -45 -86 -86 -49 -170 -35 vhcurveto
            -161 18 110 -61 115 112 callgsubr
            return
          </CharString>
          <CharString index="112">
            383 rmoveto
            -55 callsubr
            204 253 vlineto
            return
          </CharString>
          <CharString index="113">
            9 callsubr
            173 -271 -14 callsubr
          </CharString>
          <CharString index="114">
            135 callsubr
            42 -27 -53 26 vhcurveto
            46 39 rlineto
            52 -30 -56 41 -81 hhcurveto
            -51 -45 -18 -32 -28 hvcurveto
            endchar
          </CharString>
          <CharString index="115">
            -55 100 -209 hlineto
            -141 78 -58 115 vhcurveto
            return
          </CharString>
          <CharString index="116">
            vlineto
            -99 callgsubr
            return
          </CharString>
          <CharString index="117">
            rmoveto
            253 -176 hlineto
            -99 -66 -55 -72 -77 -38 40 106 vhcurveto
            315 184 rmoveto
            168 55 -640 -55 95 -184 hlineto
            -136 60 -57 104 -5 vhcurveto
            155 callsubr
            rlineto
            81 hlineto
            259 262 rlineto
            -262 7 callsubr
          </CharString>
          <CharString index="118">
            -7 61 6 vlineto
            74 64 55 146 175 64 -76 -89 vhcurveto
            -33 51 callgsubr
            return
          </CharString>
          <CharString index="119">
            rmoveto
            215 119 callsubr
            -215 283 rlineto
            10 110 callgsubr
            99 55 -405 -55 244 -139 vlineto
            173 callgsubr
            hlineto
            endchar
          </CharString>
          <CharString index="120">
            -48 -43 -17 -32 -28 hvcurveto
            151 return
          </CharString>
          <CharString index="121">
            507 rmoveto
            -83 callsubr
            -86 -86 -49 -170 -35 vhcurveto
            return
          </CharString>
          <CharString index="122">
            -30 callgsubr
            -123 -93 -83 -122 return
          </CharString>
          <CharString index="123">
            rmoveto
            30 24 -24 -30 -29 -24 -24 -30 -29 -24 24 29 30 24 24 29 hvcurveto
            -152 vmoveto
            55 44 44 54 55 -44 44 -55 -54 -44 -44 -55 -54 44 -44 54 hvcurveto
            return
          </CharString>
          <CharString index="124">
            23 21 0 1 21 hvcurveto
            -59 -38 -21 -62 -68 vvcurveto
            -131 82 -91 132 -34 callgsubr
            vhcurveto
            -86 callsubr
            98 112 return
          </CharString>
          <CharString index="125">
            -77 -51 -75 -96 -74 -55 44 65 -13 vhcurveto
            72 22 60 return
          </CharString>
          <CharString index="126">
            rmoveto
            87 callsubr
            hlineto
            -119 -150 rlineto
            64 hlineto
            return
          </CharString>
          <CharString index="127">
            131 50 340 -86 callgsubr
            return
          </CharString>
          <CharString index="128">
            -55 214 -143 hlineto
            -100 callsubr
            146 hlineto
            -3 -15 -1 -15 -16 vvcurveto
            -15 callsubr
            vhcurveto
            -87 callgsubr
            110 63 57 return
          </CharString>
          <CharString index="129">
            rmoveto
            -36 -19 -31 -24 -38 -73 -53 80 -95 hhcurveto
            -54 -52 -27 -64 -46 hvcurveto
            40 -37 rlineto
            53 36 41 19 42 58 73 -81 83 hhcurveto
            61 39 29 56 35 hvcurveto
            return
          </CharString>
          <CharString index="130">
            61 -46 callgsubr
          </CharString>
          <CharString index="131">
            68 callsubr
            -84 vhcurveto
            return
          </CharString>
          <CharString index="132">
            -127 vlineto
            72 callsubr
            -137 -107 -85 -133 -134 106 -76 141 56 57 17 15 28 hvcurveto
            57 vlineto
            -18 -30 -58 -19 -52 hhcurveto
            return
          </CharString>
          <CharString index="133">
            rmoveto
            49 hlineto
            135 150 rlineto
            -81 hlineto
            -251 -150 rmoveto
            49 hlineto
            131 150 rlineto
            -81 hlineto
            return
          </CharString>
          <CharString index="134">
            130 vlineto
            164 109 -126 -150 -143 -78 -141 -190 hvcurveto
            -197 617 rmoveto
            return
          </CharString>
          <CharString index="135">
            rmoveto
            -55 404 10 callgsubr
            -106 72 -87 127 -5 hvcurveto
            96 callsubr
            167 164 122 55 hlineto
            endchar
          </CharString>
          <CharString index="136">
            rmoveto
            -55 -24 -50 -79 -79 -24 50 55 vhcurveto
            -52 hlineto
            -83 40 -70 115 115 40 70 83 vhcurveto
            return
          </CharString>
          <CharString index="137">
            -95 -63 -48 -76 -86 79 -30 106 -7 hvcurveto
            96 -6 27 -33 -45 vvcurveto
            -56 -41 -37 -59 -68 -60 44 58 -23 vhcurveto
            159 callgsubr
            55 -21 57 hhcurveto
            93 69 63 84 88 -62 39 -107 9 hvcurveto
            -100 8 -39 19 45 vvcurveto
            43 38 25 63 vhcurveto
            endchar
          </CharString>
          <CharString index="138">
            -258 rmoveto
            53 -28 vlineto
            -54 -54 34 64 44 22 41 47 22 hvcurveto
            210 -106 hlineto
            2 -13 -13 1 -15 hhcurveto
            138 callsubr
            hvcurveto
            -53 vlineto
            4 9 18 3 15 hhcurveto
            85 36 -50 -67 -127 -90 -69 -117 -91 -72 42 72 57 43 39 75 hvcurveto
            return
          </CharString>
          <CharString index="139">
            hhcurveto
            37 callsubr
          </CharString>
          <CharString index="140">
            -120 hlineto
            -89 34 -49 49 -20 vhcurveto
            -54 -25 -37 -50 -65 vvcurveto
            -105 98 -62 110 117 97 64 103 65 -37 50 -54 25 vhcurveto
            return
          </CharString>
          <CharString index="141">
            -29 21 -21 29 29 23 21 29 28 -23 23 -29 -29 -21 -23 -28 vhcurveto
            return
          </CharString>
          <CharString index="142">
            96 -7 31 -42 -45 vvcurveto
            -58 -40 -35 -60 -67 return
          </CharString>
          <CharString index="143">
            48 callsubr
            -75 -65 -47 -129 return
          </CharString>
          <CharString index="144">
            48 43 17 32 28 hvcurveto
            -100 callgsubr
          </CharString>
          <CharString index="145">
            1 278 -9 -78 callgsubr
            return
          </CharString>
          <CharString index="146">
            vvcurveto
            41 callgsubr
            vhcurveto
            -44 callsubr
            return
          </CharString>
          <CharString index="147">
            rmoveto
            -81 hlineto
            -102 -150 rlineto
            55 hlineto
            return
          </CharString>
          <CharString index="148">
            147 579 rmoveto
            247 -116 hlineto
            -28 1 -27 1 -23 vhcurveto
            -140 -53 rmoveto
            -77 -38 37 96 hvcurveto
            63 vlineto
            255 -196 rlineto
            159 302 rmoveto
            -575 -55 99 57 callgsubr
            return
          </CharString>
          <CharString index="149">
            rmoveto
            45 callsubr
          </CharString>
          <CharString index="150">
            vvcurveto
            42 29 8 32 vhcurveto
            endchar
          </CharString>
          <CharString index="151">
            -180 35 223 rmoveto
            -5 12 27 -7 30 hhcurveto
            82 38 49 80 hvcurveto
            239 176 55 -420 157 callgsubr
            418 42 rmoveto
            -402 -344 rlineto
            88 hlineto
            345 291 rlineto
            return
          </CharString>
          <CharString index="152">
            -59 callsubr
            endchar
          </CharString>
          <CharString index="153">
            197 vlineto
            226 107 166 175 200 -142 133 -196 hvcurveto
            endchar
          </CharString>
          <CharString index="154">
            55 rmoveto
            172 137 125 144 130 vvcurveto
            132 -101 62 -103 -53 -59 -19 -35 -44 vhcurveto
            -62 vlineto
            36 49 59 22 46 hhcurveto
            83 59 -46 -93 -134 -163 -154 -157 -120 hvcurveto
            -55 407 55 vlineto
            endchar
          </CharString>
          <CharString index="155">
            rmoveto
            52 callgsubr
            return
          </CharString>
          <CharString index="156">
            31 -28 -54 40 -91 hhcurveto
            -103 -80 -74 -110 -111 77 -69 107 79 42 32 45 27 hvcurveto
            -44 37 58 -33 81 hhcurveto
            return
          </CharString>
          <CharString index="157">
            rmoveto
            -139 162 rlineto
            -63 hlineto
            124 -162 rlineto
            return
          </CharString>
          <CharString index="158">
            -579 62 579 return
          </CharString>
          <CharString index="159">
            -100 -64 -43 -76 -73 58 -33 107 74 62 -9 -67 -55 -40 -33 -61 -68 -63 44 58 -25 hvcurveto
            112 callsubr
            51 89 97 -76 32 -99 -94 -32 14 41 46 42 16 58 hvcurveto
            return
          </CharString>
          <CharString index="160">
            61 49 21 31 26 hvcurveto
            -65 callgsubr
          </CharString>
          <CharString index="161">
            61 449 147 callsubr
            49 85 89 70 47 95 vhcurveto
            endchar
          </CharString>
          <CharString index="162">
            87 callgsubr
            114 callgsubr
            -185 283 rlineto
            10 hlineto
            45 35 return
          </CharString>
          <CharString index="163">
            57 vlineto
            -21 -38 -68 -16 -60 hhcurveto
            -89 -65 35 82 74 62 39 82 hvcurveto
            177 return
          </CharString>
          <CharString index="164">
            110 63 57 124 return
          </CharString>
          <CharString index="165">
            88 -16 -69 54 -109 hhcurveto
            -28 -29 -5 -7 -16 hvcurveto
            -53 vlineto
            8 18 27 5 31 hhcurveto
            82 48 -55 -76 -80 -51 -59 -95 -59 -51 19 22 -36 hvcurveto
            -60 vlineto
            -16 30 55 -19 162 callsubr
            79 76 103 7 hvcurveto
            return
          </CharString>
          <CharString index="166">
            327 -107 callsubr
            -482 55 rmoveto
            34 callgsubr
            return
          </CharString>
          <CharString index="167">
            vvcurveto
            126 -97 67 -120 -43 -39 -8 -15 -33 vhcurveto
            -21 9 -28 28 43 43 callsubr
          </CharString>
          <CharString index="168">
            77 callsubr
            55 return
          </CharString>
          <CharString index="169">
            259 50 rmoveto
            -86 -64 80 117 141 70 69 86 58 95 -43 -158 -162 -86 -44 -73 hvcurveto
            return
          </CharString>
          <CharString index="170">
            -55 260 hlineto
            25 -21 19 -40 -37 vvcurveto
            -63 -31 -46 -92 vhcurveto
            -50 -55 47 hlineto
            87 72 -41 -78 -86 -70 -37 -87 -58 -41 15 15 -31 hvcurveto
            -57 vlineto
            -14 39 42 -12 55 hhcurveto
            141 72 75 98 return
          </CharString>
          <CharString index="171">
            -35 429 94 callsubr
            -565 -55 388 -104 -184 120 callgsubr
            return
          </CharString>
          <CharString index="172">
            -82 -95 hlineto
            -95 -62 -46 -76 -86 74 -22 100 -7 hvcurveto
            35 callsubr
            return
          </CharString>
          <CharString index="173">
            rmoveto
            45 hlineto
            115 214 rlineto
            -81 hlineto
            return
          </CharString>
          <CharString index="174">
            -27 callsubr
            20 -2 -6 17 return
          </CharString>
          <CharString index="175">
            -143 hlineto
            -64 -15 -34 return
          </CharString>
          <CharString index="176">
            181 55 rmoveto
            return
          </CharString>
          <CharString index="177">
            56 vlineto
            6 -13 -21 4 -22 hhcurveto
            return
          </CharString>
          <CharString index="178">
            vvcurveto
            142 callgsubr
            vhcurveto
            -173 -80 callgsubr
          </CharString>
          <CharString index="179">
            1 -9 -10 0 -9 hhcurveto
            return
          </CharString>
          <CharString index="180">
            rmoveto
            -435 -57 186 -617 62 617 187 hlineto
            endchar
          </CharString>
          <CharString index="181">
            -242 -74 callsubr
            return
          </CharString>
          <CharString index="182">
            rmoveto
            -102 150 rlineto
            -81 hlineto
            128 -150 rlineto
            return
          </CharString>
          <CharString index="183">
            -72 -53 38 73 56 34 74 175 return
          </CharString>
          <CharString index="184">
            -285 -65 callsubr
            return
          </CharString>
          <CharString index="185">
            373 rmoveto
            -18 -2 -16 -4 -14 vhcurveto
            -262 253 rlineto
            1 268 vlineto
            -268 -62 rmoveto
            244 -233 rlineto
            -40 -25 -43 -21 -46 hhcurveto
            -77 -53 46 106 hvcurveto
            return
          </CharString>
          <CharString index="186">
            vlineto
            -92 callgsubr
            return
          </CharString>
          <CharString index="187">
            rmoveto
            -54 44 -44 54 55 44 44 54 55 -44 44 -55 -54 -44 -44 -55 vhcurveto
            45 hmoveto
            30 24 24 29 30 24 -24 -30 -29 -24 -24 -30 -29 -24 24 29 vhcurveto
            return
          </CharString>
          <CharString index="188">
            vlineto
            -99 callsubr
            191 -579 -80 callgsubr
          </CharString>
          <CharString index="189">
            -4 callsubr
            -295 -208 187 vlineto
            102 callsubr
            return
          </CharString>
          <CharString index="190">
            hhcurveto
            -77 -38 40 106 hvcurveto
            return
          </CharString>
          <CharString index="191">
            hlineto
            28 callgsubr
            return
          </CharString>
          <CharString index="192">
            196 634 -196 hlineto
            236 -185 rmoveto
            196 185 -196 hlineto
            return
          </CharString>
          <CharString index="193">
            hhcurveto
            91 callgsubr
            return
          </CharString>
          <CharString index="194">
            87 -107 rlineto
            64 hlineto
            -119 150 rlineto
            -63 return
          </CharString>
          <CharString index="195">
            152 callgsubr
            116 52 -116 53 hlineto
            74 39 20 44 29 28 -8 -11 27 vhcurveto
            -635 61 667 vlineto
            23 -36 -58 22 -54 hhcurveto
            return
          </CharString>
          <CharString index="196">
            -194 -68 callgsubr
          </CharString>
          <CharString index="197">
            144 callgsubr
            rlineto
            27 -31 -44 15 146 callsubr
            endchar
          </CharString>
          <CharString index="198">
            -48 -61 -90 hvcurveto
            -54 -93 -52 93 152 callgsubr
            return
          </CharString>
          <CharString index="199">
            187 hlineto
            102 callsubr
            return
          </CharString>
          <CharString index="200">
            -328 85 hmoveto
            62 674 -62 hlineto
            return
          </CharString>
          <CharString index="201">
            423 rmoveto
            156 116 55 return
          </CharString>
          <CharString index="202">
            rmoveto
            150 147 55 return
          </CharString>
          <CharString index="203">
            -141 -129 rlineto
            82 hlineto
            201 181 rlineto
            -77 callgsubr
            return
          </CharString>
          <CharString index="204">
            -35 -12 -44 -50 vvcurveto
            -146 90 -116 140 -12 callgsubr
            vhcurveto
            51 vlineto
            -2 -8 -10 0 -5 hhcurveto
            -122 -55 100 109 return
          </CharString>
          <CharString index="205">
            61 276 hlineto
            -51 34 52 -33 69 hhcurveto
            128 90 110 157 135 -74 121 -142 -76 -50 -34 -48 -31 hvcurveto
            endchar
          </CharString>
          <CharString index="206">
            hhcurveto
            -101 -102 27 91 96 122 21 93 23 51 -2 -3 20 hvcurveto
            endchar
          </CharString>
          <CharString index="207">
            65 -24 55 -53 28 vhcurveto
            125 vlineto
            endchar
          </CharString>
          <CharString index="208">
            hlineto
            -14 106 callgsubr
            return
          </CharString>
          <CharString index="209">
            129 callsubr
            -13 -13 -1 -3 -11 vhcurveto
            return
          </CharString>
          <CharString index="210">
            182 55 rmoveto
            return
          </CharString>
          <CharString index="211">
            160 callgsubr
            -123 72 -97 127 -5 hvcurveto
            9 54 hlineto
            -94 5 -51 68 97 vvcurveto
            57 callsubr
            vhcurveto
            return
          </CharString>
          <CharString index="212">
            -78 55 -43 122 -6 return
          </CharString>
          <CharString index="213">
            -36 rlineto
            -50 -8 -20 -26 -33 vvcurveto
            -42 27 -41 16 -22 vhcurveto
            46 11 rlineto
            -9 21 -10 25 22 vvcurveto
            24 12 16 31 5 vhcurveto
            return
          </CharString>
          <CharString index="214">
            rlineto
            18 -25 -19 7 -20 hhcurveto
            -57 -28 -74 -62 -1 hvcurveto
            45 -15 rlineto
            44 10 15 34 31 hhcurveto
            12 14 -5 -11 16 hvcurveto
            return
          </CharString>
          <CharString index="215">
            -5 290 50 rmoveto
            -58 -95 43 158 162 86 44 73 86 64 -80 -117 -141 -70 -69 -86 hvcurveto
            -153 return
          </CharString>
          <CharString index="216">
            rmoveto
            617 -62 -674 359 57 vlineto
            endchar
          </CharString>
          <CharString index="217">
            251 rmoveto
            332 -143 hlineto
            -43 -7 -29 -29 -15 vhcurveto
            111 -31 -99 17 -47 -10 callsubr
            return
          </CharString>
          <CharString index="218">
            -87 hlineto
            1 -9 -40 0 -9 hhcurveto
            -119 -135 -52 -116 return
          </CharString>
          <CharString index="219">
            -55 -222 60 127 hlineto
            -36 33 57 -23 61 hhcurveto
            92 73 return
          </CharString>
          <CharString index="220" raw="1">
            fb010744 886c3f1e 4a56060b 
          </CharString>
          <CharString index="221">
            155 114 106 141 return
          </CharString>
          <CharString index="222">
            -16 callgsubr
            endchar
          </CharString>
          <CharString index="223">
            34 callgsubr
            -154 20 98 -80 118 hhcurveto
            return
          </CharString>
          <CharString index="224">
            -64 callsubr
            45 return
          </CharString>
          <CharString index="225">
            vlineto
            122 callsubr
          </CharString>
          <CharString index="226">
            -285 rlineto
            75 hlineto
            return
          </CharString>
          <CharString index="227">
            -28 23 -28 45 51 vvcurveto
            58 38 43 50 23 callgsubr
            return
          </CharString>
          <CharString index="228">
            hhcurveto
            80 callgsubr
            hvcurveto
            160 callsubr
            return
          </CharString>
          <CharString index="229">
            128 callsubr
            -29 callsubr
          </CharString>
          <CharString index="230">
            vlineto
            74 43 33 56 56 46 -34 -73 vhcurveto
            return
          </CharString>
          <CharString index="231">
            443 -2 callgsubr
            return
          </CharString>
          <CharString index="232">
            rmoveto
            -238 53 hlineto
            67 32 27 46 52 36 -13 -21 40 vhcurveto
            60 vlineto
            20 -37 -40 12 -48 hhcurveto
            return
          </CharString>
          <CharString index="233">
            654 rmoveto
            -55 358 vlineto
            -276 -599 rlineto
            66 hlineto
            275 599 rlineto
            55 vlineto
            endchar
          </CharString>
          <CharString index="234">
            -22 callsubr
            -109 return
          </CharString>
          <CharString index="235">
            72 callgsubr
            vhcurveto
            return
          </CharString>
          <CharString index="236">
            72 -28 40 -71 return
          </CharString>
          <CharString index="237">
            -110 -103 vlineto
            -139 -87 -81 -112 -71 34 -62 68 -30 hvcurveto
            -49 -27 -23 -47 -49 vvcurveto
            return
          </CharString>
          <CharString index="238">
            -255 vlineto
            -140 -95 -73 -101 138 callgsubr
            vhcurveto
            -4 callgsubr
            return
          </CharString>
          <CharString index="239">
            rmoveto
            266 342 rlineto
            -78 hlineto
            -267 -342 277 -332 rlineto
            82 hlineto
            endchar
          </CharString>
          <CharString index="240">
            24 19 18 24 24 -19 19 -24 -24 -18 -19 -24 return
          </CharString>
          <CharString index="241">
            15 -19 16 -32 -40 vvcurveto
            -47 -37 -40 -71 -24 vhcurveto
            return
          </CharString>
          <CharString index="242">
            147 callgsubr
            53 return
          </CharString>
          <CharString index="243">
            rmoveto
            45 -263 -45 vlineto
            return
          </CharString>
          <CharString index="244">
            -272 263 rlineto
            return
          </CharString>
          <CharString index="245">
            -19 -21 -2 -4 -11 return
          </CharString>
          <CharString index="246">
            -51 callgsubr
            204 vmoveto
            return
          </CharString>
          <CharString index="247">
            495 rmoveto
            147 92 rlineto
            -587 61 654 -61 vlineto
            -147 -90 rlineto
            endchar
          </CharString>
          <CharString index="248">
            -109 hlineto
            -71 -3 -31 -76 vhcurveto
            -65 -53 hlineto
            return
          </CharString>
          <CharString index="249">
            328 rmoveto
            -70 callgsubr
            return
          </CharString>
          <CharString index="250">
            38 42 4 12 48 return
          </CharString>
          <CharString index="251">
            162 143 callsubr
            vhcurveto
            55 vlineto
            -11 -33 -53 -7 -36 hhcurveto
            -130 return
          </CharString>
          <CharString index="252">
            rmoveto
            -83 67 -67 83 82 68 67 83 82 -68 68 -82 -83 -67 -68 -82 vhcurveto
            return
          </CharString>
          <CharString index="253">
            -49 -10 callsubr
            return
          </CharString>
          <CharString index="254">
            -58 vlineto
            -67 -52 -55 -86 -83 -55 return
          </CharString>
          <CharString index="255">
            51 callgsubr
            -121 vlineto
            106 return
          </CharString>
          <CharString index="256" raw="1">
            d706f756 f759055f 0a0b 
          </CharString>
          <CharString index="257">
            120 -579 -65 callsubr
            55 return
          </CharString>
          <CharString index="258">
            rmoveto
            -45 hlineto
            -115 -214 rlineto
            81 hlineto
            return
          </CharString>
          <CharString index="259">
            vlineto
            103 callsubr
            return
          </CharString>
          <CharString index="260">
            -139 -95 103 107 -26 hvcurveto
            13 hlineto
            -10 callgsubr
            return
          </CharString>
          <CharString index="261">
            -44 callsubr
            34 30 -11 -21 22 vhcurveto
            return
          </CharString>
          <CharString index="262">
            -189 -197 return
          </CharString>
          <CharString index="263">
            -131 -388 -54 hlineto
            109 74 -48 -101 -81 -57 -47 -80 return
          </CharString>
          <CharString index="264">
            80 25 71 45 93 182 callsubr
            return
          </CharString>
          <CharString index="265">
            15 -19 16 -32 -40 vvcurveto
            -48 -38 -41 return
          </CharString>
          <CharString index="266">
            hhcurveto
            -51 -45 -18 -32 -28 hvcurveto
            149 return
          </CharString>
          <CharString index="267">
            62 55 -51 hlineto
            66 callgsubr
            return
          </CharString>
          <CharString index="268">
            457 rmoveto
            4 -16 -24 3 -22 hhcurveto
            -111 -80 -78 -107 return
          </CharString>
          <CharString index="269">
            65 hhcurveto
            120 return
          </CharString>
          <CharString index="270">
            56 vlineto
            6 -13 -26 4 -22 hhcurveto
            -87 -44 -62 -80 hvcurveto
            return
          </CharString>
          <CharString index="271">
            128 callgsubr
            -45 -33 -39 -65 -23 vhcurveto
            return
          </CharString>
          <CharString index="272">
            vvcurveto
            -103 93 -64 132 114 callsubr
            return
          </CharString>
          <CharString index="273">
            -24 -36 -57 -10 -41 hhcurveto
            -100 -79 58 115 -10 hvcurveto
            return
          </CharString>
          <CharString index="274">
            45 57 68 callgsubr
            -37 35 return
          </CharString>
          <CharString index="275">
            -88 -63 -43 -83 return
          </CharString>
          <CharString index="276">
            27 21 19 27 26 -21 21 -27 -39 callgsubr
            return
          </CharString>
          <CharString index="277">
            -55 90 -204 vlineto
            128 callsubr
            return
          </CharString>
          <CharString index="278">
            56 19 41 44 74 vvcurveto
            38 -16 37 -22 22 vhcurveto
            return
          </CharString>
          <CharString index="279">
            -36 32 -22 hvcurveto
            -44 -36 return
          </CharString>
          <CharString index="280">
            424 56 -424 hlineto
            return
          </CharString>
          <CharString index="281">
            22 -50 rcurveline
            55 140 return
          </CharString>
          <CharString index="282">
            -31 -38 34 hvcurveto
            -235 -191 rlineto
            88 hlineto
            return
          </CharString>
          <CharString index="283">
            -579 23 callsubr
          </CharString>
          <CharString index="284">
            hhcurveto
            -46 -38 -16 -30 -25 hvcurveto
            return
          </CharString>
          <CharString index="285">
            50 78 callgsubr
            return
          </CharString>
          <CharString index="286">
            55 -337 -55 147 vlineto
            return
          </CharString>
          <CharString index="287">
            -106 75 -69 101 -1 return
          </CharString>
          <CharString index="288">
            rmoveto
            -61 -507 61 return
          </CharString>
          <CharString index="289">
            vvcurveto
            38 -10 32 -16 24 vhcurveto
            202 hlineto
            return
          </CharString>
          <CharString index="290">
            25 26 -18 19 -26 -25 -19 -19 -26 vhcurveto
            return
          </CharString>
        <CharString name=".notdef">
          190 180 hmoveto
          390 701 -390 hlineto
          54 -50 rmoveto
          282 -601 -282 hlineto
          endchar
        </CharString>
        <CharString name="A">
          77 189 242 -85 callgsubr
        </CharString>
        <CharString name="AE">
          303 238 242 rmoveto
          25 42 94 159 62 108 34 61 rlinecurve
          -370 vlineto
          62 -185 rmoveto
          251 262 57 -262 252 297 57 -387 vlineto
          -398 -674 rlineto
          67 hlineto
          111 187 rlineto
          248 -187 365 57 hlineto
          endchar
        </CharString>
        <CharString name="Aacute">
          77 483 879 40 callsubr
          -166 -487 -85 callgsubr
        </CharString>
        <CharString name="Abreve">
          77 424 878 29 callsubr
          -287 -636 -85 callgsubr
        </CharString>
        <CharString name="Acircumflex">
          77 321 836 19 callsubr
          -46 -487 -85 callgsubr
        </CharString>
        <CharString name="Adieresis">
          77 413 762 -53 callgsubr
          -40 -520 -85 callgsubr
        </CharString>
        <CharString name="Agrave">
          77 341 729 75 callsubr
          -97 -487 -85 callgsubr
        </CharString>
        <CharString name="Amacron">
          77 453 826 143 callgsubr
          -264 -539 -85 callgsubr
        </CharString>
        <CharString name="Aogonek">
          77 189 242 rmoveto
          15 42 rlineto
          104 299 13 39 0 vvcurveto
          0 12 -39 102 -298 vhcurveto
          15 -43 rlineto
          -84 432 rmoveto
          -90 hlineto
          -238 -674 rlineto
          67 hlineto
          65 187 rlineto
          298 hlineto
          60 -176 rlineto
          -53 -30 -43 -51 -59 -39 callsubr
          62 28 hvcurveto
          endchar
        </CharString>
        <CharString name="Aring">
          77 321 871 16 callsubr
          -132 -477 -85 callgsubr
        </CharString>
        <CharString name="Atilde">
          77 440 854 -58 callsubr
          -293 -584 -85 callgsubr
        </CharString>
        <CharString name="B">
          2 142 55 rmoveto
          258 153 vlineto
          98 59 -47 -85 -83 -52 -43 -86 hvcurveto
          -172 564 rmoveto
          133 hlineto
          110 47 -56 -62 -71 -45 -62 -124 hvcurveto
          -121 hlineto
          -62 306 rmoveto
          -674 234 vlineto
          135 68 75 104 104 -71 52 -69 8 hvcurveto
          69 14 51 61 81 vvcurveto
          111 -96 64 -133 vhcurveto
          endchar
        </CharString>
        <CharString name="C">
          39 557 647 -48 callsubr
          endchar
        </CharString>
        <CharString name="CR">
          endchar
        </CharString>
        <CharString name="Cacute">
          39 557 647 -48 callsubr
          -220 147 -18 callsubr
          endchar
        </CharString>
        <CharString name="Ccaron">
          39 557 647 -48 callsubr
          -142 147 -69 callsubr
          endchar
        </CharString>
        <CharString name="Ccedilla">
          39 336 -51 rmoveto
          17 -28 6 -19 -28 vvcurveto
          -42 -30 -25 -57 -6 vhcurveto
          -49 vlineto
          96 4 47 58 65 vvcurveto
          22 -7 32 -11 16 vhcurveto
          160 698 -48 callsubr
          endchar
        </CharString>
        <CharString name="D">
          95 142 57 rmoveto
          560 27 callsubr
          -674 46 callsubr
        </CharString>
        <CharString name="Dcaron">
          95 334 728 -69 callsubr
          -129 -671 rmoveto
          560 27 callsubr
          -674 46 callsubr
        </CharString>
        <CharString name="Dcroat">
          25 callgsubr
        </CharString>
        <CharString name="E">
          -70 142 57 -37 callsubr
        </CharString>
        <CharString name="Eacute">
          -70 433 879 40 callsubr
          -163 -672 -37 callsubr
        </CharString>
        <CharString name="Ecaron">
          -70 301 728 -69 callsubr
          -96 -671 -37 callsubr
        </CharString>
        <CharString name="Ecircumflex">
          -70 273 836 19 callsubr
          -45 -672 -37 callsubr
        </CharString>
        <CharString name="Edieresis">
          -70 359 760 -53 callgsubr
          -33 -703 -37 callsubr
        </CharString>
        <CharString name="Edotaccent">
          -70 273 763 -19 callsubr
          -131 -706 -37 callsubr
        </CharString>
        <CharString name="Egrave">
          -70 313 728 75 callsubr
          -116 -671 -37 callsubr
        </CharString>
        <CharString name="Emacron">
          -70 392 826 143 callgsubr
          -250 -724 -37 callsubr
        </CharString>
        <CharString name="Eogonek">
          -70 445 hmoveto
          57 -303 251 262 57 -262 252 297 57 -359 -674 164 vlineto
          -45 -31 -34 -46 -52 -39 callsubr
          62 28 hvcurveto
          endchar
        </CharString>
        <CharString name="Eth">
          25 callgsubr
        </CharString>
        <CharString name="Euro">
          22 542 640 rmoveto
          15 -30 -43 4 -37 hhcurveto
          -132 -104 -83 -142 -35 hvcurveto
          -106 -49 98 hlineto
          -3 -19 -1 -20 -21 vvcurveto
          -17 1 -17 2 -16 vhcurveto
          -97 -49 104 hlineto
          -146 33 106 -88 127 hhcurveto
          42 40 3 18 35 hvcurveto
          59 vlineto
          -17 -31 -41 -4 -37 hhcurveto
          -95 -83 61 114 -30 hvcurveto
          205 49 -214 hlineto
          -2 16 -1 17 17 vvcurveto
          21 1 20 3 19 vhcurveto
          213 49 -203 hlineto
          109 30 79 57 102 hhcurveto
          37 38 -4 -15 29 hvcurveto
          endchar
        </CharString>
        <CharString name="F">
          -76 439 617 rmoveto
          57 -359 -674 62 303 262 57 -262 257 vlineto
          endchar
        </CharString>
        <CharString name="G">
          101 591 371 -31 callsubr
        </CharString>
        <CharString name="Gbreve">
          101 469 879 29 callsubr
          70 -508 -31 callsubr
        </CharString>
        <CharString name="H">
          72 490 674 rmoveto
          -302 -348 302 -62 -674 62 315 348 -315 62 674 vlineto
          endchar
        </CharString>
        <CharString name="I">
          93 callsubr
          endchar
        </CharString>
        <CharString name="Iacute">
          93 callsubr
          8 55 -18 callsubr
          endchar
        </CharString>
        <CharString name="Icircumflex">
          -328 85 879 4 callgsubr
          -63 -879 rmoveto
          62 674 -62 hlineto
          endchar
        </CharString>
        <CharString name="Idieresis">
          93 callsubr
          -103 130 -54 callsubr
          endchar
        </CharString>
        <CharString name="Idotaccent">
          93 callsubr
          -11 133 rmoveto
          -24 19 -19 24 -50 callsubr
          vhcurveto
          endchar
        </CharString>
        <CharString name="Igrave">
          93 callsubr
          -48 205 69 callgsubr
        </CharString>
        <CharString name="Imacron">
          93 callsubr
          163 107 136 callsubr
          endchar
        </CharString>
        <CharString name="Iogonek">
          -328 147 674 rmoveto
          -62 -658 hlineto
          -57 -30 -48 -53 -62 -39 callsubr
          62 28 hvcurveto
          endchar
        </CharString>
        <CharString name="J">
          -211 30 23 rmoveto
          -15 25 39 -8 28 hhcurveto
          77 70 34 131 hvcurveto
          509 -62 -519 vlineto
          -66 -31 -30 -60 -31 -31 11 16 -24 vhcurveto
          endchar
        </CharString>
        <CharString name="K">
          -11 80 hmoveto
          62 674 -62 hlineto
          159 -342 132 callsubr
        </CharString>
        <CharString name="L">
          -86 142 57 109 callsubr
        </CharString>
        <CharString name="Lacute">
          -86 438 879 40 callsubr
          -168 -672 109 callsubr
        </CharString>
        <CharString name="Lcaron">
          -86 404 702 rmoveto
          -76 hlineto
          -88 -187 rlineto
          54 hlineto
          -152 -458 109 callsubr
        </CharString>
        <CharString name="Lslash">
          -77 151 57 rmoveto
          245 vlineto
          146 108 rlineto
          66 vlineto
          -146 -108 rlineto
          306 -62 -352 vlineto
          -64 -48 rlineto
          -66 vlineto
          64 48 rlineto
          -256 359 57 vlineto
          endchar
        </CharString>
        <CharString name="M">
          288 75 hmoveto
          62 hlineto
          19 267 rlineto
          12 168 9 151 0 vvcurveto
          112 -319 88 -250 rlineto
          73 hlineto
          93 250 rlineto
          59 159 60 167 0 vvcurveto
          0 13 -166 14 -160 vhcurveto
          23 -267 rlineto
          62 hlineto
          -57 674 rlineto
          -85 hlineto
          -92 -247 rlineto
          -57 -153 -69 -190 0 vvcurveto
          0 -67 196 -52 147 vhcurveto
          -88 247 rlineto
          -85 hlineto
          endchar
        </CharString>
        <CharString name="N">
          107 80 hmoveto
          45 callsubr
        </CharString>
        <CharString name="NULL">
          endchar
        </CharString>
        <CharString name="Nacute">
          107 332 728 -18 callsubr
          -354 -878 42 callsubr
        </CharString>
        <CharString name="Ncaron">
          107 80 hmoveto
          -59 callsubr
          304 55 -69 callsubr
          endchar
        </CharString>
        <CharString name="Ntilde">
          107 80 hmoveto
          -59 callsubr
          382 179 -58 callsubr
          endchar
        </CharString>
        <CharString name="O">
          20 callsubr
          endchar
        </CharString>
        <CharString name="OE">
          419 342 52 rmoveto
          -140 -88 109 179 179 81 109 145 150 79 -109 -179 -179 -79 -109 -148 hvcurveto
          289 5 rmoveto
          251 262 57 -262 252 297 57 -359 -98 vlineto
          71 -49 -77 41 -103 hhcurveto
          -181 -109 -136 -212 -212 114 -136 178 100 78 41 73 49 hvcurveto
          -106 365 57 vlineto
          endchar
        </CharString>
        <CharString name="Oacute">
          131 327 729 -18 callsubr
          -379 -539 -86 callgsubr
          endchar
        </CharString>
        <CharString name="Ocircumflex">
          131 114 340 rmoveto
          179 86 109 145 150 82 -109 -179 -179 -82 -109 -148 -140 -93 109 179 vhcurveto
          -64 hmoveto
          -212 119 -136 178 182 112 136 212 212 -108 136 -188 -181 -114 -136 -212 vhcurveto
          272 539 4 callgsubr
          endchar
        </CharString>
        <CharString name="Odieresis">
          131 213 805 -54 callsubr
          -347 -465 -86 callgsubr
          endchar
        </CharString>
        <CharString name="Ograve">
          20 callsubr
          166 539 69 callgsubr
        </CharString>
        <CharString name="Ohungarumlaut">
          131 412 729 26 callsubr
          -313 -539 -86 callgsubr
          endchar
        </CharString>
        <CharString name="Omacron">
          131 479 781 136 callsubr
          -166 -441 -86 callgsubr
          endchar
        </CharString>
        <CharString name="Oslash">
          104 520 536 rmoveto
          32 -49 17 -66 -81 vvcurveto
          -179 -82 -109 -148 -56 -49 18 33 -38 vhcurveto
          -39 43 rmoveto
          -33 49 -18 65 80 vvcurveto
          179 86 109 145 59 48 -17 -31 37 vhcurveto
          153 108 rmoveto
          -72 hlineto
          -44 -58 rlineto
          37 -47 -61 21 -73 hhcurveto
          -181 -114 -136 -212 -102 27 -84 49 -60 hvcurveto
          -77 -103 rlineto
          71 hlineto
          46 62 rlineto
          -39 49 61 -22 71 hhcurveto
          182 112 136 212 103 -26 85 -47 61 hvcurveto
          endchar
        </CharString>
        <CharString name="Otilde">
          20 callsubr
          353 515 -58 callsubr
          endchar
        </CharString>
        <CharString name="P">
          -20 142 311 rmoveto
          308 107 vlineto
          117 66 -64 -97 -81 -63 -66 -109 hvcurveto
          -180 363 rmoveto
          -674 62 256 111 vlineto
          154 88 95 107 126 -92 90 -161 hvcurveto
          endchar
        </CharString>
        <CharString name="Q">
          141 114 340 rmoveto
          179 86 109 145 150 82 -109 -179 -179 -82 -109 -148 -140 -93 109 179 vhcurveto
          554 -451 rmoveto
          -198 128 rlineto
          108 48 63 116 159 vvcurveto
          212 -108 136 -188 -181 -114 -136 -212 -212 119 -136 178 19 18 1 3 17 vhcurveto
          202 -135 rlineto
          endchar
        </CharString>
        <CharString name="R">
          -29 142 329 -20 callgsubr
        </CharString>
        <CharString name="Racute">
          -29 419 879 40 callsubr
          -149 -400 -20 callgsubr
        </CharString>
        <CharString name="Rcaron">
          -29 300 728 -69 callsubr
          -95 -399 -20 callgsubr
        </CharString>
        <CharString name="S">
          -33 423 650 -73 callgsubr
          endchar
        </CharString>
        <CharString name="Sacute">
          -33 259 728 -18 callsubr
          62 -228 -73 callgsubr
          endchar
        </CharString>
        <CharString name="Scaron">
          -33 423 650 -73 callgsubr
          -129 147 -69 callsubr
          endchar
        </CharString>
        <CharString name="T">
          -95 450 674 73 callsubr
        </CharString>
        <CharString name="Tcaron">
          -95 265 729 -69 callsubr
          248 -55 73 callsubr
        </CharString>
        <CharString name="Thorn">
          -31 142 183 rmoveto
          308 97 vlineto
          127 56 -64 -97 -81 -53 -66 -119 hvcurveto
          -108 363 rmoveto
          128 -62 -674 62 128 101 vlineto
          164 78 95 107 126 -82 90 -171 hvcurveto
          endchar
        </CharString>
        <CharString name="U">
          79 497 253 21 callgsubr
        </CharString>
        <CharString name="Uacute">
          79 304 729 -18 callsubr
          91 -626 21 callgsubr
        </CharString>
        <CharString name="Ucircumflex">
          79 497 253 -66 callgsubr
          -206 205 4 callgsubr
          endchar
        </CharString>
        <CharString name="Udieresis">
          79 185 805 -54 callsubr
          128 -552 21 callgsubr
        </CharString>
        <CharString name="Ugrave">
          79 497 253 -66 callgsubr
          -250 205 69 callgsubr
        </CharString>
        <CharString name="Uhungarumlaut">
          79 497 253 -66 callgsubr
          -133 55 26 callsubr
          endchar
        </CharString>
        <CharString name="Umacron">
          79 497 253 -66 callgsubr
          -44 107 136 callsubr
          endchar
        </CharString>
        <CharString name="Uogonek">
          79 497 674 rmoveto
          -421 vlineto
          -147 -73 -54 -106 -101 -75 55 141 vhcurveto
          426 -62 -427 vlineto
          -164 84 -86 142 -5 vhcurveto
          -36 -30 -25 -40 -45 -39 callsubr
          61 28 hvcurveto
          94 30 54 83 136 vvcurveto
          419 vlineto
          endchar
        </CharString>
        <CharString name="Uring">
          79 224 816 80 callsubr
          228 -563 21 callgsubr
        </CharString>
        <CharString name="V">
          71 591 674 rmoveto
          -67 hlineto
          -92 -267 -120 -352 rlineto
          0 -43 132 -73 220 vhcurveto
          -89 267 rlineto
          -67 hlineto
          229 -674 rlineto
          85 hlineto
          endchar
        </CharString>
        <CharString name="W">
          369 432 664 rmoveto
          -70 -240 rlineto
          -36 -122 -67 -239 0 vvcurveto
          0 -69 276 -22 85 vhcurveto
          -63 250 rlineto
          -65 hlineto
          175 -674 rlineto
          85 hlineto
          63 213 rlineto
          69 232 38 138 0 vvcurveto
          0 41 -138 73 -232 vhcurveto
          67 -213 rlineto
          85 hlineto
          153 674 rlineto
          -62 hlineto
          -56 -252 rlineto
          -24 -107 -55 -256 0 vvcurveto
          0 -82 267 -30 97 vhcurveto
          -75 241 rlineto
          endchar
        </CharString>
        <CharString name="X">
          40 260 340 rmoveto
          -218 -340 rlineto
          72 hlineto
          181 287 191 -287 rlineto
          72 hlineto
          -229 340 204 334 rlineto
          -72 hlineto
          -167 -278 -167 278 rlineto
          -72 hlineto
          endchar
        </CharString>
        <CharString name="Y">
          20 479 674 11 callgsubr
        </CharString>
        <CharString name="Yacute">
          20 463 878 40 callsubr
          144 -54 11 callgsubr
        </CharString>
        <CharString name="Ydieresis">
          20 381 761 -53 callgsubr
          282 -87 11 callgsubr
        </CharString>
        <CharString name="Z">
          -5 490 674 26 callgsubr
          endchar
        </CharString>
        <CharString name="Zacute">
          -5 261 729 -18 callsubr
          127 -205 26 callgsubr
          endchar
        </CharString>
        <CharString name="Zcaron">
          -5 490 674 26 callgsubr
          -185 110 -69 callsubr
          endchar
        </CharString>
        <CharString name="Zdotaccent">
          -5 490 674 26 callgsubr
          -251 188 rmoveto
          -24 19 -19 24 -50 callsubr
          vhcurveto
          endchar
        </CharString>
        <CharString name="a">
          -74 355 241 -96 callgsubr
        </CharString>
        <CharString name="aacute">
          -74 414 712 40 callsubr
          69 -321 -96 callgsubr
        </CharString>
        <CharString name="abreve">
          -74 350 711 29 callsubr
          -47 -470 -96 callgsubr
        </CharString>
        <CharString name="acircumflex">
          -74 253 668 19 callsubr
          188 -320 -96 callgsubr
        </CharString>
        <CharString name="acute">
          -160 110 648 -18 callsubr
          endchar
        </CharString>
        <CharString name="adieresis">
          -74 341 591 -53 callgsubr
          198 -350 -96 callgsubr
        </CharString>
        <CharString name="ae">
          262 778 226 rmoveto
          3 15 1 24 10 vvcurveto
          151 -68 87 -131 -76 -63 -32 -61 -40 vhcurveto
          61 -24 -54 34 -91 hhcurveto
          -50 -58 -15 -22 -35 hvcurveto
          116 callgsubr
          91 66 43 64 26 hvcurveto
          -63 40 78 -44 93 hhcurveto
          43 56 11 19 38 hvcurveto
          62 vlineto
          166 callsubr
          159 230 rmoveto
          77 61 -49 -102 hvcurveto
          -23 -297 vlineto
          121 11 70 53 78 hhcurveto
          -221 -278 rmoveto
          -77 -61 -47 -71 -73 -36 37 53 64 55 31 104 vhcurveto
          82 hlineto
          endchar
        </CharString>
        <CharString name="agrave">
          -74 282 562 75 callsubr
          128 -321 -96 callgsubr
        </CharString>
        <CharString name="amacron">
          -74 376 659 143 callgsubr
          -21 -373 -96 callgsubr
        </CharString>
        <CharString name="ampersand">
          133 309 52 rmoveto
          -101 -75 46 76 64 56 34 83 35 hvcurveto
          31 -30 84 -76 96 -88 rrcurveto
          -40 -43 -60 -21 -71 hhcurveto
          3 579 rmoveto
          81 37 -53 -55 -65 -48 -41 -96 -43 hvcurveto
          -74 77 -13 33 43 vvcurveto
          67 49 37 64 vhcurveto
          380 -631 rmoveto
          -128 118 25 41 15 48 6 52 rlinecurve
          -61 hlineto
          -4 -38 -10 -34 -16 -28 -86 79 -71 65 -33 30 rrcurveto
          124 54 41 62 73 vvcurveto
          91 -72 78 -108 -112 -68 -69 -94 -58 25 -47 71 -75 vhcurveto
          -100 -41 -61 -51 -82 vvcurveto
          -108 100 -74 143 95 71 30 50 49 vhcurveto
          77 -72 rlineto
          endchar
        </CharString>
        <CharString name="aogonek">
          -74 355 239 rmoveto
          -79 vlineto
          -55 -55 -51 -77 -73 -36 37 53 64 55 31 104 vhcurveto
          143 81 rmoveto
          122 -52 73 -134 -50 -58 -15 -22 -35 vhcurveto
          116 callgsubr
          60 53 28 40 33 hvcurveto
          -47 vlineto
          -58 -29 -48 -53 -63 -39 callsubr
          62 28 hvcurveto
          endchar
        </CharString>
        <CharString name="apostrophemod">
          -402 8 481 66 callsubr
          endchar
        </CharString>
        <CharString name="approxequal">
          65 519 288 22 callsubr
          -47 231 22 callsubr
          endchar
        </CharString>
        <CharString name="aring">
          -74 253 704 16 callsubr
          102 -311 -96 callgsubr
        </CharString>
        <CharString name="asciicircum">
          -107 405 332 rmoveto
          -135 262 rlineto
          -82 hlineto
          -140 -262 rlineto
          64 hlineto
          116 226 113 -226 rlineto
          endchar
        </CharString>
        <CharString name="asciitilde">
          25 499 312 22 callsubr
          endchar
        </CharString>
        <CharString name="asterisk">
          -179 226 504 rmoveto
          9 12 1 4 12 hvcurveto
          92 31 -16 47 -92 -29 -16 -5 -12 -7 -8 -9 rlinecurve
          4 11 3 13 17 vvcurveto
          96 -50 -96 vlineto
          -18 3 -14 6 -10 vhcurveto
          -9 7 -11 7 -17 6 -92 30 rcurveline
          -15 -48 91 -30 rlineto
          -4 12 10 -1 9 hhcurveto
          5 4 0 1 4 hvcurveto
          -11 -6 -10 -8 -11 -15 -57 -78 rcurveline
          41 -29 57 77 11 15 5 13 1 12 rlinecurve
          2 -11 5 -13 11 -15 57 -78 rcurveline
          40 30 -56 78 -10 14 -10 9 -11 5 rlinecurve
          endchar
        </CharString>
        <CharString name="at">
          326 416 77 rmoveto
          -60 -39 47 71 82 49 75 77 74 29 -43 -67 10 hvcurveto
          -2 -21 -2 -17 -17 vvcurveto
          -71 -25 -57 -39 -54 hhcurveto
          158 -135 rmoveto
          -33 -56 -57 -9 -59 hhcurveto
          -139 -136 93 203 208 174 140 181 166 131 -102 -185 -106 -49 -74 -60 -56 -15 42 58 17 1 19 2 19 hvcurveto
          18 169 rlineto
          -53 hlineto
          -1 -20 -1 -19 -1 -17 rrcurveto
          39 -24 -37 23 -57 hhcurveto
          -111 -79 -95 -113 -99 57 -77 98 64 49 33 50 33 hvcurveto
          -39 11 27 -41 71 hhcurveto
          76 94 69 165 209 -159 128 -193 -230 -189 -166 -236 -203 127 -147 208 51 70 6 26 49 hvcurveto
          endchar
        </CharString>
        <CharString name="atilde">
          -74 368 687 -58 callsubr
          -55 -418 -96 callgsubr
        </CharString>
        <CharString name="b">
          -1 300 50 rmoveto
          -73 -86 44 162 158 95 43 58 86 70 -69 -141 -117 -64 -80 -86 hvcurveto
          -159 657 rmoveto
          -61 -707 61 74 hlineto
          -48 31 50 -34 76 hhcurveto
          142 74 121 135 157 -90 110 -128 -69 -52 -33 -51 -34 hvcurveto
          endchar
        </CharString>
        <CharString name="backslash">
          -174 32 707 rmoveto
          -62 hlineto
          366 -810 rlineto
          62 hlineto
          endchar
        </CharString>
        <CharString name="bar">
          -346 80 -194 rmoveto
          54 889 -54 hlineto
          endchar
        </CharString>
        <CharString name="braceleft">
          -238 112 264 rmoveto
          86 14 37 58 68 62 -23 46 61 vvcurveto
          42 19 37 47 10 13 -3 -6 11 vhcurveto
          62 vlineto
          5 -14 -14 2 -14 hhcurveto
          -64 -58 -51 -90 hvcurveto
          -55 23 -47 -49 vvcurveto
          -61 -28 -51 -61 -11 vhcurveto
          -2 -11 -12 0 -9 hhcurveto
          -61 vlineto
          9 15 0 -2 8 hvcurveto
          65 -16 24 -48 -61 -49 -23 -47 -55 vvcurveto
          -90 58 -51 64 14 14 2 5 14 vhcurveto
          62 vlineto
          -6 -11 -13 -3 -10 hhcurveto
          -47 -19 37 42 hvcurveto
          61 23 46 62 vvcurveto
          68 -37 59 -86 14 vhcurveto
          endchar
        </CharString>
        <CharString name="braceright">
          -238 210 264 rmoveto
          -86 -14 -37 -59 -68 -62 23 -46 -61 vvcurveto
          -42 -19 -37 -47 -10 -13 3 6 -11 vhcurveto
          -62 vlineto
          -5 14 14 -2 14 hhcurveto
          64 58 51 90 hvcurveto
          55 -23 47 49 vvcurveto
          61 24 48 65 16 vhcurveto
          2 8 15 0 9 hhcurveto
          61 vlineto
          -9 -12 0 2 -11 hvcurveto
          -61 11 -28 51 61 49 23 47 55 vvcurveto
          90 -58 51 -64 -14 -14 -2 -5 -14 vhcurveto
          -62 vlineto
          6 11 13 3 10 hhcurveto
          47 19 -37 -42 hvcurveto
          -61 -23 -46 -62 vvcurveto
          -68 37 -58 86 -14 vhcurveto
          endchar
        </CharString>
        <CharString name="bracketleft">
          -264 296 652 rmoveto
          55 -216 -886 216 56 -154 775 vlineto
          endchar
        </CharString>
        <CharString name="bracketright">
          -264 216 707 rmoveto
          -216 -55 154 -775 -154 -56 216 hlineto
          endchar
        </CharString>
        <CharString name="breve">
          -160 45 798 rmoveto
          -83 40 -70 115 115 40 70 83 vhcurveto
          -52 hlineto
          -55 -24 -50 -79 -79 -24 50 55 vhcurveto
          endchar
        </CharString>
        <CharString name="brokenbar">
          -346 134 366 rmoveto
          329 -54 -329 vlineto
          54 -560 rmoveto
          329 -54 -329 vlineto
          endchar
        </CharString>
        <CharString name="bullet">
          -105 95 356 rmoveto
          -75 56 -58 77 74 58 58 75 75 -58 58 -75 -76 -56 -58 -75 vhcurveto
          endchar
        </CharString>
        <CharString name="c">
          -88 109 251 rmoveto
          123 callgsubr
          vhcurveto
          62 vlineto
          -17 callgsubr
          hvcurveto
          endchar
        </CharString>
        <CharString name="cacute">
          -88 265 561 -18 callsubr
          -258 -460 rmoveto
          123 callgsubr
          vhcurveto
          62 vlineto
          -17 callgsubr
          hvcurveto
          endchar
        </CharString>
        <CharString name="caron">
          -160 231 648 -69 callsubr
          endchar
        </CharString>
        <CharString name="ccaron">
          -88 417 489 rmoveto
          -17 callgsubr
          123 callgsubr
          hvcurveto
          -110 135 -69 callsubr
          endchar
        </CharString>
        <CharString name="ccedilla">
          -88 109 251 rmoveto
          123 callgsubr
          vhcurveto
          62 vlineto
          -17 callgsubr
          hvcurveto
          222 -372 7 callgsubr
        </CharString>
        <CharString name="cedilla">
          -160 271 -121 7 callgsubr
        </CharString>
        <CharString name="cent">
          -115 405 492 rmoveto
          -28 12 -26 6 -24 1 rrcurveto
          103 -55 -104 vlineto
          -144 -18 -78 -119 -121 vvcurveto
          -125 76 -115 146 -18 vhcurveto
          -105 55 104 vlineto
          25 1 26 6 27 11 rrcurveto
          62 vlineto
          -14 -25 -34 -8 -28 hhcurveto
          -138 -66 94 106 107 74 95 129 28 32 -8 -15 28 hvcurveto
          endchar
        </CharString>
        <CharString name="circumflex">
          -160 168 798 4 callgsubr
          endchar
        </CharString>
        <CharString name="colon">
          -338 60 369 rmoveto
          34 callsubr
          -320 vmoveto
          34 callsubr
          endchar
        </CharString>
        <CharString name="comma">
          -353 -8 -122 172 callgsubr
        </CharString>
        <CharString name="copyright">
          220 45 336 rmoveto
          -188 157 -157 188 188 157 157 188 188 -157 158 -188 -188 -157 -158 -188 vhcurveto
          59 hmoveto
          157 130 131 157 157 130 -131 -157 -157 -130 -130 -157 -157 -130 130 157 vhcurveto
          178 -3 rmoveto
          82 54 60 84 21 34 -8 -15 22 vhcurveto
          57 vlineto
          15 -26 -34 5 -21 hhcurveto
          -125 -67 -98 -97 -100 66 -94 126 27 36 9 13 18 hvcurveto
          57 vlineto
          -14 -16 -32 -11 -29 hhcurveto
          -85 -53 62 77 hvcurveto
          endchar
        </CharString>
        <CharString name="currency">
          -24 54 309 rmoveto
          -51 14 -44 26 -35 vhcurveto
          -58 -58 41 -41 59 59 rlineto
          -25 34 44 -14 50 hhcurveto
          50 46 15 27 36 hvcurveto
          63 -62 41 41 -63 62 rlineto
          28 36 17 46 51 vvcurveto
          50 -15 44 -25 35 vhcurveto
          58 58 -41 41 -58 -58 rlineto
          25 -35 -44 15 -50 hhcurveto
          -51 -46 -16 -28 -37 hvcurveto
          -61 62 -41 -41 61 -62 rlineto
          -27 -36 -16 -46 -50 vvcurveto
          54 4 rmoveto
          93 67 68 93 93 67 -69 -93 -93 -67 -67 -93 -93 -67 68 93 vhcurveto
          endchar
        </CharString>
        <CharString name="d">
          -5 62 callsubr
          159 657 rmoveto
          -276 vlineto
          50 callgsubr
          707 vlineto
          endchar
        </CharString>
        <CharString name="dagger">
          -46 469 498 rmoveto
          -188 176 -57 -176 181 callgsubr
          -442 57 442 188 hlineto
          endchar
        </CharString>
        <CharString name="daggerdbl">
          -46 469 442 rmoveto
          56 -188 176 -57 -176 181 callgsubr
          -197 181 callgsubr
          -189 57 189 188 56 -188 197 vlineto
          endchar
        </CharString>
        <CharString name="danda">
          -253 145 hmoveto
          62 634 -62 hlineto
          endchar
        </CharString>
        <CharString name="dcaron">
          77 62 callsubr
          159 381 rmoveto
          50 callgsubr
          707 -61 vlineto
          209 hmoveto
          -88 -187 rlineto
          54 hlineto
          110 187 rlineto
          endchar
        </CharString>
        <CharString name="dcroat">
          -5 62 callsubr
          295 591 rmoveto
          -75 66 -61 -66 -205 -48 205 -162 hlineto
          50 callgsubr
          593 75 vlineto
          endchar
        </CharString>
        <CharString name="degree">
          -228 30 539 rmoveto
          -79 55 -52 79 79 59 56 79 79 -55 52 -79 -79 -59 -56 -79 vhcurveto
          53 2 rmoveto
          48 33 38 48 48 37 -38 -48 -48 -33 -38 -48 -48 -37 38 48 vhcurveto
          endchar
        </CharString>
        <CharString name="dieresis">
          -160 65 726 -54 callsubr
          endchar
        </CharString>
        <CharString name="divide">
          -16 226 519 146 callgsubr
          -166 -207 rmoveto
          173 callsubr
          166 -207 146 callgsubr
          endchar
        </CharString>
        <CharString name="dollar">
          -58 408 650 rmoveto
          -29 15 -37 9 -36 4 rrcurveto
          103 -55 -101 vlineto
          -103 -6 -90 -61 -113 vvcurveto
          -106 82 -42 81 -35 vhcurveto
          82 -35 81 -29 -80 vvcurveto
          -79 -57 -41 -93 -67 -68 23 30 -39 vhcurveto
          -69 vlineto
          39 -23 50 -15 51 -4 rrcurveto
          -102 55 100 vlineto
          108 6 84 59 116 vvcurveto
          107 -81 42 -81 35 vhcurveto
          -82 36 -81 29 81 vvcurveto
          69 57 46 90 50 58 -17 -21 31 vhcurveto
          endchar
        </CharString>
        <CharString name="dotaccent">
          -160 157 727 rmoveto
          -24 19 -19 24 -50 callsubr
          vhcurveto
          endchar
        </CharString>
        <CharString name="dotlessi">
          94 callgsubr
          endchar
        </CharString>
        <CharString name="dottedcircle">
          100 139 517 rmoveto
          -26 18 -19 26 26 18 19 26 25 -18 19 -26 -26 -18 -19 -25 vhcurveto
          -82 -110 rmoveto
          -25 20 -19 26 24 20 19 25 25 -20 19 -24 -26 -20 -19 -25 vhcurveto
          -13 -126 rmoveto
          -25 19 -18 25 26 18 18 183 callsubr
          52 -116 rmoveto
          -26 18 -18 26 25 19 18 26 25 -19 19 -25 -26 -18 -19 -25 vhcurveto
          101 -75 rmoveto
          -26 19 -20 26 25 19 20 26 24 -19 20 -25 -26 -19 -20 -24 vhcurveto
          127 -16 rmoveto
          -26 18 -18 26 26 19 18 26 26 -19 18 -26 -26 -18 -18 -26 vhcurveto
          121 53 rmoveto
          -26 19 -18 25 25 20 18 26 25 -20 19 -25 -25 -19 -19 -25 vhcurveto
          73 98 rmoveto
          -25 19 -19 26 24 19 19 25 26 -19 19 -24 -26 -19 -19 -26 vhcurveto
          10 134 rmoveto
          -26 18 -18 26 25 19 18 26 26 -19 18 -25 -26 -18 -18 -26 vhcurveto
          -50 118 rmoveto
          -25 19 -19 25 26 18 19 183 callsubr
          -95 68 rmoveto
          -24 19 -20 26 25 18 20 24 26 -18 19 -25 -26 -19 -19 -26 vhcurveto
          -126 15 rmoveto
          -26 18 -18 26 26 18 18 26 26 -18 18 -26 -26 -18 -18 -26 vhcurveto
          endchar
        </CharString>
        <CharString name="doubledanda">
          -45 145 hmoveto
          62 634 -62 hlineto
          208 -634 rmoveto
          62 634 -62 hlineto
          endchar
        </CharString>
        <CharString name="dvA">
          87 392 634 rmoveto
          174 callgsubr
          vlineto
          -81 callsubr
          120 55 hlineto
          endchar
        </CharString>
        <CharString name="dvAA">
          349 929 -4 callsubr
          -537 174 callgsubr
          hlineto
          -81 callsubr
          200 -579 -21 callgsubr
        </CharString>
        <CharString name="dvAI">
          -11 569 -4 callsubr
          -97 hlineto
          -101 154 rlineto
          60 -39 -42 29 -24 callsubr
          86 -132 rlineto
          -424 -32 callgsubr
        </CharString>
        <CharString name="dvAU">
          349 819 -4 callsubr
          -101 154 -58 callgsubr
          -333 174 callgsubr
          hlineto
          -81 callsubr
          200 -579 -65 callsubr
          55 hlineto
          endchar
        </CharString>
        <CharString name="dvAbbreviationsign">
          -144 56 298 rmoveto
          -11 callgsubr
          endchar
        </CharString>
        <CharString name="dvAnusvara">
          -180 774 rmoveto
          -50 callgsubr
          endchar
        </CharString>
        <CharString name="dvAnusvara.amI">
          -49 843 rmoveto
          -50 callgsubr
          endchar
        </CharString>
        <CharString name="dvAvagraha">
          -142 209 -3 rmoveto
          142 57 89 77 hvcurveto
          166 -341 99 99 vvcurveto
          36 26 17 32 vhcurveto
          258 54 -264 hlineto
          -72 -41 -41 -65 hvcurveto
          -157 341 -67 -147 vvcurveto
          -49 -40 -57 -96 -62 -77 20 44 -67 vhcurveto
          -67 vlineto
          -23 38 76 -28 90 hhcurveto
          endchar
        </CharString>
        <CharString name="dvB">
          -185 395 -4 callsubr
          -415 -55 415 hlineto
          -17 -418 -71 callgsubr
          312 -143 rmoveto
          -14 -19 -16 -20 -19 -18 -95 callgsubr
          108 69 56 67 53 hvcurveto
          endchar
        </CharString>
        <CharString name="dvBA">
          51 374 164 -52 callsubr
          -651 -55 470 -269 hlineto
          33 callgsubr
        </CharString>
        <CharString name="dvBH">
          -243 413 339 rmoveto
          -238 -48 callgsubr
          238 hlineto
          endchar
        </CharString>
        <CharString name="dvBHA">
          -15 383 339 rmoveto
          -208 -48 callgsubr
          208 61 callsubr
          -182 hlineto
          endchar
        </CharString>
        <CharString name="dvBH_LA">
          477 290 169 callgsubr
          585 -126 vlineto
          -30 callsubr
          -77 -57 -51 -76 -22 hvcurveto
          -206 -48 callgsubr
          196 hlineto
          -1 -8 0 -7 -8 vvcurveto
          -146 90 -116 140 -12 callgsubr
          vhcurveto
          -88 callsubr
          55 vlineto
          endchar
        </CharString>
        <CharString name="dvBH_NA">
          -6 392 -4 callsubr
          -253 -208 3 callgsubr
          208 -100 hlineto
          -232 -152 108 callgsubr
          171 110 rlineto
          -161 -7 callgsubr
        </CharString>
        <CharString name="dvBH_R">
          -197 184 381 rmoveto
          3 callgsubr
          216 hlineto
          -337 -367 rlineto
          88 hlineto
          329 367 rlineto
          54 vlineto
          endchar
        </CharString>
        <CharString name="dvBH_RA">
          -6 392 -4 callsubr
          -253 -208 3 callgsubr
          208 -74 hlineto
          -329 -293 rlineto
          88 hlineto
          241 213 rlineto
          -173 -7 callgsubr
        </CharString>
        <CharString name="dvBH_R_YA">
          403 802 178 callgsubr
          -83 -65 59 79 -18 vhcurveto
          2 2 rlineto
          157 callsubr
          -482 55 rmoveto
          -55 213 165 callgsubr
          -282 145 hlineto
          6 callgsubr
          216 hlineto
          -337 -367 rlineto
          88 hlineto
          275 307 rlineto
          -90 41 79 -47 90 -103 callsubr
          55 vlineto
          endchar
        </CharString>
        <CharString name="dvBH_VA">
          316 896 -4 callsubr
          -606 -55 425 -260 hlineto
          -103 callgsubr
          -89 -69 -50 -75 -24 hvcurveto
          -194 -48 callgsubr
          185 -6 hlineto
          -72 callsubr
        </CharString>
        <CharString name="dvBH_YA">
          363 762 59 callsubr
          1 -9 1 -8 2 -8 rrcurveto
          -189 -48 callgsubr
          204 hlineto
          -102 39 82 -53 96 -103 callsubr
          55 vlineto
          endchar
        </CharString>
        <CharString name="dvB_BA">
          431 754 164 rmoveto
          -18 -28 -35 -11 -43 hhcurveto
          -87 -62 63 88 42 12 35 22 26 hvcurveto
          -155 -228 -71 callgsubr
          858 245 rmoveto
          -1031 -55 850 15 callsubr
          -22 3 -21 6 -19 hvcurveto
          -10 -12 -11 -12 -12 -11 -95 callgsubr
          89 63 38 52 49 hvcurveto
          -57 37 65 -33 71 hhcurveto
          88 68 42 48 29 hvcurveto
          -173 -80 callgsubr
        </CharString>
        <CharString name="dvB_BHA">
          355 378 161 -71 callgsubr
          600 245 rmoveto
          -295 -208 187 vlineto
          129 callsubr
          -19 -17 -3 -5 -15 vhcurveto
          4 -415 -55 400 -8 76 callgsubr
          -177 vlineto
          -43 callgsubr
          -16 5 -20 7 -18 vhcurveto
          -11 -15 -12 -14 -14 -13 -95 callgsubr
          92 63 40 54 50 hvcurveto
          14 -32 96 callgsubr
          208 61 callsubr
          hlineto
          endchar
        </CharString>
        <CharString name="dvB_BH_RA">
          344 378 161 -71 callgsubr
          589 245 rmoveto
          -253 -208 145 vlineto
          129 callsubr
          -14 -14 -2 -3 -12 vhcurveto
          1 -415 -55 389 -8 vlineto
          77 callgsubr
          5 1 hlineto
          3 10 11 1 10 62 callgsubr
          -135 vlineto
          -84 callsubr
          -1 vlineto
          -12 -16 -13 -16 -16 -15 -95 callgsubr
          98 65 46 58 51 hvcurveto
          49 140 208 -74 hlineto
          -329 -293 rlineto
          88 hlineto
          241 213 rlineto
          -173 -7 callgsubr
        </CharString>
        <CharString name="dvB_DA">
          362 378 161 -71 callgsubr
          667 26 48 callgsubr
          -962 -55 779 10 callgsubr
          -21 3 -19 5 -19 hvcurveto
          -7 -8 -7 -8 -8 -7 -95 callgsubr
          83 60 33 45 47 hvcurveto
          -53 34 61 -35 79 hhcurveto
          53 callsubr
        </CharString>
        <CharString name="dvB_DHA">
          452 378 161 -71 callgsubr
          879 245 -6 callgsubr
          -686 -55 538 vlineto
          -40 -21 -26 -37 -47 vvcurveto
          -77 50 -38 67 -9 vhcurveto
          -64 -9 -52 -42 -3 -73 -10 -13 -11 -12 -13 -12 -95 callgsubr
          83 61 33 46 47 hvcurveto
          -57 26 66 -42 101 hhcurveto
          100 68 51 49 28 hvcurveto
          -163 -80 callgsubr
        </CharString>
        <CharString name="dvB_DH_VA">
          816 378 161 -71 callgsubr
          1243 245 rmoveto
          -546 -55 365 -260 hlineto
          97 callgsubr
          -22 3 -20 6 -18 hvcurveto
          -57 -48 -72 -46 -94 -49 callsubr
          -686 -55 538 vlineto
          -40 -21 -26 -37 -47 vvcurveto
          -77 50 -38 67 -9 vhcurveto
          -64 -9 -52 -42 -3 -73 -10 -13 -11 -12 -13 -12 -95 callgsubr
          83 61 33 46 47 hvcurveto
          -57 26 66 -42 101 hhcurveto
          107 80 49 54 54 hvcurveto
          -48 35 58 -26 60 hhcurveto
          -61 callsubr
        </CharString>
        <CharString name="dvB_JA">
          468 378 161 -71 callgsubr
          895 245 rmoveto
          -1068 -55 887 156 callsubr
          -36 -31 8 11 -27 hvcurveto
          27 20 22 24 21 26 -36 40 rcurveline
          -14 -19 -16 -20 -19 -18 -95 callgsubr
          56 45 15 23 38 hvcurveto
          -33 43 callgsubr
        </CharString>
        <CharString name="dvB_JHA">
          543 630 311 rmoveto
          0 vlineto
          -11 1 rlineto
          2 callsubr
          198 -268 hlineto
          -563 -150 -71 callgsubr
          970 245 rmoveto
          -1143 -55 701 65 callsubr
          -65 45 57 -23 vhcurveto
          -1 hlineto
          10 10 9 10 8 11 -36 40 rcurveline
          -14 -19 -16 -20 -19 -18 -95 callgsubr
          61 48 18 27 40 hvcurveto
          -175 60 123 vlineto
          -37 35 57 -20 58 hhcurveto
          97 65 64 83 37 -15 31 -25 24 hvcurveto
          189 -258 -21 callgsubr
        </CharString>
        <CharString name="dvB_J_YA">
          833 1232 327 -107 callsubr
          -854 -418 -71 callgsubr
          1260 245 rmoveto
          -1433 -55 983 164 callsubr
          18 -16 -55 49 -116 hhcurveto
          -220 -54 hlineto
          109 74 -48 -101 -81 -57 -47 -80 -39 -33 9 12 -29 hvcurveto
          26 20 21 23 20 25 -36 40 rcurveline
          -14 -19 -16 -20 -19 -18 -95 callgsubr
          61 48 18 27 40 hvcurveto
          -40 -5 callsubr
          41 hlineto
          93 36 -30 0 hvcurveto
          -154 20 98 -80 118 -103 callsubr
          vlineto
          endchar
        </CharString>
        <CharString name="dvB_JxA">
          488 378 161 -71 callgsubr
          915 245 rmoveto
          -1088 -55 907 156 callsubr
          -42 -36 11 13 -29 hvcurveto
          24 19 20 22 19 24 -36 40 rcurveline
          -14 -19 -16 -20 -19 -18 -95 callgsubr
          66 51 21 31 42 hvcurveto
          -47 43 callgsubr
        </CharString>
        <CharString name="dvB_LA">
          547 378 161 -71 callgsubr
          974 245 rmoveto
          -1147 -55 965 -126 hlineto
          -30 callsubr
          -101 -66 -87 -117 -15 1 -15 2 -15 hvcurveto
          -8 -9 -9 -10 -10 -9 -95 callgsubr
          80 59 31 44 47 hvcurveto
          -94 32 77 -64 104 hhcurveto
          9 14 1 2 9 hvcurveto
          -88 callgsubr
        </CharString>
        <CharString name="dvB_L_YA">
          843 1242 327 -107 callsubr
          -864 -418 -71 callgsubr
          1270 245 rmoveto
          -1443 -55 993 128 callgsubr
          -22 -8 -20 -15 -17 vhcurveto
          25 -28 -35 15 -45 hhcurveto
          -72 -48 -36 -62 -14 -63 callgsubr
          -101 -66 -87 -117 -15 1 -15 2 -15 hvcurveto
          -8 -9 -9 -10 -10 -9 -95 callgsubr
          80 59 31 44 47 hvcurveto
          -94 32 77 -64 104 hhcurveto
          -102 callsubr
          47 39 60 28 21 -9 -13 14 vhcurveto
          -25 -14 -33 -10 -40 -7 rrcurveto
          -154 20 98 -80 118 -103 callsubr
          vlineto
          endchar
        </CharString>
        <CharString name="dvB_NA">
          61 384 164 -52 callsubr
          -661 -55 480 15 callsubr
          -121 91 -78 107 -4 hvcurveto
          -66 -38 rlineto
          -40 -23 -16 -25 -27 vvcurveto
          -44 40 -38 29 -18 vhcurveto
          42 27 rlineto
          -18 16 -22 25 26 vvcurveto
          14 6 13 13 9 vhcurveto
          177 124 rlineto
          0 vlineto
          20 15 16 17 11 17 rrcurveto
          -173 -80 callgsubr
        </CharString>
        <CharString name="dvB_R">
          -187 393 -4 callsubr
          -413 -55 413 hlineto
          -10 -413 rmoveto
          -19 -29 -34 -12 -42 hhcurveto
          -87 -62 63 88 42 12 35 22 26 hvcurveto
          297 -131 rmoveto
          -11 -22 -14 -21 -17 -18 -216 223 rcurveline
          -85 callsubr
          96 -81 116 2 hvcurveto
          -167 -148 rlineto
          85 hlineto
          290 256 rlineto
          endchar
        </CharString>
        <CharString name="dvB_RA">
          61 384 164 -52 callsubr
          -661 -55 480 15 callsubr
          -124 96 -81 116 2 hvcurveto
          -167 -148 rlineto
          85 hlineto
          260 230 rlineto
          -165 -80 callgsubr
        </CharString>
        <CharString name="dvB_SA">
          453 618 142 callsubr
          206 -251 vlineto
          -474 -167 -71 callgsubr
          880 245 rmoveto
          -1053 -55 604 87 callgsubr
          34 -53 -11 -15 -13 -15 73 callgsubr
          97 66 45 58 50 hvcurveto
          121 -186 -91 callsubr
          173 -271 -14 callsubr
        </CharString>
        <CharString name="dvB_SHA">
          494 395 -4 callsubr
          -415 -55 415 hlineto
          -17 -418 -71 callgsubr
          397 54 -2 callgsubr
          -95 -57 hlineto
          23 -27 -11 -15 -12 -14 73 callgsubr
          99 67 47 60 51 hvcurveto
          163 -190 -36 callgsubr
          403 191 rmoveto
          -634 -7 callgsubr
        </CharString>
        <CharString name="dvB_TA">
          392 378 161 -71 callgsubr
          819 245 rmoveto
          -992 -55 811 -133 -112 hlineto
          160 callgsubr
          hvcurveto
          -11 vlineto
          -7 -8 -8 -9 -9 -8 -95 callgsubr
          76 57 28 40 46 hvcurveto
          -90 25 72 -61 107 hhcurveto
          11 10 1 1 6 hvcurveto
          -57 callsubr
          hlineto
          endchar
        </CharString>
        <CharString name="dvB_VA">
          386 378 161 -71 callgsubr
          813 245 rmoveto
          -986 -55 805 -260 hlineto
          97 callgsubr
          -24 4 -21 6 -20 hvcurveto
          -7 -8 -8 -9 -9 -8 -95 callgsubr
          85 61 35 48 48 hvcurveto
          -48 36 58 -26 60 hhcurveto
          -61 callsubr
        </CharString>
        <CharString name="dvB_YA">
          403 802 327 -107 callsubr
          -424 -418 -71 callgsubr
          830 245 rmoveto
          -1003 -55 553 hlineto
          -91 callgsubr
          7 -56 18 -46 25 -36 -10 -13 -12 -12 -12 -12 -95 callgsubr
          97 66 45 58 51 hvcurveto
          -37 41 53 -19 57 -103 callsubr
          vlineto
          endchar
        </CharString>
        <CharString name="dvC">
          -185 395 -4 callsubr
          -415 -55 415 hlineto
          74 -319 rmoveto
          -49 -26 -71 -58 -84 -31 callgsubr
          103 78 57 59 33 vhcurveto
          endchar
        </CharString>
        <CharString name="dvCA">
          67 647 -4 callsubr
          -667 -55 485 -251 hlineto
          24 callgsubr
          -337 -55 147 vlineto
          -54 -26 -27 -47 -57 126 callgsubr
        </CharString>
        <CharString name="dvCH">
          54 634 163 callgsubr
          -654 -55 158 vlineto
          8 callgsubr
          96 -53 74 -121 138 callsubr
          vhcurveto
          -53 vlineto
          4 9 18 3 15 hhcurveto
          85 36 -50 -67 -127 -90 -69 -117 -91 -72 42 72 57 43 39 75 hvcurveto
          38 53 -28 hlineto
          -54 -54 34 64 44 22 41 47 22 hvcurveto
          endchar
        </CharString>
        <CharString name="dvCHA">
          64 431 473 -75 callgsubr
          -664 -55 158 vlineto
          8 callgsubr
          65 -24 55 -53 28 vhcurveto
          125 vlineto
          endchar
        </CharString>
        <CharString name="dvCH_RA">
          73 440 473 -75 callgsubr
          -673 -55 167 vlineto
          53 callgsubr
          100 callsubr
        </CharString>
        <CharString name="dvCH_R_YA">
          623 1022 274 rmoveto
          -3 callsubr
          -47 -81 -13 -27 -51 vhcurveto
          -5 4 -7 4 -6 3 rrcurveto
          125 526 vlineto
          -725 31 callsubr
          945 313 rmoveto
          -1224 -55 167 hlineto
          53 callgsubr
          35 -7 32 -15 27 vhcurveto
          19 46 53 11 46 hhcurveto
          -36 callsubr
          vlineto
          endchar
        </CharString>
        <CharString name="dvCH_YA">
          603 1002 274 rmoveto
          -3 callsubr
          -45 -76 -12 -25 -51 vhcurveto
          -5 3 -4 3 -5 2 rrcurveto
          125 515 vlineto
          -714 31 callsubr
          934 313 rmoveto
          -1204 -55 158 hlineto
          8 callgsubr
          37 -8 33 -16 28 vhcurveto
          16 43 50 10 43 hhcurveto
          -36 callsubr
          vlineto
          endchar
        </CharString>
        <CharString name="dvC_CA">
          427 1007 -4 callsubr
          -1027 -55 845 -251 hlineto
          24 callgsubr
          -307 -55 117 vlineto
          105 callgsubr
          -8 0 -7 1 -8 vhcurveto
          -43 -32 -63 -45 -74 -31 callgsubr
          84 67 38 45 40 vhcurveto
          -55 30 64 -28 72 hhcurveto
          92 2 62 42 29 49 rrcurveto
          89 callsubr
        </CharString>
        <CharString name="dvC_CHA">
          459 826 473 -75 callgsubr
          -1059 -55 553 vlineto
          -33 -27 -15 -40 -39 vvcurveto
          -74 55 -37 30 -9 vhcurveto
          -49 -7 -40 -34 -12 -53 rrcurveto
          -49 -27 -70 -57 -84 -31 callgsubr
          81 65 35 44 41 vhcurveto
          -76 24 83 -45 111 hhcurveto
          114 callsubr
          65 -24 55 -53 28 hvcurveto
          125 vlineto
          endchar
        </CharString>
        <CharString name="dvC_CH_VA">
          468 855 473 rmoveto
          2 -13 -13 1 -15 hhcurveto
          138 callsubr
          hvcurveto
          -53 vlineto
          4 9 18 3 15 hhcurveto
          85 36 -47 -67 -106 -98 -73 -121 -107 -84 41 75 52 45 37 73 hvcurveto
          38 53 -28 hlineto
          -54 -54 24 64 44 22 37 46 21 hvcurveto
          251 hlineto
          -6 -560 rmoveto
          -87 -52 -90 -111 -74 -56 41 78 75 57 42 86 vhcurveto
          0 8 vlineto
          50 49 12 22 43 hvcurveto
          199 467 rmoveto
          55 -1068 -55 542 vlineto
          -33 -26 -15 -36 -39 vvcurveto
          -74 55 -31 30 -9 vhcurveto
          -52 -7 -53 -44 -66 vvcurveto
          -10 vlineto
          -42 -33 -62 -42 -71 -31 callgsubr
          81 65 35 44 41 vhcurveto
          20 -36 38 -29 49 -17 rrcurveto
          -52 -27 -33 -49 -61 vvcurveto
          -112 92 -59 97 86 54 42 46 26 vhcurveto
          -178 61 452 vlineto
          47 41 31 55 61 vvcurveto
          65 -24 53 -53 28 vhcurveto
          124 vlineto
          endchar
        </CharString>
        <CharString name="dvC_MA">
          369 767 -26 callsubr
          103 callsubr
          -969 -55 502 -242 hlineto
          -43 callgsubr
          -15 5 -18 6 -18 vhcurveto
          -42 -33 -61 -39 -69 -31 callgsubr
          82 66 36 44 40 vhcurveto
          16 -36 rlineto
          -55 callgsubr
        </CharString>
        <CharString name="dvC_NA">
          77 657 -4 callsubr
          -677 -55 495 -251 hlineto
          24 callgsubr
          -337 -55 147 vlineto
          -54 -26 -27 -47 -57 vvcurveto
          -98 71 -55 89 -9 vhcurveto
          -83 -46 rlineto
          -30 -17 -14 -21 -26 vvcurveto
          -46 45 -41 30 -22 vhcurveto
          43 30 rlineto
          -19 16 -27 35 28 vvcurveto
          14 7 9 13 8 vhcurveto
          171 104 33 17 25 24 15 26 rlinecurve
          89 callsubr
        </CharString>
        <CharString name="dvC_R">
          -144 436 -4 callsubr
          -456 -55 456 hlineto
          61 -286 rmoveto
          -68 -37 -77 -72 -95 hhcurveto
          76 callsubr
          hvcurveto
          19 callgsubr
          -104 80 -56 99 -3 vhcurveto
          -176 -146 rlineto
          92 hlineto
          333 270 rlineto
          endchar
        </CharString>
        <CharString name="dvC_RA">
          72 652 -4 callsubr
          -672 -55 490 -269 hlineto
          -67 -61 -90 -121 -72 -53 38 73 56 34 74 175 vhcurveto
          19 callgsubr
          -104 80 -56 99 -3 vhcurveto
          -176 -146 rlineto
          90 hlineto
          276 225 rlineto
          -180 -68 callgsubr
        </CharString>
        <CharString name="dvC_YA">
          433 832 327 -107 callsubr
          69 callsubr
          -1033 -55 583 hlineto
          -91 callgsubr
          6 -43 11 -38 17 -31 rrcurveto
          -47 -29 -68 -52 -79 -31 callgsubr
          98 75 51 56 36 vhcurveto
          -52 43 61 -26 68 -103 callsubr
          vlineto
          endchar
        </CharString>
        <CharString name="dvCandrabindu">
          55 callgsubr
        </CharString>
        <CharString name="dvD">
          -18 597 -241 50 callsubr
          -539 875 rmoveto
          -55 399 9 callgsubr
          167 164 122 55 hlineto
          endchar
        </CharString>
        <CharString name="dvDA">
          -18 153 callgsubr
          399 9 callgsubr
          167 164 122 55 hlineto
          endchar
        </CharString>
        <CharString name="dvDA_mvR">
          -74 374 579 rmoveto
          132 55 -526 -55 333 -92 hlineto
          2 -21 -22 2 -22 hhcurveto
          -103 -61 -52 -70 -60 42 -35 55 -8 hvcurveto
          -63 -12 -38 -46 -60 vvcurveto
          -82 77 -47 106 61 64 18 23 38 vhcurveto
          60 vlineto
          -28 -40 -63 -21 -59 hhcurveto
          -67 -55 25 54 57 48 33 76 hvcurveto
          57 55 -57 hlineto
          -75 -45 25 48 45 38 25 69 1 hvcurveto
          28 61 -4 -11 32 hvcurveto
          endchar
        </CharString>
        <CharString name="dvDD">
          -43 230 -69 30 callgsubr
          97 498 95 callsubr
          -557 -55 348 177 callgsubr
          105 callsubr
          hvcurveto
          -35 callgsubr
        </CharString>
        <CharString name="dvDDA">
          -43 390 168 callgsubr
          -557 -55 348 177 callgsubr
          105 callsubr
          hvcurveto
          -35 callgsubr
        </CharString>
        <CharString name="dvDDH">
          -6 472 -207 50 callsubr
          -128 422 -41 callsubr
          endchar
        </CharString>
        <CharString name="dvDDHA">
          -6 266 215 -41 callsubr
          endchar
        </CharString>
        <CharString name="dvDDH_DDHA">
          -19 422 579 rmoveto
          139 55 -581 -55 380 -85 hlineto
          2 -19 -20 1 -19 hhcurveto
          -136 -96 -77 -101 -82 53 -48 64 -25 hvcurveto
          -80 -31 -33 -66 -57 vvcurveto
          -111 108 -60 118 104 callgsubr
          -96 -67 46 75 69 55 57 118 5 hvcurveto
          92 1 90 43 73 vvcurveto
          62 -51 40 -87 -42 -32 -10 -13 -26 vhcurveto
          -56 vlineto
          14 23 35 13 42 hhcurveto
          48 28 -17 -30 -51 -56 -18 -77 -86 -77 43 81 76 66 51 117 36 38 -6 -5 32 hvcurveto
          endchar
        </CharString>
        <CharString name="dvDDH_R">
          -6 261 -181 30 callgsubr
          99 760 -9 callsubr
        </CharString>
        <CharString name="dvDDH_RA">
          -6 423 579 -9 callsubr
        </CharString>
        <CharString name="dvDDH_YA">
          514 587 430 rmoveto
          -36 callsubr
          55 -1115 -55 381 -109 vlineto
          -183 -22 -118 -80 -135 vvcurveto
          -131 111 -78 130 63 callgsubr
          vhcurveto
          -56 vlineto
          13 21 31 11 37 hhcurveto
          47 30 -28 -38 -61 -57 -36 -75 -99 -77 59 100 134 157 44 166 12 hvcurveto
          4 47 48 1 45 hhcurveto
          -164 149 rmoveto
          490 -305 hlineto
          -3 callsubr
          -42 -63 -1 -6 -56 vhcurveto
          endchar
        </CharString>
        <CharString name="dvDDHxA">
          -6 266 215 -41 callsubr
          -10 -398 rmoveto
          -50 callgsubr
          endchar
        </CharString>
        <CharString name="dvDD_DDA">
          -15 410 454 rmoveto
          125 155 55 -585 -55 368 -70 -125 vlineto
          -94 -69 -29 -78 -53 45 -45 105 hvcurveto
          33 42 7 48 hhcurveto
          45 25 161 callgsubr
          17 -9 21 -7 22 -7 rrcurveto
          -33 -14 -18 -30 -31 vvcurveto
          -55 43 -44 101 vhcurveto
          35 42 8 49 hhcurveto
          46 23 -20 -28 -48 -59 -24 -74 -73 -83 22 30 -49 hvcurveto
          -63 vlineto
          -28 53 83 -13 67 hhcurveto
          129 67 52 76 54 -44 43 -74 hvcurveto
          -54 -41 -7 -33 hhcurveto
          -71 -18 20 27 36 35 20 58 hvcurveto
          -1 10 10 0 10 hhcurveto
          137 68 46 73 2 hvcurveto
          59 -40 45 -78 vhcurveto
          -47 -38 -5 -30 hhcurveto
          -88 -19 22 25 35 32 15 70 hvcurveto
          endchar
        </CharString>
        <CharString name="dvDD_DDHA">
          -11 424 454 rmoveto
          125 145 55 -589 -55 382 -70 -125 vlineto
          -92 -71 -30 -77 -51 43 -48 93 hvcurveto
          36 46 8 55 hhcurveto
          44 26 161 callgsubr
          25 -13 34 -10 35 -7 rrcurveto
          -63 -32 -33 -53 -60 vvcurveto
          -110 100 -61 117 104 callgsubr
          -98 -54 46 73 68 49 56 113 11 hvcurveto
          119 6 61 46 68 vvcurveto
          56 -39 48 -86 vhcurveto
          -49 -58 -7 -26 hhcurveto
          -66 -16 23 24 35 35 15 67 hvcurveto
          endchar
        </CharString>
        <CharString name="dvDD_R">
          -43 220 -206 30 callgsubr
          107 635 -1 callsubr
        </CharString>
        <CharString name="dvDD_RA">
          -43 390 429 -1 callsubr
        </CharString>
        <CharString name="dvDD_VA">
          -21 369 57 rmoveto
          -92 -35 -73 -101 -59 -48 38 67 67 44 55 90 vhcurveto
          0 12 vlineto
          32 34 3 9 31 hvcurveto
          65 323 rmoveto
          125 125 55 -579 -55 392 -70 -135 vlineto
          -94 -69 -39 -78 -53 43 -46 99 hvcurveto
          35 36 8 51 hhcurveto
          46 33 -19 -38 hvcurveto
          -53 -3 -58 -20 -84 hhcurveto
          -62 -90 25 27 -45 hvcurveto
          -63 vlineto
          21 -11 28 -9 29 -7 rrcurveto
          -56 -24 -33 -49 -63 vvcurveto
          -95 74 -62 95 66 47 33 43 23 vhcurveto
          -132 61 374 vlineto
          29 20 20 29 42 vvcurveto
          61 -50 44 -79 vhcurveto
          -64 -39 -6 -33 hhcurveto
          -59 -16 23 28 34 33 21 69 hvcurveto
          endchar
        </CharString>
        <CharString name="dvDD_YA">
          477 876 155 callgsubr
          51 64 vvcurveto
          68 -47 48 -129 vhcurveto
          -149 95 482 hlineto
          69 callsubr
          -1077 -55 352 -95 -107 hlineto
          168 callsubr
          -82 61 -50 77 -2 hvcurveto
          88 7 rlineto
          54 33 -32 -50 -65 -53 -33 -77 -62 -75 24 28 -45 hvcurveto
          -63 vlineto
          -26 50 67 -15 162 callsubr
          73 62 88 1 hvcurveto
          76 -47 59 -94 vhcurveto
          -88 -6 rlineto
          -50 1 -36 29 52 vvcurveto
          52 48 17 45 vhcurveto
          317 hlineto
          67 44 -17 -41 -54 -53 -29 -90 -15 hvcurveto
          13 callgsubr
          120 vlineto
          endchar
        </CharString>
        <CharString name="dvDDxA">
          -43 249 -90 -105 callsubr
          141 519 95 callsubr
          -557 -55 348 177 callgsubr
          105 callsubr
          hvcurveto
          -35 callgsubr
        </CharString>
        <CharString name="dvDH">
          -133 512 249 rmoveto
          -69 -47 -79 -64 -111 -41 callgsubr
          134 91 77 66 51 vhcurveto
          endchar
        </CharString>
        <CharString name="dvDHA">
          72 652 634 -6 callgsubr
          -306 -55 158 -42 callgsubr
          100 68 51 49 28 vhcurveto
          -163 -80 callgsubr
        </CharString>
        <CharString name="dvDH_MA">
          409 807 -26 callsubr
          -377 55 rmoveto
          -55 92 -242 vlineto
          -43 callgsubr
          -18 7 -21 7 -21 vhcurveto
          -59 -48 -73 -50 -98 -41 callgsubr
          109 81 51 55 54 vhcurveto
          10 -24 96 callgsubr
          223 61 callsubr
          hlineto
          endchar
        </CharString>
        <CharString name="dvDH_NA">
          81 661 102 callgsubr
          59 56 40 85 vhcurveto
          12 callgsubr
          27 18 20 22 12 21 rlinecurve
          -183 -80 callgsubr
        </CharString>
        <CharString name="dvDH_N_YA">
          443 842 59 callsubr
          6 -47 14 -40 19 -33 rrcurveto
          -54 -48 -63 -54 -84 hhcurveto
          -93 -49 37 58 59 56 40 85 hvcurveto
          12 callgsubr
          rlineto
          0 vlineto
          35 21 30 26 27 29 rrcurveto
          -45 43 57 -23 63 -103 callsubr
          55 vlineto
          endchar
        </CharString>
        <CharString name="dvDH_R">
          -121 521 285 rmoveto
          -79 -72 -74 -70 -95 hhcurveto
          -93 -49 37 58 62 62 39 79 hvcurveto
          79 callgsubr
          -89 77 -55 127 -3 vhcurveto
          -163 -128 rlineto
          93 hlineto
          349 276 rlineto
          endchar
        </CharString>
        <CharString name="dvDH_RA">
          77 657 102 callgsubr
          62 62 39 79 vhcurveto
          79 callgsubr
          -86 73 -58 127 -3 vhcurveto
          -159 -128 rlineto
          90 hlineto
          270 216 rlineto
          -171 -80 callgsubr
        </CharString>
        <CharString name="dvDH_VA">
          436 1016 -4 callsubr
          -546 -55 365 -260 hlineto
          97 callgsubr
          -22 3 -20 6 -18 hvcurveto
          -57 -48 -72 -46 -94 -41 callgsubr
          107 80 49 54 54 vhcurveto
          -48 35 58 -26 60 hhcurveto
          -61 callsubr
        </CharString>
        <CharString name="dvDH_YA">
          452 851 327 -107 callsubr
          -422 55 rmoveto
          -55 153 -79 callgsubr
          7 -55 17 -45 24 -35 rrcurveto
          -61 -48 -74 -52 -100 -41 callgsubr
          120 86 62 61 53 vhcurveto
          -37 41 53 -19 57 -103 callsubr
          55 vlineto
          endchar
        </CharString>
        <CharString name="dvD_BA">
          5 414 45 callgsubr
          -605 -55 422 130 callsubr
          -82 74 -58 89 55 60 27 44 33 vhcurveto
          -103 54 callsubr
        </CharString>
        <CharString name="dvD_BHA">
          109 567 415 48 callgsubr
          -709 -55 526 10 callgsubr
          -92 56 -77 93 -23 hvcurveto
          -121 -65 -34 66 rlineto
          43 -21 -28 23 -38 hhcurveto
          -38 -37 -25 -28 -21 hvcurveto
          26 -46 rlineto
          19 15 25 19 21 hhcurveto
          22 11 -16 -30 15 hvcurveto
          28 -56 rlineto
          -10 -10 -5 -12 -12 vvcurveto
          -37 63 -37 34 -27 vhcurveto
          43 24 -47 94 211 114 34 9 27 16 17 20 rlinecurve
          -65 callgsubr
        </CharString>
        <CharString name="dvD_B_RA">
          1 410 45 callgsubr
          -601 -55 418 130 callsubr
          -74 61 -55 77 -9 vhcurveto
          -128 -94 rlineto
          86 hlineto
          170 125 rlineto
          0 vlineto
          17 12 16 14 12 16 rrcurveto
          -107 54 callsubr
        </CharString>
        <CharString name="dvD_DA">
          -55 402 579 rmoveto
          123 55 -545 -55 361 -85 hlineto
          4 -24 -27 3 -31 hhcurveto
          -108 -72 -44 -78 -58 38 -36 52 -4 hvcurveto
          -51 -10 -38 -49 -56 vvcurveto
          -82 67 -48 81 56 55 27 39 25 vhcurveto
          -102 61 204 -58 vlineto
          -78 -19 -56 -38 -60 hhcurveto
          -57 -33 32 50 49 41 37 70 hvcurveto
          48 55 -53 hlineto
          -61 -43 19 48 44 48 27 72 50 53 -9 -13 35 hvcurveto
          endchar
        </CharString>
        <CharString name="dvD_DHA">
          161 284 115 callgsubr
          355 301 48 callgsubr
          -761 -55 578 10 callgsubr
          -35 8 -33 16 -29 hvcurveto
          -18 -14 rlineto
          -16 -21 -33 -7 -23 hhcurveto
          -32 -23 15 30 56 60 10 1 76 hvcurveto
          -56 17 rlineto
          -79 -69 -24 -60 vvcurveto
          -60 47 -31 54 16 17 3 7 16 vhcurveto
          -25 -22 -11 -33 -36 vvcurveto
          -66 53 -39 57 72 73 54 118 21 vhcurveto
          5 hlineto
          53 callsubr
        </CharString>
        <CharString name="dvD_GA">
          -9 449 415 48 callgsubr
          -591 -55 408 70 callgsubr
          59 1 47 21 25 30 rrcurveto
          -65 callgsubr
        </CharString>
        <CharString name="dvD_GHA">
          146 269 115 callgsubr
          -35 157 rmoveto
          -35 8 -33 16 -29 vhcurveto
          -18 -14 rlineto
          -15 -20 -26 -8 -24 hhcurveto
          -35 -31 17 41 56 67 31 63 1 hvcurveto
          390 132 48 callgsubr
          -746 -55 563 -110 -113 vlineto
          -112 -71 -55 -80 -24 hvcurveto
          -7 hlineto
          -86 -110 -48 -101 -63 50 -35 55 16 17 3 7 16 hvcurveto
          -25 -22 -11 -33 -36 vvcurveto
          -66 53 -39 57 72 73 54 118 21 vhcurveto
          5 hlineto
          53 callsubr
        </CharString>
        <CharString name="dvD_G_RA">
          28 450 415 rmoveto
          164 158 55 -628 -55 409 70 callgsubr
          40 1 35 9 28 16 rrcurveto
          -145 vlineto
          -227 -182 rlineto
          90 hlineto
          137 111 rlineto
          -90 61 373 vlineto
          67 -176 rlineto
          61 hlineto
          -100 257 rlineto
          -58 hlineto
          -67 -52 -55 -86 -83 -55 55 94 89 60 52 95 vhcurveto
          endchar
        </CharString>
        <CharString name="dvD_MA">
          139 537 129 rmoveto
          -163 191 -58 hlineto
          -57 -53 -47 -63 -63 -45 39 64 73 58 36 93 vhcurveto
          131 151 163 hlineto
          103 callsubr
          -739 -55 333 -97 -77 hlineto
          -126 -80 -61 -102 -99 74 -57 89 58 42 24 30 19 hvcurveto
          -90 vlineto
          -49 callgsubr
          22 -42 27 -48 vhcurveto
          55 117 163 -195 62 699 120 hlineto
          endchar
        </CharString>
        <CharString name="dvD_NA">
          -8 450 415 48 callgsubr
          -592 -55 409 10 callgsubr
          -102 69 -84 112 -11 hvcurveto
          -87 -50 rlineto
          -37 -23 -19 -21 -32 vvcurveto
          -35 28 -38 41 -28 vhcurveto
          43 28 rlineto
          -20 18 -21 25 26 vvcurveto
          18 11 12 14 9 vhcurveto
          176 116 13 8 10 8 8 10 rlinecurve
          -65 callgsubr
        </CharString>
        <CharString name="dvD_R">
          -13 485 -287 50 callsubr
          -427 921 28 callsubr
        </CharString>
        <CharString name="dvD_RA">
          -13 -20 634 28 callsubr
        </CharString>
        <CharString name="dvD_VA">
          -9 400 107 callgsubr
          -591 -55 408 -110 -103 vlineto
          -139 -87 -81 -112 -71 35 -63 69 -30 hvcurveto
          -50 -26 -25 -46 -49 vvcurveto
          -85 70 -56 93 63 58 31 45 28 vhcurveto
          -108 54 callsubr
        </CharString>
        <CharString name="dvD_YA">
          83 482 297 rmoveto
          -110 -101 -65 -108 -78 -54 25 50 56 64 17 76 vhcurveto
          41 55 -41 hlineto
          -86 -50 22 47 40 35 25 62 28 39 -4 -11 32 hvcurveto
          135 141 103 callgsubr
          -683 -55 300 -71 hlineto
          2 -13 -15 1 -15 hhcurveto
          -96 -58 -52 -65 -64 54 -28 49 -6 hvcurveto
          -47 -2 -60 -33 -62 vvcurveto
          -87 96 -42 92 104 82 48 50 29 vhcurveto
          -168 -80 callgsubr
        </CharString>
        <CharString name="dvE">
          -11 569 -4 callsubr
          -589 -32 callgsubr
        </CharString>
        <CharString name="dvEcandra">
          -11 394 125 callgsubr
          113 -255 rmoveto
          -589 -32 callgsubr
        </CharString>
        <CharString name="dvEight">
          -21 267 50 rmoveto
          -97 -49 53 62 67 42 60 104 5 hvcurveto
          109 -4 42 -57 -61 vvcurveto
          -66 -49 -59 -102 vhcurveto
          -135 426 rmoveto
          66 50 60 84 89 46 -58 -66 -82 -57 -41 -74 -76 -62 34 87 vhcurveto
          218 -149 rmoveto
          71 23 43 54 71 vvcurveto
          125 -101 60 -97 -96 -101 -65 -122 -75 43 -52 71 -21 vhcurveto
          -75 -22 -50 -55 -87 vvcurveto
          -106 96 -63 112 117 98 65 109 91 -53 50 -78 20 vhcurveto
          endchar
        </CharString>
        <CharString name="dvEyelash">
          -365 12 368 rmoveto
          -60 vlineto
          -17 30 42 -12 53 hhcurveto
          67 56 21 20 38 hvcurveto
          -15 55 rlineto
          -23 -40 -55 -19 -53 hhcurveto
          -58 -40 17 18 -25 hvcurveto
          203 211 rmoveto
          55 -235 -55 vlineto
          endchar
        </CharString>
        <CharString name="dvEyelash_HA">
          160 624 94 callsubr
          -760 -55 583 -104 -184 120 callgsubr
          -5 0 -5 1 -5 hvcurveto
          -19 -38 -47 -14 -46 hhcurveto
          -58 -40 17 18 -25 hvcurveto
          -60 vlineto
          -17 30 42 -12 53 hhcurveto
          58 51 16 17 37 hvcurveto
          12 -21 18 -16 18 -12 rrcurveto
          -75 callsubr
        </CharString>
        <CharString name="dvEyelash_YA">
          243 642 327 -107 callsubr
          69 callsubr
          -843 -55 393 128 callgsubr
          -58 -57 -47 -107 -22 vhcurveto
          0 vlineto
          -6 -28 -29 -3 -30 hhcurveto
          -51 -51 10 24 -39 hvcurveto
          -60 vlineto
          -20 38 54 -8 50 hhcurveto
          37 34 4 7 25 hvcurveto
          -119 34 88 -60 104 -103 callsubr
          vlineto
          endchar
        </CharString>
        <CharString name="dvFive">
          -28 170 31 callgsubr
        </CharString>
        <CharString name="dvFour">
          9 123 83 callgsubr
        </CharString>
        <CharString name="dvG">
          -261 153 callgsubr
          178 -72 callgsubr
          100 55 vlineto
          endchar
        </CharString>
        <CharString name="dvGA">
          11 153 callgsubr
          178 46 callgsubr
          176 callsubr
        </CharString>
        <CharString name="dvGH">
          -193 440 226 rmoveto
          -49 -40 -68 -25 -62 121 callsubr
          176 55 -407 -55 150 hlineto
          -5 callgsubr
          -90 73 -58 114 80 77 34 50 45 vhcurveto
          endchar
        </CharString>
        <CharString name="dvGHA">
          83 482 17 callgsubr
          -683 -55 150 hlineto
          -5 callgsubr
          -90 73 -58 114 101 76 48 50 38 vhcurveto
          -198 -80 callgsubr
        </CharString>
        <CharString name="dvGH_MA">
          349 747 -26 callsubr
          -415 -235 rmoveto
          55 -51 vlineto
          66 callgsubr
          251 -242 hlineto
          -43 callgsubr
          -19 7 -23 9 -22 vhcurveto
          -46 -40 -66 -23 -60 hhcurveto
          80 callgsubr
          hvcurveto
          659 290 rmoveto
          -949 -55 150 hlineto
          -5 callgsubr
          -90 73 -58 114 73 71 29 43 46 vhcurveto
          12 -27 rlineto
          -55 callgsubr
        </CharString>
        <CharString name="dvGH_NA">
          88 487 327 rmoveto
          -87 -91 -88 -121 80 callgsubr
          vhcurveto
          62 55 -51 hlineto
          -70 -65 24 64 41 23 31 43 20 hvcurveto
          270 hlineto
          69 callsubr
          -688 -55 155 hlineto
          -32 -25 -14 -32 -38 vvcurveto
          -70 59 -37 43 -7 vhcurveto
          -59 -10 -47 -43 -69 vvcurveto
          -86 67 -57 105 -5 vhcurveto
          -81 -45 rlineto
          -29 -19 -13 -20 -24 vvcurveto
          -47 50 -45 33 -18 vhcurveto
          43 29 rlineto
          -24 21 -28 31 27 vvcurveto
          14 6 12 17 10 vhcurveto
          174 105 36 18 27 24 19 25 rlinecurve
          -198 -80 callgsubr
        </CharString>
        <CharString name="dvGH_R">
          -143 496 296 rmoveto
          -66 -30 -85 -78 -106 121 callsubr
          221 55 -457 -55 155 hlineto
          -5 callgsubr
          -113 107 -47 102 13 vhcurveto
          -165 -146 rlineto
          89 hlineto
          309 269 rlineto
          endchar
        </CharString>
        <CharString name="dvGH_RA">
          88 487 17 callgsubr
          -688 -55 155 hlineto
          -5 callgsubr
          -113 107 -47 102 13 vhcurveto
          -165 -146 rlineto
          85 hlineto
          273 239 rlineto
          -194 -80 callgsubr
        </CharString>
        <CharString name="dvGH_YA">
          413 812 327 -107 callsubr
          -480 -235 rmoveto
          55 -51 vlineto
          66 callgsubr
          332 hlineto
          -91 callgsubr
          7 -51 15 -42 21 -35 rrcurveto
          -50 -46 -60 -34 -77 hhcurveto
          80 callgsubr
          hvcurveto
          723 290 rmoveto
          -1013 -55 150 hlineto
          -5 callgsubr
          -90 73 -58 114 95 71 41 56 50 vhcurveto
          -44 43 57 -23 63 -103 callsubr
          vlineto
          endchar
        </CharString>
        <CharString name="dvG_BA">
          321 644 164 -52 callsubr
          -921 -73 callsubr
          501 -269 vlineto
          33 callgsubr
        </CharString>
        <CharString name="dvG_BHA">
          265 663 82 callsubr
          -339 -73 callsubr
          71 -8 vlineto
          77 callgsubr
          8 2 hlineto
          2 9 10 1 9 -28 callsubr
          208 61 callsubr
          hlineto
          endchar
        </CharString>
        <CharString name="dvG_BH_YA">
          633 1032 327 -107 callsubr
          -422 55 rmoveto
          -55 153 -47 callgsubr
          -169 187 hlineto
          129 callsubr
          -17 -16 -2 -5 -14 vhcurveto
          3 -339 -55 178 -72 callgsubr
          81 -8 vlineto
          8 16 22 5 19 -28 callsubr
          184 hlineto
          -102 39 82 -53 96 -103 callsubr
          55 vlineto
          endchar
        </CharString>
        <CharString name="dvG_DA">
          282 740 415 48 callgsubr
          -882 -55 178 -72 callgsubr
          460 9 callgsubr
          endchar
        </CharString>
        <CharString name="dvG_DHA">
          342 922 634 -6 callgsubr
          -576 -55 178 -72 callgsubr
          189 -42 callgsubr
          100 68 51 49 28 vhcurveto
          -163 -80 callgsubr
        </CharString>
        <CharString name="dvG_DH_VA">
          736 1316 -4 callsubr
          -536 -55 355 -260 hlineto
          97 callgsubr
          -25 4 -23 8 -21 hvcurveto
          -52 -48 -69 -42 -90 -49 callsubr
          -616 -55 178 -72 callgsubr
          229 -42 callgsubr
          103 78 46 51 54 vhcurveto
          -44 36 55 -24 58 hhcurveto
          -61 callsubr
        </CharString>
        <CharString name="dvG_DH_YA">
          743 1142 327 -107 callsubr
          -402 55 rmoveto
          -55 133 -79 callgsubr
          8 -61 20 -49 29 -38 rrcurveto
          -55 -48 -71 -45 -93 -49 callsubr
          -616 -55 178 -72 callgsubr
          229 -42 callgsubr
          114 83 56 58 54 vhcurveto
          -31 39 49 -16 52 -103 callsubr
          55 vlineto
          endchar
        </CharString>
        <CharString name="dvG_GA">
          311 891 -4 callsubr
          -911 -73 callsubr
          239 -240 81 callsubr
        </CharString>
        <CharString name="dvG_GHA">
          363 762 17 callgsubr
          -963 -73 callsubr
          191 vlineto
          -5 callgsubr
          -90 73 -58 114 101 76 48 50 38 vhcurveto
          -198 -80 callgsubr
        </CharString>
        <CharString name="dvG_JA">
          398 978 -4 callsubr
          -998 -73 callsubr
          578 -131 -388 -54 vlineto
          -104 callsubr
          217 -394 -98 callgsubr
          hlineto
          endchar
        </CharString>
        <CharString name="dvG_LA">
          457 1037 -4 callsubr
          -1057 -73 callsubr
          636 -126 vlineto
          7 -13 -25 9 -32 hhcurveto
          -75 -47 -106 callgsubr
          46 39 66 29 23 -12 -8 13 vhcurveto
          -397 62 579 120 vlineto
          endchar
        </CharString>
        <CharString name="dvG_MA">
          289 687 -26 callsubr
          103 callsubr
          -889 -73 callsubr
          183 74 callsubr
          223 77 callsubr
          hlineto
          endchar
        </CharString>
        <CharString name="dvG_NA">
          21 153 callgsubr
          188 46 callgsubr
          -338 vlineto
          -244 -148 rlineto
          -30 -18 -15 -17 -28 vvcurveto
          -47 59 -43 29 -17 vhcurveto
          42 30 rlineto
          -20 16 -38 33 28 vvcurveto
          11 6 9 12 7 vhcurveto
          199 118 rlineto
          -175 23 callsubr
        </CharString>
        <CharString name="dvG_NNA">
          480 643 132 callgsubr
          -1080 -73 callsubr
          161 -229 54 callgsubr
        </CharString>
        <CharString name="dvG_N_YA">
          583 982 327 -107 callsubr
          69 callsubr
          -1183 -73 callsubr
          494 vlineto
          158 callsubr
          -74 -23 vhcurveto
          20 -27 -43 20 -67 hhcurveto
          -82 hlineto
          -104 callgsubr
          58 hlineto
          64 26 -22 -11 8 hvcurveto
          -131 29 92 -68 109 -103 callsubr
          vlineto
          endchar
        </CharString>
        <CharString name="dvG_R">
          44 callsubr
          endchar
        </CharString>
        <CharString name="dvG_RA">
          16 -20 634 32 callgsubr
        </CharString>
        <CharString name="dvG_R_YA">
          403 802 327 -107 callsubr
          69 callsubr
          -1003 -55 183 -240 hlineto
          -99 callsubr
          309 -79 callgsubr
          3 -26 6 -24 7 -21 -365 -313 rcurveline
          88 hlineto
          304 256 rlineto
          -70 44 70 -36 79 -103 callsubr
          vlineto
          endchar
        </CharString>
        <CharString name="dvG_SA">
          383 548 142 callsubr
          206 -251 vlineto
          181 306 rmoveto
          -983 -73 callsubr
          295 -45 callgsubr
          173 -271 -14 callsubr
        </CharString>
        <CharString name="dvG_VA">
          306 886 -4 callsubr
          -906 -73 callsubr
          486 42 callgsubr
        </CharString>
        <CharString name="dvG_YA">
          363 762 327 -107 callsubr
          69 callsubr
          -963 -73 callsubr
          274 -79 callgsubr
          -154 20 98 -80 118 -103 callsubr
          vlineto
          endchar
        </CharString>
        <CharString name="dvGx">
          -241 119 80 -105 callsubr
          -139 554 rmoveto
          -55 178 -72 callgsubr
          -13 callgsubr
        </CharString>
        <CharString name="dvGxA">
          11 119 80 -105 callsubr
          -139 554 rmoveto
          -55 178 46 callgsubr
          176 callsubr
        </CharString>
        <CharString name="dvGx_R">
          44 callsubr
          -105 -239 -105 callsubr
          endchar
        </CharString>
        <CharString name="dvGx_RA">
          16 307 -2 -105 callsubr
          -327 636 32 callgsubr
        </CharString>
        <CharString name="dvH">
          -103 539 254 rmoveto
          52 -254 vlineto
          -38 -33 -6 -10 -28 hvcurveto
          -22 6 -33 30 47 vvcurveto
          42 29 8 32 vhcurveto
          237 156 48 55 -497 -55 388 -104 -184 hlineto
          -64 -50 -32 -62 -59 32 -37 33 -21 hvcurveto
          -40 -29 -21 -42 -45 vvcurveto
          -93 82 -82 157 143 callsubr
          vhcurveto
          55 vlineto
          -11 -33 -53 -7 -36 hhcurveto
          -126 -58 50 71 59 50 48 100 hvcurveto
          endchar
        </CharString>
        <CharString name="dvHA">
          64 callsubr
          -60 33 -36 33 -22 hvcurveto
          -75 callsubr
        </CharString>
        <CharString name="dvHA_mU">
          64 callsubr
          -60 33 -34 33 -21 hvcurveto
          -41 -31 -21 -43 -44 vvcurveto
          -77 51 -80 120 -12 vhcurveto
          13 -1 rlineto
          12 19 24 7 20 hhcurveto
          40 40 -12 -53 -44 -37 -38 -72 -61 -72 31 39 -48 hvcurveto
          -63 vlineto
          -34 43 74 -25 66 hhcurveto
          102 67 56 78 78 -58 40 -75 -28 -32 -10 -9 -16 hvcurveto
          -82 6 -37 50 60 vvcurveto
          54 50 56 100 74 29 -37 -43 -18 -4 -21 -11 -14 vhcurveto
          61 hlineto
          8 16 3 21 19 vvcurveto
          62 -45 67 -115 -38 -32 -6 -10 -28 vhcurveto
          0 vlineto
          -21 5 -35 27 90 callgsubr
        </CharString>
        <CharString name="dvHA_mUU">
          64 callsubr
          -57 30 -37 32 -21 hvcurveto
          -38 -29 -20 -42 -42 vvcurveto
          -68 45 -56 66 -18 vhcurveto
          -32 -23 -19 -34 -39 vvcurveto
          -84 64 -43 75 11 16 1 3 11 vhcurveto
          52 vlineto
          -2 -7 -9 -1 -12 hhcurveto
          -42 -45 19 54 44 33 31 50 113 46 -108 -115 hvcurveto
          57 hlineto
          78 -28 196 -187 -81 -64 43 69 51 43 51 94 83 33 -35 -45 -18 -4 -21 -11 -14 vhcurveto
          61 hlineto
          8 16 3 21 19 vvcurveto
          65 -49 64 -126 -34 -29 -5 -9 -26 vhcurveto
          -21 8 -29 29 44 43 callsubr
        </CharString>
        <CharString name="dvHA_mvR">
          -77 363 423 rmoveto
          156 140 55 -523 -55 322 -104 -134 120 callgsubr
          -56 29 -36 31 -22 hvcurveto
          -37 -32 -19 -44 -43 vvcurveto
          -104 86 -77 153 34 33 5 9 35 vhcurveto
          53 vlineto
          -10 -35 -35 -4 -26 hhcurveto
          -130 -54 61 66 66 57 56 93 30 5 -9 -14 hvcurveto
          -29 -65 -26 -41 vvcurveto
          -46 46 -18 47 38 36 10 14 27 vhcurveto
          55 vlineto
          -20 -35 -31 -8 -28 hhcurveto
          -25 -12 7 14 hvcurveto
          24 66 30 45 vvcurveto
          34 -25 30 -74 -44 -38 -9 -16 -31 vhcurveto
          -19 12 -22 27 38 43 callsubr
        </CharString>
        <CharString name="dvH_LA">
          -3 442 423 rmoveto
          156 135 55 -597 113 callgsubr
          -59 32 172 callsubr
          -26 -54 -65 vvcurveto
          -118 87 -98 162 22 26 2 4 18 vhcurveto
          54 vlineto
          -4 -15 -25 -3 -20 hhcurveto
          -130 -64 67 95 86 55 70 115 58 43 -18 -30 26 hvcurveto
          1 -3 -4 0 -3 hhcurveto
          -28 -26 -22 -23 -4 hvcurveto
          24 -7 -28 19 -35 hhcurveto
          -50 -36 -42 -60 -80 62 -38 74 hvcurveto
          6 5 1 5 hhcurveto
          45 vlineto
          -1 -5 -6 0 -5 hhcurveto
          -48 -34 23 50 33 13 23 23 30 9 -21 -31 hvcurveto
          -22 52 21 vlineto
          32 10 24 32 10 10 -3 -3 7 vhcurveto
          3 -13 2 -13 -14 vvcurveto
          -43 -8 -40 -14 -32 vhcurveto
          60 hlineto
          14 36 7 36 40 60 callsubr
        </CharString>
        <CharString name="dvH_MA">
          140 538 199 rmoveto
          -123 7 hlineto
          58 -39 52 -103 -30 -28 -5 -10 -25 vhcurveto
          -21 5 -33 21 46 vvcurveto
          42 29 8 32 vhcurveto
          197 156 144 hlineto
          103 callsubr
          -740 -55 353 -104 -144 hlineto
          -64 -50 -32 -62 -60 33 -29 33 -20 hvcurveto
          -38 -31 -24 -47 -56 vvcurveto
          -114 82 -100 155 29 34 4 7 27 vhcurveto
          52 vlineto
          -7 -27 -32 -4 -33 hhcurveto
          -118 -56 75 86 72 49 55 81 63 20 -27 -31 hvcurveto
          -9 vlineto
          -24 -5 -17 -18 -26 vvcurveto
          -26 24 -35 24 -39 vhcurveto
          55 97 123 -145 -21 callgsubr
        </CharString>
        <CharString name="dvH_NA">
          17 439 423 rmoveto
          156 158 55 -617 -55 398 -104 -194 120 callgsubr
          -56 36 -43 33 -24 hvcurveto
          -51 -39 -25 -57 -63 vvcurveto
          -116 100 -100 150 38 22 0 12 48 vhcurveto
          55 vlineto
          -11 -33 -33 -3 -36 hhcurveto
          -112 -82 68 95 76 50 79 133 49 36 -12 -17 25 hvcurveto
          -137 -61 rlineto
          -34 -15 -17 -19 -29 vvcurveto
          -41 43 -44 25 -18 vhcurveto
          44 20 rlineto
          -23 22 -19 31 22 vvcurveto
          15 8 10 16 7 vhcurveto
          133 58 rlineto
          8 -14 3 -14 -13 vvcurveto
          -33 -7 -21 -7 -19 vhcurveto
          61 hlineto
          6 13 6 30 31 vvcurveto
          69 -61 94 -158 -47 -41 -8 -13 -33 vhcurveto
          -26 15 -30 30 43 43 callsubr
        </CharString>
        <CharString name="dvH_NNA">
          2 341 140 rmoveto
          -48 -8 -21 -36 -35 -10 20 50 vhcurveto
          119 vlineto
          3 13 15 1 15 hhcurveto
          17 15 -1 -3 14 hvcurveto
          101 163 rmoveto
          156 140 55 -602 60 callgsubr
          57 25 51 50 27 hvcurveto
          -102 vlineto
          -87 37 -27 60 68 28 37 76 vhcurveto
          100 vlineto
          39 -24 21 -40 -50 vvcurveto
          -27 -5 -30 -7 -18 vhcurveto
          60 hlineto
          5 17 6 30 25 60 callsubr
        </CharString>
        <CharString name="dvH_RA">
          -3 442 423 rmoveto
          156 135 55 -597 60 callgsubr
          86 55 70 115 37 31 -7 -13 24 hvcurveto
          -178 -189 rlineto
          78 hlineto
          143 151 rlineto
          15 -22 8 -27 -31 vvcurveto
          -27 -5 -30 -7 -18 vhcurveto
          60 hlineto
          5 17 6 30 25 60 callsubr
        </CharString>
        <CharString name="dvH_VA">
          -25 442 423 rmoveto
          156 113 55 -575 113 callgsubr
          -58 31 172 callsubr
          -25 -54 -66 vvcurveto
          -118 87 -98 162 38 32 4 12 48 vhcurveto
          55 vlineto
          -11 -33 -43 -7 -36 hhcurveto
          -130 -64 67 95 84 53 72 112 80 44 -41 -56 14 hvcurveto
          0 vlineto
          -64 -48 -37 -51 -43 -26 18 35 37 30 18 32 14 11 -2 -4 11 vhcurveto
          45 vlineto
          5 -12 -13 3 -20 hhcurveto
          -59 -56 -40 -63 -57 45 -47 76 47 38 22 32 24 hvcurveto
          -4 -19 -4 -18 -4 -10 rrcurveto
          60 hlineto
          7 19 10 51 29 vvcurveto
          107 -66 89 -137 -42 -38 -8 -15 -32 vhcurveto
          -21 10 -26 29 41 43 callsubr
        </CharString>
        <CharString name="dvH_YA">
          158 557 217 rmoveto
          -91 -58 -45 -66 -52 -39 24 36 -14 vhcurveto
          54 12 37 39 49 vvcurveto
          69 -56 32 -83 -39 -36 -10 -18 -32 vhcurveto
          -14 11 -13 19 29 vvcurveto
          42 29 8 32 vhcurveto
          187 156 163 hlineto
          69 callsubr
          -758 -55 353 -104 -134 hlineto
          -64 -50 -32 -62 -49 22 -29 27 -19 hvcurveto
          -34 -33 -21 -47 -55 vvcurveto
          -131 104 -94 156 18 25 4 5 15 vhcurveto
          51 vlineto
          -4 -13 -28 -4 -19 hhcurveto
          -116 -81 75 97 87 66 58 82 46 23 -15 -36 -40 -37 -17 -65 -9 hvcurveto
          -95 16 78 -52 80 hhcurveto
          54 47 23 36 27 hvcurveto
          -88 -80 callgsubr
        </CharString>
        <CharString name="dvI">
          175 callgsubr
          -508 -55 337 -92 -91 vlineto
          30 callsubr
        </CharString>
        <CharString name="dvII">
          175 callgsubr
          -121 vlineto
          -21 22 -20 34 34 vvcurveto
          48 27 31 47 23 callgsubr
          -91 -45 -65 -64 -40 14 -33 20 -22 hvcurveto
          -318 -55 337 -92 -91 hlineto
          30 callsubr
        </CharString>
        <CharString name="dvII_Anusvara">
          -52 389 432 rmoveto
          147 139 55 -147 vlineto
          120 callsubr
          -91 -59 -68 -85 -52 26 -45 24 -25 hvcurveto
          -333 -55 347 -92 -98 hlineto
          -88 -63 -46 -83 -73 61 -50 77 -2 hvcurveto
          83 7 rlineto
          54 33 -31 -50 -56 -41 -40 -59 -68 -60 44 58 -23 hvcurveto
          159 callgsubr
          55 -21 57 hhcurveto
          93 69 66 84 76 -46 58 -93 hvcurveto
          -83 -6 rlineto
          -50 1 -36 30 42 vvcurveto
          52 48 20 45 vhcurveto
          198 358 -105 callsubr
          endchar
        </CharString>
        <CharString name="dvJ">
          -138 442 -4 callsubr
          -462 -55 462 hlineto
          95 -131 rmoveto
          -438 -54 hlineto
          -104 callsubr
          267 hlineto
          endchar
        </CharString>
        <CharString name="dvJA">
          88 153 callgsubr
          507 -131 -388 -54 vlineto
          -104 callsubr
          217 -394 -98 callgsubr
          55 hlineto
          endchar
        </CharString>
        <CharString name="dvJH">
          -20 639 311 rmoveto
          -359 0 hlineto
          -11 1 rlineto
          2 callsubr
          167 55 -580 -43 callsubr
          237 hlineto
          endchar
        </CharString>
        <CharString name="dvJHA">
          193 280 311 rmoveto
          0 vlineto
          -11 1 rlineto
          2 callsubr
          198 -268 hlineto
          182 323 rmoveto
          -793 -43 callsubr
          189 -258 -21 callgsubr
        </CharString>
        <CharString name="dvJH_MA">
          519 917 -26 callsubr
          -648 -267 rmoveto
          2 callsubr
          239 -242 hlineto
          -15 -3 -13 -10 -7 -13 rrcurveto
          -317 0 hlineto
          819 323 rmoveto
          -1119 -43 callsubr
          192 hlineto
          5 -21 10 -23 8 -19 22 -50 rcurveline
          -55 callgsubr
        </CharString>
        <CharString name="dvJH_NA">
          283 311 311 rmoveto
          -6 1 -6 0 -6 1 rrcurveto
          -92 8 -47 14 45 vvcurveto
          41 38 21 63 vhcurveto
          169 137 268 -268 hlineto
          171 323 rmoveto
          -883 -55 382 -82 -112 hlineto
          -98 -60 -48 -70 -86 79 -25 106 -7 hvcurveto
          96 -6 21 -42 -45 vvcurveto
          -56 -47 -37 -59 -68 -62 42 58 -23 vhcurveto
          159 callgsubr
          62 -19 52 hhcurveto
          93 75 62 85 37 -10 30 -19 23 hvcurveto
          265 -39 hlineto
          -243 -217 rlineto
          -26 -22 -11 -23 -21 vvcurveto
          -42 38 -37 48 -21 vhcurveto
          42 27 rlineto
          -30 23 -27 26 27 vvcurveto
          13 8 12 16 15 vhcurveto
          185 165 rlineto
          -144 51 -90 callsubr
          vlineto
          endchar
        </CharString>
        <CharString name="dvJH_R">
          42 709 259 rmoveto
          53 -429 vlineto
          2 callsubr
          218 55 -642 44 callgsubr
          286 -40 rmoveto
          -377 -348 rlineto
          86 hlineto
          328 299 rlineto
          endchar
        </CharString>
        <CharString name="dvJH_RA">
          273 280 312 rmoveto
          2 callsubr
          267 -267 hlineto
          182 322 rmoveto
          -873 44 callgsubr
          259 -65 hlineto
          -350 -323 rlineto
          86 hlineto
          264 247 rlineto
          -118 -68 callgsubr
        </CharString>
        <CharString name="dvJH_YA">
          573 972 327 -107 callsubr
          -692 -268 rmoveto
          0 vlineto
          -11 1 rlineto
          2 callsubr
          310 hlineto
          -91 callgsubr
          2 -19 4 -17 5 -17 rrcurveto
          572 323 rmoveto
          -1173 -43 callsubr
          199 hlineto
          -85 42 76 -43 87 -103 callsubr
          vlineto
          endchar
        </CharString>
        <CharString name="dvJ_BA">
          471 794 164 -52 callsubr
          -1071 -55 890 -30 callgsubr
          -64 -56 -23 -38 -39 hvcurveto
          18 -438 -54 vlineto
          -104 callsubr
          239 hlineto
          -19 -30 -10 -37 -41 71 callsubr
        </CharString>
        <CharString name="dvJ_DA">
          412 870 415 48 callgsubr
          -1002 -55 819 -110 -113 vlineto
          -63 -50 -18 -29 -36 hvcurveto
          26 -438 -54 vlineto
          -104 callsubr
          240 hlineto
          -26 -33 -14 -43 -47 vvcurveto
          -109 79 -89 126 61 49 21 31 26 vhcurveto
          -65 callgsubr
        </CharString>
        <CharString name="dvJ_DDA">
          349 537 394 rmoveto
          6 vlineto
          21 17 32 8 31 hhcurveto
          165 150 147 55 -949 -55 740 -95 -107 hlineto
          -47 -39 -12 -24 -27 hvcurveto
          -401 -54 hlineto
          -104 callsubr
          196 hlineto
          -2 -11 -2 -12 -13 vvcurveto
          105 callsubr
          vhcurveto
          -44 callgsubr
          -26 50 67 -15 162 callsubr
          74 62 88 101 -78 28 -96 5 hvcurveto
          -110 6 -31 23 48 vvcurveto
          14 3 11 6 9 vhcurveto
          endchar
        </CharString>
        <CharString name="dvJ_JA">
          488 1068 -4 callsubr
          -1088 -55 907 -131 -788 -54 hlineto
          -104 callsubr
          229 hlineto
          -104 callsubr
          217 -394 -98 callgsubr
          hlineto
          endchar
        </CharString>
        <CharString name="dvJ_JHA">
          593 680 311 rmoveto
          0 vlineto
          -11 1 rlineto
          2 callsubr
          198 -268 hlineto
          182 323 rmoveto
          -1193 -55 751 -82 -95 hlineto
          -59 -46 -18 -31 -27 hvcurveto
          -405 -54 hlineto
          -104 callsubr
          210 hlineto
          -1 -6 0 -6 -7 vvcurveto
          -86 74 -22 100 -7 vhcurveto
          35 callsubr
          -65 167 callsubr
          57 -20 58 hhcurveto
          97 65 64 83 37 -15 31 -25 24 hvcurveto
          189 -258 -21 callgsubr
        </CharString>
        <CharString name="dvJ_J_NYA">
          603 1203 -4 callsubr
          -1223 -55 1021 -92 -326 hlineto
          -55 -43 -14 -25 -29 hvcurveto
          -449 -54 hlineto
          -104 callsubr
          245 hlineto
          -3 -9 -1 -10 -11 vvcurveto
          -73 58 -44 107 74 62 -11 -67 -55 -40 -41 -61 -68 -63 44 58 -25 vhcurveto
          112 callsubr
          59 89 97 -76 34 -99 -94 -32 25 41 46 42 20 58 hvcurveto
          326 -432 62 579 140 hlineto
          endchar
        </CharString>
        <CharString name="dvJ_J_VA">
          826 1406 -4 callsubr
          -1426 -55 1245 -260 hlineto
          -103 callgsubr
          -49 -42 -15 -26 -33 hvcurveto
          25 -838 -54 vlineto
          -104 callsubr
          229 hlineto
          -104 callsubr
          238 hlineto
          -24 -31 -14 -39 -45 vvcurveto
          -72 callsubr
        </CharString>
        <CharString name="dvJ_J_YA">
          893 1292 327 -107 callsubr
          69 callsubr
          -1493 -55 1043 128 callgsubr
          -44 -32 -38 -63 -24 vhcurveto
          12 -9 -49 54 -116 hhcurveto
          -686 -54 hlineto
          -104 callsubr
          259 hlineto
          -104 callsubr
          68 hlineto
          88 27 -26 -9 8 hvcurveto
          -151 21 97 -78 117 -103 callsubr
          vlineto
          endchar
        </CharString>
        <CharString name="dvJ_KA">
          641 1221 163 callgsubr
          -1241 -55 810 -313 vlineto
          -64 -55 -47 -60 -71 -52 50 74 87 61 46 72 7 9 -1 -1 5 vhcurveto
          54 vlineto
          2 -5 -9 1 -9 hhcurveto
          -57 -53 -21 -39 -36 hvcurveto
          41 -438 -54 vlineto
          -104 callsubr
          256 hlineto
          -22 -30 -14 -39 -46 vvcurveto
          -107 75 -69 106 48 43 17 32 28 vhcurveto
          -100 callgsubr
        </CharString>
        <CharString name="dvJ_MA">
          429 537 394 rmoveto
          54 -438 -54 vlineto
          -104 callsubr
          557 -55 rmoveto
          -223 240 223 hlineto
          103 callsubr
          -1029 -55 562 -76 callsubr
          223 77 callsubr
          hlineto
          endchar
        </CharString>
        <CharString name="dvJ_NA">
          78 153 callgsubr
          497 -131 -388 -54 vlineto
          -104 callsubr
          217 -225 hlineto
          -184 -122 rlineto
          -30 -20 -11 -22 -23 vvcurveto
          -48 53 -38 30 -16 vhcurveto
          44 30 rlineto
          -23 17 -32 26 29 vvcurveto
          15 6 9 13 9 vhcurveto
          134 88 rlineto
          -103 23 callsubr
        </CharString>
        <CharString name="dvJ_NY">
          -56 524 -4 callsubr
          -554 -55 554 hlineto
          187 -172 rmoveto
          55 -466 vlineto
          52 callsubr
          endchar
        </CharString>
        <CharString name="dvJ_NYA">
          152 -30 169 callgsubr
          601 -92 -326 vlineto
          -100 -64 -47 -76 -73 58 -44 107 74 62 -11 -67 -55 -40 -41 -61 -68 -63 44 58 -25 hvcurveto
          112 callsubr
          59 89 97 -76 34 -99 -94 -32 25 41 46 42 20 58 hvcurveto
          326 -432 62 579 140 55 hlineto
          endchar
        </CharString>
        <CharString name="dvJ_NY_YA">
          533 932 327 -107 callsubr
          69 callsubr
          -1143 -55 693 164 callsubr
          44 -30 -57 37 -115 hhcurveto
          -149 hlineto
          52 callsubr
          130 hlineto
          84 46 -12 -40 26 hvcurveto
          -148 23 96 -77 116 -103 callsubr
          vlineto
          endchar
        </CharString>
        <CharString name="dvJ_R">
          171 callgsubr
          -359 -679 rmoveto
          90 hlineto
          350 298 -33 49 rlineto
          -428 201 rmoveto
          -11 callsubr
          367 54 hlineto
          endchar
        </CharString>
        <CharString name="dvJ_RA">
          97 153 callgsubr
          516 -131 -388 -11 callsubr
          214 -183 hlineto
          -367 -311 rlineto
          90 hlineto
          277 234 rlineto
          -134 23 callsubr
        </CharString>
        <CharString name="dvJ_TA">
          442 1022 -4 callsubr
          -1042 -55 861 -133 -112 hlineto
          -3 0 -627 -54 hlineto
          109 74 -46 -95 callsubr
          70 -29 49 -45 26 hvcurveto
          288 hlineto
          -46 -40 -23 -59 -68 -76 callgsubr
          hlineto
          endchar
        </CharString>
        <CharString name="dvJ_TTA">
          338 804 579 rmoveto
          114 55 -938 -55 762 93 callgsubr
          -20 -19 -2 -3 -18 hvcurveto
          0 -558 -54 vlineto
          -104 callsubr
          271 hlineto
          -44 -38 -27 -54 -67 -69 callgsubr
        </CharString>
        <CharString name="dvJ_VA">
          426 1006 -4 callsubr
          -1026 -55 845 -260 hlineto
          -103 callgsubr
          -49 -42 -15 -26 -33 hvcurveto
          25 -438 -54 vlineto
          -104 callsubr
          238 hlineto
          -24 -31 -14 -39 -45 vvcurveto
          -72 callsubr
        </CharString>
        <CharString name="dvJ_YA">
          443 842 327 -107 callsubr
          69 callsubr
          -1043 -55 593 164 callsubr
          18 -16 -55 49 -116 hhcurveto
          -220 -54 hlineto
          -104 callsubr
          41 hlineto
          93 36 -30 0 hvcurveto
          -154 20 98 -80 118 -103 callsubr
          vlineto
          endchar
        </CharString>
        <CharString name="dvJx">
          -142 442 -4 callsubr
          -462 -55 462 hlineto
          -293 -619 -105 callsubr
          388 488 rmoveto
          -438 -54 hlineto
          -104 callsubr
          267 hlineto
          endchar
        </CharString>
        <CharString name="dvJxA">
          88 149 -40 -105 callsubr
          -169 674 rmoveto
          -55 507 -131 -388 -54 vlineto
          -104 callsubr
          217 -394 -98 callgsubr
          55 hlineto
          endchar
        </CharString>
        <CharString name="dvJx_JxA">
          528 149 -40 -105 callsubr
          388 434 rmoveto
          54 -438 -54 vlineto
          -104 callsubr
          319 -434 -105 callsubr
          519 674 rmoveto
          -1128 -55 947 -131 -388 -54 hlineto
          -104 callsubr
          217 -394 -98 callgsubr
          hlineto
          endchar
        </CharString>
        <CharString name="dvJx_R">
          171 callgsubr
          21 -589 -105 callsubr
          -380 -90 rmoveto
          90 hlineto
          350 298 -33 49 rlineto
          -428 201 rmoveto
          -11 callsubr
          367 54 hlineto
          endchar
        </CharString>
        <CharString name="dvJx_RA">
          97 399 -70 -105 callsubr
          -419 704 rmoveto
          -55 516 -131 -388 -11 callsubr
          214 -183 hlineto
          -367 -311 rlineto
          90 hlineto
          277 234 rlineto
          -134 23 callsubr
        </CharString>
        <CharString name="dvJx_YA">
          443 149 -40 -105 callsubr
          693 367 -107 callsubr
          69 callsubr
          -1043 -55 593 128 callgsubr
          -37 -23 -33 -44 -23 vhcurveto
          53 -438 -54 vlineto
          -104 callsubr
          266 hlineto
          -25 -13 -32 -11 -39 -6 rrcurveto
          -154 20 98 -80 118 -103 callsubr
          vlineto
          endchar
        </CharString>
        <CharString name="dvK">
          -48 412 579 rmoveto
          120 55 -552 -12 callsubr
          55 47 60 34 30 -11 -21 22 vhcurveto
          42 42 rlineto
          27 -31 -44 15 146 callsubr
          endchar
        </CharString>
        <CharString name="dvKA">
          201 781 163 callgsubr
          -801 -55 370 -313 vlineto
          -64 -55 -47 -60 -71 -52 50 74 87 61 46 72 7 9 -1 -1 5 vhcurveto
          54 vlineto
          2 -5 -9 1 -9 hhcurveto
          -104 -89 -70 -118 -107 75 -69 106 37 callsubr
        </CharString>
        <CharString name="dvKH">
          11 532 274 -7 callsubr
        </CharString>
        <CharString name="dvKHA">
          203 783 -4 callsubr
          -803 -55 244 -139 hlineto
          173 callgsubr
          -53 hlineto
          220 -285 -83 callgsubr
        </CharString>
        <CharString name="dvKH_KHA">
          773 1171 437 rmoveto
          36 -34 -48 14 -44 -67 callsubr
          -506 -211 rmoveto
          86 -25 -73 33 -72 -89 callgsubr
          13 hlineto
          95 26 51 99 hvcurveto
          116 488 -109 vlineto
          -71 -3 -31 -76 vhcurveto
          668 266 rmoveto
          -1373 -55 234 -109 hlineto
          -60 callgsubr
          142 87 78 93 32 hvcurveto
          -97 57 99 -74 133 hhcurveto
          106 73 43 62 42 hvcurveto
          -153 -68 callgsubr
        </CharString>
        <CharString name="dvKH_MA">
          559 957 -26 callsubr
          -425 -305 rmoveto
          15 callgsubr
          396 -242 -1 vlineto
          109 -15 -81 41 -80 hhcurveto
          -86 -67 -65 -82 -79 62 -51 74 19 18 4 8 17 hvcurveto
          607 412 rmoveto
          -1159 -55 234 -109 hlineto
          -60 callgsubr
          133 85 68 85 36 hvcurveto
          3 -6 22 -50 rlineto
          -55 callgsubr
        </CharString>
        <CharString name="dvKH_NA">
          223 621 437 rmoveto
          36 -34 -48 14 -44 -67 callsubr
          182 55 rmoveto
          -823 -55 234 141 callsubr
          34 -124 96 -113 142 -25 -138 -61 rcurveline
          -41 -16 -17 -22 -29 vvcurveto
          -45 40 -44 21 -19 vhcurveto
          49 15 rlineto
          -19 25 -20 38 24 vvcurveto
          14 7 8 16 7 vhcurveto
          277 121 45 19 34 29 25 36 rlinecurve
          -153 -68 callgsubr
        </CharString>
        <CharString name="dvKH_R">
          3 522 274 -14 callgsubr
        </CharString>
        <CharString name="dvKH_RA">
          213 611 438 -24 callgsubr
        </CharString>
        <CharString name="dvKH_SHA">
          694 750 124 callsubr
          -51 hlineto
          126 -8 -86 46 -85 -89 callgsubr
          13 hlineto
          95 26 51 99 hvcurveto
          116 315 55 -611 -55 234 -109 vlineto
          -60 callgsubr
          143 88 79 94 31 hvcurveto
          189 -221 -36 callgsubr
          403 191 rmoveto
          -634 -7 callgsubr
        </CharString>
        <CharString name="dvKH_TA">
          564 963 446 rmoveto
          -112 hlineto
          -86 -63 -27 -45 -39 hvcurveto
          82 -27 -71 58 callgsubr
          13 hlineto
          95 26 51 99 hvcurveto
          116 687 103 callgsubr
          -1164 -55 234 -109 hlineto
          -60 callgsubr
          103 75 41 59 45 hvcurveto
          -88 26 72 -60 105 hhcurveto
          11 10 1 1 6 hvcurveto
          -57 callsubr
          hlineto
          endchar
        </CharString>
        <CharString name="dvKH_VA">
          573 972 319 rmoveto
          -103 callgsubr
          -65 -54 -27 -43 -34 hvcurveto
          67 -31 -65 26 -64 -89 callgsubr
          13 hlineto
          95 26 51 99 hvcurveto
          116 696 103 callgsubr
          -1173 -55 234 -109 hlineto
          -60 callgsubr
          121 82 57 74 41 hvcurveto
          -56 34 63 -31 65 hhcurveto
          -61 callsubr
        </CharString>
        <CharString name="dvKH_YA">
          613 1012 327 -107 callsubr
          -857 -266 rmoveto
          -10 callgsubr
          467 vlineto
          158 callsubr
          -74 -23 vhcurveto
          80 -27 -70 58 callgsubr
          1051 321 rmoveto
          -1213 -55 234 -109 hlineto
          -60 callgsubr
          144 88 80 95 30 hvcurveto
          -62 44 66 -31 74 -103 callsubr
          vlineto
          endchar
        </CharString>
        <CharString name="dvKHx">
          8 79 50 -105 callsubr
          453 224 -7 callsubr
        </CharString>
        <CharString name="dvKHxA">
          203 69 20 -105 callsubr
          714 614 rmoveto
          -803 -55 244 -139 hlineto
          173 callgsubr
          -53 hlineto
          220 -285 -83 callgsubr
        </CharString>
        <CharString name="dvKHx_MA">
          549 79 50 -105 callsubr
          868 289 rmoveto
          -223 240 223 hlineto
          -792 -266 rmoveto
          -10 callgsubr
          386 -202 vlineto
          80 -27 -70 30 0 callgsubr
          987 321 rmoveto
          -1149 -55 234 -109 hlineto
          -60 callgsubr
          127 83 62 80 39 hvcurveto
          20 -45 rlineto
          -55 callgsubr
        </CharString>
        <CharString name="dvKHx_R">
          3 524 -80 -105 callsubr
          -2 354 -14 callgsubr
        </CharString>
        <CharString name="dvKHx_RA">
          213 526 -20 -105 callsubr
          85 458 -24 callgsubr
        </CharString>
        <CharString name="dvKHx_SA">
          653 79 50 -105 callsubr
          739 278 rmoveto
          -70 callgsubr
          206 -251 vlineto
          -897 -15 rmoveto
          -10 callgsubr
          508 -143 vlineto
          137 callgsubr
          -14 hlineto
          109 -15 -81 40 -80 -89 callgsubr
          1091 321 rmoveto
          -1253 -55 234 -109 hlineto
          -60 callgsubr
          143 88 79 94 31 hvcurveto
          143 -221 -91 callsubr
          173 -271 -14 callsubr
        </CharString>
        <CharString name="dvKHx_SHA">
          684 79 50 -105 callsubr
          661 393 -2 callgsubr
          -41 hlineto
          126 -8 -86 46 -85 -89 callgsubr
          13 hlineto
          95 26 51 99 hvcurveto
          116 315 55 -611 -55 234 -109 vlineto
          -60 callgsubr
          139 87 75 90 33 hvcurveto
          182 -213 -36 callgsubr
          403 191 rmoveto
          -634 -7 callgsubr
        </CharString>
        <CharString name="dvKHx_TA">
          572 79 50 -105 callsubr
          892 396 rmoveto
          -112 hlineto
          -91 -64 -30 -49 -39 hvcurveto
          87 -25 -73 33 -72 -89 callgsubr
          13 hlineto
          95 26 51 99 hvcurveto
          116 695 103 callgsubr
          -1172 -55 234 -109 hlineto
          -60 callgsubr
          108 76 45 62 45 hvcurveto
          -92 24 73 -63 108 hhcurveto
          11 10 1 1 6 hvcurveto
          -57 callsubr
          hlineto
          endchar
        </CharString>
        <CharString name="dvKHx_VA">
          576 79 50 -105 callsubr
          896 269 rmoveto
          -103 callgsubr
          -66 -55 -28 -44 -34 hvcurveto
          68 -30 -66 27 -65 -89 callgsubr
          13 hlineto
          95 26 51 99 hvcurveto
          116 699 103 callgsubr
          -1176 -55 234 -109 hlineto
          -60 callgsubr
          122 83 58 76 40 hvcurveto
          -58 34 64 -32 66 hhcurveto
          -61 callsubr
        </CharString>
        <CharString name="dvKHx_YA">
          623 79 50 -105 callsubr
          943 277 -107 callsubr
          -867 -266 rmoveto
          -10 callgsubr
          477 vlineto
          15 -19 16 -32 -40 vvcurveto
          -50 -41 -42 -80 -22 vhcurveto
          82 -26 -72 58 callgsubr
          1061 321 rmoveto
          -1223 -55 234 -109 hlineto
          -60 callgsubr
          149 89 86 99 27 hvcurveto
          -68 44 69 -35 78 -103 callsubr
          vlineto
          endchar
        </CharString>
        <CharString name="dvK_CA">
          537 935 328 rmoveto
          24 callgsubr
          -240 vlineto
          18 -26 -30 10 -34 hhcurveto
          -43 -31 -14 -26 -21 hvcurveto
          142 523 152 callsubr
          -1137 -12 callsubr
          31 47 60 32 18 -10 -21 20 vhcurveto
          74 hlineto
          -54 -26 -27 -47 -57 126 callgsubr
        </CharString>
        <CharString name="dvK_DA">
          467 412 579 rmoveto
          426 -95 -107 hlineto
          -42 -36 -10 -19 -27 hvcurveto
          14 -27 -33 8 -35 -10 callsubr
          488 1 95 callsubr
          -1067 -55 370 -313 vlineto
          -107 callgsubr
          64 55 47 60 23 22 -5 -10 18 vhcurveto
          -7 -15 -3 -17 -20 vvcurveto
          105 callsubr
          vhcurveto
          -35 callgsubr
        </CharString>
        <CharString name="dvK_JA">
          602 1001 448 rmoveto
          -363 hlineto
          19 -29 -38 10 -40 hhcurveto
          13 callsubr
          589 103 callgsubr
          -1202 -12 callsubr
          55 47 60 34 30 -11 -21 22 vhcurveto
          1 1 rlineto
          108 -101 callgsubr
          217 -394 -98 callgsubr
          hlineto
          endchar
        </CharString>
        <CharString name="dvK_KA">
          701 850 -15 callgsubr
          -36 -33 -8 -16 -29 hvcurveto
          22 -31 -39 12 -44 hhcurveto
          13 callsubr
          438 vlineto
          431 hmoveto
          55 -1301 -55 370 -313 vlineto
          -107 callgsubr
          64 55 47 60 26 24 -6 -13 19 vhcurveto
          -28 -32 -18 -42 -53 vvcurveto
          -107 75 -69 106 48 43 17 32 28 vhcurveto
          -100 callgsubr
        </CharString>
        <CharString name="dvK_KHA">
          773 794 440 rmoveto
          129 callgsubr
          -4 hlineto
          84 -4 -63 55 -78 hhcurveto
          -43 -36 -16 -30 -25 hvcurveto
          148 382 vlineto
          559 55 rmoveto
          -1373 -55 370 -313 hlineto
          -107 callgsubr
          65 49 46 55 56 28 -41 -53 vhcurveto
          -46 vlineto
          220 -285 -83 callgsubr
        </CharString>
        <CharString name="dvK_LA">
          677 1075 453 rmoveto
          -30 callsubr
          -33 -30 -9 -17 -25 hvcurveto
          24 -30 -42 13 -46 hhcurveto
          13 callsubr
          663 152 callsubr
          -1277 -12 callsubr
          55 47 60 31 29 -9 -18 21 vhcurveto
          -24 -36 -14 -47 -53 vvcurveto
          -146 90 -116 140 -12 callgsubr
          vhcurveto
          -88 callgsubr
        </CharString>
        <CharString name="dvK_MA">
          499 897 -26 callsubr
          -485 hmoveto
          200 -118 hlineto
          11 -24 -28 5 -29 -10 callsubr
          667 206 rmoveto
          -1099 -12 callsubr
          55 47 60 33 30 -11 -20 22 vhcurveto
          -57 -74 callsubr
          223 77 callsubr
          hlineto
          endchar
        </CharString>
        <CharString name="dvK_NA">
          212 791 163 callgsubr
          -811 -55 380 -313 vlineto
          -64 -55 -47 -60 -71 -52 50 74 87 61 46 72 7 9 -1 -1 5 vhcurveto
          54 vlineto
          2 -5 -9 1 -9 hhcurveto
          -104 -89 -70 -118 -93 56 -64 84 -15 hvcurveto
          -77 -52 rlineto
          -30 -20 -13 -22 -22 vvcurveto
          -48 59 -41 32 -18 vhcurveto
          40 31 rlineto
          -21 17 -39 33 28 vvcurveto
          9 5 8 11 8 vhcurveto
          163 109 12 7 10 9 8 9 rlinecurve
          -100 callgsubr
        </CharString>
        <CharString name="dvK_NNA">
          710 873 349 -56 callsubr
          -461 hmoveto
          198 -117 hlineto
          10 -24 -26 5 -29 -10 callsubr
          878 206 rmoveto
          -1310 -12 callsubr
          55 47 60 32 29 -10 -19 22 vhcurveto
          -46 54 callgsubr
        </CharString>
        <CharString name="dvK_PA">
          517 915 -33 callsubr
          -503 hmoveto
          188 -113 hlineto
          7 -21 -23 4 -25 -10 callsubr
          685 206 rmoveto
          -1117 -12 callsubr
          55 47 60 28 25 -7 -14 20 vhcurveto
          -29 118 callsubr
        </CharString>
        <CharString name="dvK_PHA">
          747 915 5 callsubr
          -503 hmoveto
          188 -113 hlineto
          7 -21 -23 4 -25 -10 callsubr
          915 151 rmoveto
          55 -1347 -55 370 -313 vlineto
          -107 callgsubr
          64 55 47 60 28 25 -7 -14 20 vhcurveto
          -34 vlineto
          -38 callgsubr
          64 52 50 63 -105 callgsubr
          148 vlineto
          endchar
        </CharString>
        <CharString name="dvK_P_RA">
          522 920 -51 callsubr
          -508 hmoveto
          193 -115 hlineto
          9 -22 -25 4 -27 -10 callsubr
          690 206 rmoveto
          -1122 -12 callsubr
          55 47 60 30 27 -9 -16 21 vhcurveto
          -5 vlineto
          -136 60 -57 104 -5 vhcurveto
          155 callsubr
          rlineto
          -8 callgsubr
        </CharString>
        <CharString name="dvK_R">
          -41 417 579 1 callsubr
        </CharString>
        <CharString name="dvK_RA">
          206 786 163 callgsubr
          -806 -55 375 -313 vlineto
          -64 -55 -47 -60 -71 -52 50 74 87 61 46 72 7 9 -1 -1 5 vhcurveto
          54 vlineto
          2 -5 -9 1 -9 hhcurveto
          -104 -89 -70 -118 180 callsubr
          hvcurveto
          -146 -148 rlineto
          76 hlineto
          194 197 rlineto
          -100 callgsubr
        </CharString>
        <CharString name="dvK_SA">
          653 818 142 callsubr
          206 -251 vlineto
          -640 251 rmoveto
          372 24 callsubr
          0 vlineto
          110 -21 -78 29 -65 177 callsubr
          821 203 rmoveto
          -1253 -12 callsubr
          45 47 60 54 40 -27 -62 9 vhcurveto
          -51 6 callsubr
        </CharString>
        <CharString name="dvK_SHA">
          634 412 579 rmoveto
          120 55 -552 -12 callsubr
          55 47 60 34 30 -11 -21 22 vhcurveto
          42 42 -3 3 -4 2 -3 3 rlinecurve
          45 hlineto
          -78 callsubr
          -95 -57 hlineto
          221 -258 65 callgsubr
          -16 2 -16 5 -16 hvcurveto
          14 -27 -32 7 -34 -10 callsubr
          620 206 rmoveto
          -634 -7 callgsubr
        </CharString>
        <CharString name="dvK_SS">
          -37 268 587 -52 callgsubr
          371 -259 rmoveto
          53 -273 vlineto
          -94 callgsubr
          endchar
        </CharString>
        <CharString name="dvK_SSA">
          180 268 587 -52 callgsubr
          312 47 rmoveto
          -253 -214 vlineto
          -94 callgsubr
          258 hlineto
          1 -328 rlineto
          -65 callsubr
          55 hlineto
          endchar
        </CharString>
        <CharString name="dvK_SS_MA">
          509 907 -26 callsubr
          -639 8 -52 callgsubr
          212 47 rmoveto
          -55 142 -198 -256 vlineto
          -94 callgsubr
          280 hlineto
          -13 -10 -9 -15 -18 vvcurveto
          95 callgsubr
          -9 callgsubr
          223 61 callsubr
          hlineto
          endchar
        </CharString>
        <CharString name="dvK_SS_M_YA">
          883 1282 -64 callgsubr
          -616 248 -52 callgsubr
          1195 47 rmoveto
          -993 -55 142 -198 -246 hlineto
          -94 callgsubr
          270 hlineto
          -13 -10 -9 -15 -18 vvcurveto
          95 callgsubr
          -9 callgsubr
          225 hlineto
          -102 39 82 -53 96 -103 callsubr
          vlineto
          endchar
        </CharString>
        <CharString name="dvK_SS_VA">
          496 268 587 -52 callgsubr
          808 47 rmoveto
          -569 -55 388 -260 hlineto
          -103 callgsubr
          -71 -58 -32 -51 -33 hvcurveto
          -203 hlineto
          -94 callgsubr
          224 hlineto
          -4 -15 -2 -17 -17 vvcurveto
          -72 callsubr
        </CharString>
        <CharString name="dvK_SS_YA">
          523 922 327 -107 callsubr
          -654 8 -52 callgsubr
          232 47 rmoveto
          -55 153 165 callgsubr
          -220 hlineto
          -94 callgsubr
          204 hlineto
          -130 30 92 -68 108 -103 callsubr
          55 vlineto
          endchar
        </CharString>
        <CharString name="dvK_S_DDA">
          467 268 587 -52 callgsubr
          632 -158 95 callsubr
          -557 -55 348 -95 -107 vlineto
          -79 -60 -35 -68 -10 hvcurveto
          -216 hlineto
          -94 callgsubr
          261 hlineto
          13 -59 56 -33 105 -5 rrcurveto
          -35 callgsubr
        </CharString>
        <CharString name="dvK_S_P_LA">
          1389 1787 453 rmoveto
          -30 callsubr
          -89 -62 -67 -96 -13 hvcurveto
          -45 -32 -49 -29 -54 83 callsubr
          204 752 vlineto
          -1009 -251 rmoveto
          -70 callgsubr
          167 -204 vlineto
          -17 1 -16 2 -14 vhcurveto
          -564 110 callsubr
          1557 206 rmoveto
          -1989 -12 callsubr
          55 47 60 33 62 -7 -80 22 vhcurveto
          -64 -93 callsubr
          151 hlineto
          -66 26 56 -28 79 hhcurveto
          54 1 45 20 34 29 rrcurveto
          -129 13 87 -98 128 hhcurveto
          9 14 1 2 9 hvcurveto
          -88 callgsubr
        </CharString>
        <CharString name="dvK_S_P_RA">
          912 1310 -51 callsubr
          -532 -251 rmoveto
          -70 callgsubr
          189 -184 vlineto
          -25 2 -22 4 -20 vhcurveto
          -589 110 callsubr
          1080 206 rmoveto
          -1512 -12 callsubr
          55 47 60 33 62 -7 -80 22 vhcurveto
          -64 -93 callsubr
          182 hlineto
          27 -48 47 -23 64 -3 155 callsubr
          rcurveline
          -8 callgsubr
        </CharString>
        <CharString name="dvK_S_TA">
          512 268 587 -52 callgsubr
          252 47 rmoveto
          -55 391 -133 -112 vlineto
          -82 -60 -24 -41 -40 hvcurveto
          -251 hlineto
          -94 callgsubr
          259 hlineto
          -14 -30 -7 -35 -38 -76 callgsubr
          55 hlineto
          endchar
        </CharString>
        <CharString name="dvK_S_TTA">
          428 268 587 -52 callgsubr
          626 -8 rmoveto
          114 55 -513 -55 337 93 callgsubr
          -76 -67 -26 -46 -44 hvcurveto
          -251 hlineto
          -94 callgsubr
          258 hlineto
          -13 -27 -7 -32 -34 -69 callgsubr
        </CharString>
        <CharString name="dvK_TA">
          337 917 163 callgsubr
          -937 -55 474 -138 -372 -57 56 vlineto
          23 22 0 1 20 hvcurveto
          -59 -38 -21 -62 -68 vvcurveto
          -131 82 -84 132 -34 callgsubr
          vhcurveto
          54 vlineto
          -1 -5 -12 -1 -7 hhcurveto
          -105 -49 63 98 112 63 57 124 hvcurveto
          81 -386 61 275 hlineto
          64 65 47 65 81 64 -60 -95 -109 -58 -52 -82 -7 -9 1 1 -5 vhcurveto
          -54 vlineto
          -2 5 9 -1 9 hhcurveto
          114 86 87 129 115 -81 92 -122 -54 -49 -18 -34 -31 hvcurveto
          193 vlineto
          endchar
        </CharString>
        <CharString name="dvK_THA">
          640 1039 634 36 callsubr
          -33 vhcurveto
          76 -12 -52 51 -77 177 callsubr
          148 158 55 -590 -55 370 -313 vlineto
          -107 callgsubr
          64 45 47 60 50 28 -35 -55 6 vhcurveto
          -1 hlineto
          2 -15 rlineto
          -1 vlineto
          0 vlineto
          -149 23 107 -57 111 99 callgsubr
        </CharString>
        <CharString name="dvK_TTA">
          428 412 579 rmoveto
          420 93 callgsubr
          -51 -46 -12 -21 -39 hvcurveto
          38 -33 -50 19 -54 -10 callsubr
          482 151 rmoveto
          114 55 -1028 -12 callsubr
          55 47 60 39 29 -10 -29 27 vhcurveto
          -39 -37 -23 -52 -62 -69 callgsubr
        </CharString>
        <CharString name="dvK_T_RA">
          485 883 365 rmoveto
          60 -44 -66 33 -75 hhcurveto
          -24 -23 -2 -4 -20 hvcurveto
          16 -28 -35 9 -37 hhcurveto
          13 callsubr
          471 152 callsubr
          -1085 -12 callsubr
          55 47 60 9 9 -1 -1 9 vhcurveto
          -56 134 callgsubr
          -65 -295 -185 rcurveline
          35 -45 276 174 rlineto
          -231 -68 callgsubr
        </CharString>
        <CharString name="dvK_T_VA">
          846 1245 319 rmoveto
          -103 callgsubr
          -32 -29 -6 -12 -25 hvcurveto
          -206 hlineto
          -49 -41 -9 -15 -34 hvcurveto
          39 -34 -51 16 -49 hhcurveto
          13 callsubr
          833 103 callgsubr
          -1446 -12 callsubr
          55 47 60 32 32 -11 -25 25 vhcurveto
          -44 -40 -22 -57 -67 vvcurveto
          -15 callsubr
          vhcurveto
          -67 callgsubr
          126 hlineto
          -23 -30 -13 -39 -43 vvcurveto
          -72 callsubr
        </CharString>
        <CharString name="dvK_T_YA">
          803 1202 327 -107 callsubr
          -790 hmoveto
          521 128 callgsubr
          -34 -19 -30 -37 -23 vhcurveto
          19 -23 -43 26 -63 hhcurveto
          -45 -39 -8 -13 -33 hvcurveto
          39 -39 -39 13 -53 -10 callsubr
          971 206 rmoveto
          -1403 -12 callsubr
          55 47 60 32 32 -11 -19 22 vhcurveto
          -49 -40 -24 -60 -70 vvcurveto
          -15 callsubr
          vhcurveto
          -87 callgsubr
          110 68 57 103 30 24 -8 -9 17 hvcurveto
          -14 -4 -15 -3 -16 -3 rrcurveto
          -154 20 98 -80 118 -103 callsubr
          vlineto
          endchar
        </CharString>
        <CharString name="dvK_VA">
          519 918 319 rmoveto
          -103 callgsubr
          -39 -34 -9 -17 -29 hvcurveto
          25 -31 -43 14 -47 hhcurveto
          13 callsubr
          506 103 callgsubr
          -1119 -12 callsubr
          55 47 60 30 27 -9 -16 22 vhcurveto
          -27 -32 -16 -42 -47 vvcurveto
          -72 callsubr
        </CharString>
        <CharString name="dvK_V_YA">
          833 1232 327 -107 callsubr
          -419 -122 rmoveto
          4 -16 -24 3 -22 hhcurveto
          -38 -34 -9 -16 -29 hvcurveto
          24 -30 -42 14 -47 hhcurveto
          13 callsubr
          551 -79 callgsubr
          9 -72 27 -56 38 -39 rrcurveto
          -32 -33 -43 -21 -59 hhcurveto
          -82 -65 52 83 67 callsubr
          hvcurveto
          600 232 rmoveto
          -1433 -12 callsubr
          55 47 60 29 27 -8 -16 21 vhcurveto
          -28 -32 -16 -42 -48 vvcurveto
          136 callgsubr
          81 59 34 38 38 vhcurveto
          -22 35 42 -12 45 -103 callsubr
          vlineto
          endchar
        </CharString>
        <CharString name="dvK_YA">
          596 995 327 -107 callsubr
          -583 hmoveto
          314 128 callgsubr
          -46 -35 -39 -67 -24 vhcurveto
          60 -20 -48 38 -66 177 callsubr
          764 203 rmoveto
          -1196 -12 callsubr
          45 47 60 41 26 -23 -38 11 vhcurveto
          -2 hlineto
          -154 20 98 -80 118 -103 callsubr
          vlineto
          endchar
        </CharString>
        <CharString name="dvKx">
          -49 149 10 -105 callsubr
          263 569 rmoveto
          120 55 -552 -12 callsubr
          55 47 60 34 30 -11 -21 22 vhcurveto
          42 42 rlineto
          27 -31 -44 15 146 callsubr
          endchar
        </CharString>
        <CharString name="dvKxA">
          201 149 10 -105 callsubr
          632 569 rmoveto
          55 -801 -55 370 -313 vlineto
          -64 -55 -47 -60 -71 -52 50 74 87 61 46 72 7 9 -1 -1 5 vhcurveto
          54 vlineto
          2 -5 -9 1 -9 hhcurveto
          -104 -89 -70 -118 -107 75 -69 106 37 callsubr
        </CharString>
        <CharString name="dvKx_BA">
          551 149 10 -105 callsubr
          801 300 rmoveto
          -74 callgsubr
          -53 -48 -16 -27 -37 hvcurveto
          19 -29 -37 10 -41 hhcurveto
          13 callsubr
          538 vlineto
          -76 -415 -52 callsubr
          -1151 -12 callsubr
          55 47 60 26 24 -7 -12 20 vhcurveto
          -24 -33 -13 -41 -46 71 callsubr
        </CharString>
        <CharString name="dvKx_KxA">
          711 149 10 -105 callsubr
          520 hmoveto
          -39 callgsubr
          -27 19 -19 27 27 21 19 27 26 -21 21 -27 hvcurveto
          191 256 rmoveto
          -64 -55 -47 -60 -71 -52 50 74 87 61 46 72 7 9 -1 -1 5 vhcurveto
          54 vlineto
          2 -5 -9 1 -9 hhcurveto
          -38 -36 -9 -18 -30 hvcurveto
          24 -31 -41 13 -46 hhcurveto
          13 callsubr
          448 vlineto
          431 hmoveto
          55 -1311 -55 370 -313 vlineto
          -107 callgsubr
          64 55 47 60 29 26 -8 -15 21 vhcurveto
          -27 -31 -16 -42 -50 vvcurveto
          -107 75 -69 106 48 43 17 32 28 vhcurveto
          -100 callgsubr
        </CharString>
        <CharString name="dvKx_MA">
          498 149 10 -105 callsubr
          747 329 rmoveto
          -223 240 223 hlineto
          -484 hmoveto
          199 -117 hlineto
          10 -24 -27 5 -29 -10 callsubr
          666 206 rmoveto
          -1098 -12 callsubr
          55 47 60 33 29 -10 -20 22 vhcurveto
          -58 -74 callsubr
          223 77 callsubr
          hlineto
          endchar
        </CharString>
        <CharString name="dvKx_PHA">
          745 149 10 -105 callsubr
          764 373 rmoveto
          -55 callsubr
          204 253 vlineto
          -501 hmoveto
          186 -112 hlineto
          6 -21 -22 4 -24 -10 callsubr
          913 151 rmoveto
          55 -1345 -55 370 -313 vlineto
          -107 callgsubr
          64 55 47 60 27 24 -7 -13 20 vhcurveto
          -35 vlineto
          -38 callgsubr
          64 52 50 63 -105 callgsubr
          148 vlineto
          endchar
        </CharString>
        <CharString name="dvKx_PHxA">
          748 149 10 -105 callsubr
          521 47 -105 callsubr
          246 326 rmoveto
          -55 callsubr
          204 253 vlineto
          -504 hmoveto
          189 -113 hlineto
          7 -21 -24 4 -25 -10 callsubr
          916 151 rmoveto
          55 -1348 -55 370 -313 vlineto
          -107 callgsubr
          64 55 47 60 28 26 -8 -14 20 vhcurveto
          -33 vlineto
          -38 callgsubr
          64 52 50 63 -105 callgsubr
          148 vlineto
          endchar
        </CharString>
        <CharString name="dvKx_R">
          -41 280 -80 -105 callsubr
          137 659 1 callsubr
        </CharString>
        <CharString name="dvKx_RA">
          206 276 -18 -105 callsubr
          510 597 rmoveto
          55 -806 -55 375 -313 vlineto
          -64 -55 -47 -60 -71 -52 50 74 87 61 46 72 7 9 -1 -1 5 vhcurveto
          54 vlineto
          2 -5 -9 1 -9 hhcurveto
          -104 -89 -70 -118 180 callsubr
          hvcurveto
          -146 -148 rlineto
          76 hlineto
          194 197 rlineto
          -100 callgsubr
        </CharString>
        <CharString name="dvKx_TA">
          522 149 10 -105 callsubr
          772 436 rmoveto
          -112 hlineto
          -54 -45 -11 -19 -36 hvcurveto
          33 -35 -43 28 -65 hhcurveto
          13 callsubr
          509 103 callgsubr
          -1122 -12 callsubr
          55 47 60 41 30 -14 -31 29 vhcurveto
          -38 -39 -19 -54 -62 -76 callgsubr
          hlineto
          endchar
        </CharString>
        <CharString name="dvL">
          -91 322 54 rmoveto
          -101 callsubr
          47 39 60 37 25 -17 -18 14 vhcurveto
          37 40 rlineto
          29 -29 -37 18 -49 hhcurveto
          -72 -48 -36 -62 -14 -92 callsubr
          -12 callgsubr
          hvcurveto
          -342 576 rmoveto
          509 55 -509 hlineto
          endchar
        </CharString>
        <CharString name="dvLA">
          167 153 callgsubr
          585 -126 vlineto
          7 -13 -25 9 -32 hhcurveto
          -75 -47 -106 callgsubr
          46 39 66 29 23 -12 -8 13 vhcurveto
          -397 -7 callgsubr
        </CharString>
        <CharString name="dvLL">
          237 558 92 rmoveto
          104 85 73 114 103 -76 74 -115 -79 -44 -30 -41 -27 hvcurveto
          49 callsubr
          -3 312 rmoveto
          81 49 -50 -75 -80 -50 -53 -80 -63 -51 34 42 -33 hvcurveto
          86 32 12 96 103 hhcurveto
          -320 -258 75 callgsubr
          -255 433 rmoveto
          837 55 -837 hlineto
          endchar
        </CharString>
        <CharString name="dvLLA">
          237 685 279 150 callgsubr
          81 49 -50 -75 hvcurveto
          -450 -133 75 callgsubr
          582 433 rmoveto
          55 -837 -55 551 -124 vlineto
          -64 -6 -37 -28 -24 -36 rrcurveto
          49 callsubr
          104 85 73 114 92 -60 69 -95 13 hvcurveto
          126 vlineto
          endchar
        </CharString>
        <CharString name="dvLL_YA">
          673 1072 327 -107 callsubr
          -387 -300 150 callgsubr
          60 43 -28 -45 18 hvcurveto
          2 -10 2 -10 3 -9 rrcurveto
          1 -7 1 -8 -8 vvcurveto
          -450 -133 75 callgsubr
          1018 488 rmoveto
          -1273 -55 823 128 callgsubr
          -48 -39 -42 -75 -22 vhcurveto
          49 -32 -58 31 -74 hhcurveto
          -79 -44 -30 -41 -27 hvcurveto
          49 callsubr
          80 69 43 72 27 hvcurveto
          -51 44 61 -26 67 -103 callsubr
          vlineto
          endchar
        </CharString>
        <CharString name="dvL_BA">
          521 844 164 -52 callsubr
          -1121 -55 940 -30 callgsubr
          -61 -53 -20 -36 -39 hvcurveto
          21 -26 -33 13 -41 hhcurveto
          -72 -48 -106 callgsubr
          47 39 60 28 22 -10 -13 14 vhcurveto
          -18 -30 -11 -37 -41 71 callsubr
        </CharString>
        <CharString name="dvL_BHA">
          435 833 82 callsubr
          -509 -55 480 -8 hlineto
          77 callgsubr
          8 2 hlineto
          2 9 10 1 9 62 callgsubr
          -60 vlineto
          10 -20 -23 5 -27 hhcurveto
          -72 -48 -106 callgsubr
          47 39 60 31 22 -12 -14 15 vhcurveto
          -54 -74 callsubr
          208 61 callsubr
          hlineto
          endchar
        </CharString>
        <CharString name="dvL_DA">
          452 910 415 48 callgsubr
          -1052 -55 869 -110 -113 vlineto
          -56 -46 -14 -24 -35 hvcurveto
          24 -28 -34 14 -44 hhcurveto
          -72 -48 -106 callgsubr
          47 39 60 29 21 -10 -13 15 vhcurveto
          -26 -33 -14 -43 -47 vvcurveto
          -109 79 -89 126 61 49 21 31 26 vhcurveto
          -65 callgsubr
        </CharString>
        <CharString name="dvL_DDA">
          447 880 168 callgsubr
          -1047 -55 838 -95 -107 vlineto
          -52 -44 -15 -30 -27 hvcurveto
          19 -25 -31 11 -39 hhcurveto
          -72 -48 -106 callgsubr
          47 39 60 31 23 -12 -15 15 vhcurveto
          -3 -10 -1 -10 -12 vvcurveto
          105 callsubr
          vhcurveto
          -35 callgsubr
        </CharString>
        <CharString name="dvL_DDHA">
          434 863 579 rmoveto
          151 55 -1034 -55 821 -118 hlineto
          2 -19 -19 1 -17 hhcurveto
          -57 -48 -14 -24 -38 hvcurveto
          27 -28 -36 16 -46 hhcurveto
          -72 -48 -106 callgsubr
          47 39 60 29 22 -11 -13 15 vhcurveto
          -40 -41 -21 -54 -56 vvcurveto
          40 callgsubr
          vhcurveto
          -56 vlineto
          -45 callsubr
          endchar
        </CharString>
        <CharString name="dvL_D_RA">
          447 905 415 48 callgsubr
          -1047 -55 864 -110 -113 vlineto
          -55 -45 -13 -23 -35 hvcurveto
          22 -27 -33 14 -43 hhcurveto
          -72 -48 -106 callgsubr
          47 39 60 27 20 -9 -12 15 vhcurveto
          -28 -33 -14 -44 -48 vvcurveto
          -106 72 -87 127 -5 vhcurveto
          96 callsubr
          endchar
        </CharString>
        <CharString name="dvL_GA">
          451 1031 -4 callsubr
          -1051 -55 618 -131 hlineto
          14 -29 -34 7 -32 hhcurveto
          -72 -58 -106 callgsubr
          57 39 60 35 41 -15 -17 17 vhcurveto
          -46 81 callsubr
        </CharString>
        <CharString name="dvL_HA">
          435 899 94 callsubr
          -1035 -55 858 -104 -184 vlineto
          -33 -29 -8 -17 -21 hvcurveto
          12 -22 -26 7 -30 hhcurveto
          -72 -48 -106 callgsubr
          47 39 60 19 16 -5 -6 13 vhcurveto
          -2 -8 -1 -8 -9 vvcurveto
          -60 33 -36 33 -22 vhcurveto
          -75 callsubr
        </CharString>
        <CharString name="dvL_JA">
          528 1108 -4 callsubr
          -1128 -55 947 -131 -352 hlineto
          13 -23 -27 8 -32 hhcurveto
          -72 -48 -106 callgsubr
          47 39 60 17 15 -4 -5 12 vhcurveto
          -14 vlineto
          7 7 0 -1 7 hvcurveto
          4 -3 4 -4 3 -4 9 10 rcurveline
          86 -11 56 -48 -88 -23 callgsubr
        </CharString>
        <CharString name="dvL_JxA">
          518 579 -40 -105 callsubr
          519 674 rmoveto
          -1118 -55 937 -131 -342 hlineto
          13 -23 -27 8 -32 hhcurveto
          -72 -48 -106 callgsubr
          47 39 60 13 11 -2 -3 10 vhcurveto
          -18 vlineto
          11 11 -1 -1 10 hvcurveto
          4 -3 3 -3 3 -4 8 8 rcurveline
          81 -13 52 -47 -85 -23 callgsubr
        </CharString>
        <CharString name="dvL_KA">
          681 1261 163 callgsubr
          -1281 -55 850 -313 vlineto
          -64 -55 -47 -60 -71 -52 50 74 87 61 46 72 7 9 -1 -1 5 vhcurveto
          54 vlineto
          2 -5 -9 1 -9 hhcurveto
          -46 -42 -13 -25 -34 hvcurveto
          25 -28 -35 15 -45 hhcurveto
          -72 -48 -106 callgsubr
          47 39 60 31 23 -12 -15 15 vhcurveto
          -21 -29 -13 -38 -44 vvcurveto
          -107 75 -69 106 48 43 17 32 28 vhcurveto
          -100 callgsubr
        </CharString>
        <CharString name="dvL_KHA">
          723 1303 -4 callsubr
          -1323 -55 764 -139 hlineto
          129 callgsubr
          -3 hlineto
          94 2 -66 37 -65 hhcurveto
          -72 -38 -106 callgsubr
          37 39 58 45 24 -28 -51 -2 vhcurveto
          0 vlineto
          -53 vlineto
          220 -285 -83 callgsubr
        </CharString>
        <CharString name="dvL_K_YA">
          993 1392 327 -107 callsubr
          -510 hmoveto
          241 128 callgsubr
          -22 -8 -20 -15 -18 vhcurveto
          25 -26 -45 24 -59 -10 callsubr
          691 206 rmoveto
          -1593 -55 840 -313 hlineto
          -64 -55 -47 -60 -71 -52 50 74 87 61 46 72 7 9 -1 -1 5 vhcurveto
          54 vlineto
          2 -5 -9 1 -9 hhcurveto
          -43 -41 -12 -23 -32 hvcurveto
          23 -28 -33 14 -43 hhcurveto
          -72 -48 -106 callgsubr
          47 39 60 27 21 -9 -12 15 vhcurveto
          -24 -31 -14 -39 -47 39 callsubr
          40 27 -12 -20 20 vhcurveto
          -25 -13 -31 -10 -38 -6 rrcurveto
          -154 20 98 -80 118 -103 callsubr
          vlineto
          endchar
        </CharString>
        <CharString name="dvL_LA">
          637 1217 -4 callsubr
          -1237 -55 1055 -126 hlineto
          -30 callsubr
          -39 -33 -13 -22 -27 hvcurveto
          24 -27 -34 14 -44 hhcurveto
          -72 -48 -106 callgsubr
          47 39 60 31 23 -12 -14 14 vhcurveto
          -21 -35 -12 -44 -50 vvcurveto
          -146 90 -116 140 9 14 1 2 9 vhcurveto
          -88 callgsubr
        </CharString>
        <CharString name="dvL_L_YA">
          973 1372 327 -107 callsubr
          69 callsubr
          -1573 -55 1123 128 callgsubr
          -30 -15 -28 -31 -22 vhcurveto
          40 -27 -47 21 -51 hhcurveto
          -72 -48 -36 -62 -14 -63 callgsubr
          -39 -33 -13 -22 -27 hvcurveto
          24 -27 -34 14 -44 hhcurveto
          -72 -48 -106 callgsubr
          47 39 60 31 23 -12 -14 14 vhcurveto
          -21 97 callsubr
          101 51 52 60 59 35 -40 -89 hvcurveto
          -75 61 74 vlineto
          94 47 39 60 33 27 -14 -20 16 vhcurveto
          -20 -8 -24 -6 -27 -5 rrcurveto
          -154 20 98 -80 118 -103 callsubr
          vlineto
          endchar
        </CharString>
        <CharString name="dvL_MA">
          449 847 -26 callsubr
          103 callsubr
          -1049 -55 582 -124 hlineto
          9 -20 -23 5 -26 hhcurveto
          -72 -48 -106 callgsubr
          47 39 60 30 22 -11 -14 15 vhcurveto
          -55 -74 callsubr
          223 77 callsubr
          hlineto
          endchar
        </CharString>
        <CharString name="dvL_PA">
          467 865 -33 callsubr
          182 55 rmoveto
          -1067 -55 570 -119 hlineto
          6 -17 -19 3 -21 hhcurveto
          -72 -48 -106 callgsubr
          47 39 60 23 18 -6 -10 14 vhcurveto
          -26 118 callsubr
        </CharString>
        <CharString name="dvL_PHA">
          707 875 74 callgsubr
          -1307 -55 580 -123 vlineto
          8 -19 -23 5 -25 hhcurveto
          -72 -48 -106 callgsubr
          47 39 60 29 21 -10 -13 15 vhcurveto
          -24 vlineto
          -38 callgsubr
          64 52 50 63 -105 callgsubr
          148 vlineto
          endchar
        </CharString>
        <CharString name="dvL_SA">
          573 758 142 callsubr
          206 -251 vlineto
          181 306 rmoveto
          -1193 -55 744 24 callsubr
          94 2 -80 37 -59 hhcurveto
          -72 -43 -106 callgsubr
          42 39 60 45 28 -31 -48 -3 vhcurveto
          0 vlineto
          -53 6 callsubr
        </CharString>
        <CharString name="dvL_TA">
          440 1020 -4 callsubr
          -1040 -55 859 -133 -112 hlineto
          -47 -40 -8 -15 -33 hvcurveto
          28 -29 -37 18 -48 hhcurveto
          -72 -48 -106 callgsubr
          47 39 60 28 22 -10 -13 15 vhcurveto
          -48 -40 -24 -60 -69 -76 callgsubr
          hlineto
          endchar
        </CharString>
        <CharString name="dvL_THA">
          520 489 -4 callsubr
          -509 -55 509 hlineto
          430 55 rmoveto
          -260 vlineto
          -140 -95 -68 -101 138 callgsubr
          vhcurveto
          -4 callgsubr
          68 -44 64 -91 -82 -53 -58 -61 -31 6 -15 5 -11 vhcurveto
          4 -14 -16 2 -16 hhcurveto
          -72 -48 -106 callgsubr
          47 39 60 37 25 -17 -18 14 vhcurveto
          37 40 -15 15 -17 12 -19 8 rlinecurve
          46 4 callsubr
          vlineto
          endchar
        </CharString>
        <CharString name="dvL_TH_YA">
          953 519 -4 callsubr
          -539 -55 539 hlineto
          833 -252 -107 callsubr
          -403 55 rmoveto
          -55 134 156 callgsubr
          -48 14 -41 20 -33 rrcurveto
          -45 -49 -73 -31 -65 hhcurveto
          -90 -71 43 89 -19 hvcurveto
          -4 callgsubr
          68 -44 64 -91 -82 -53 -58 -61 -18 2 -12 3 -10 vhcurveto
          61 hlineto
          -2 8 -2 11 14 vvcurveto
          39 22 35 51 51 22 -37 -45 -76 -67 -47 -134 -34 vhcurveto
          48 -10 -37 67 -80 hhcurveto
          -60 -46 -34 -58 -13 -106 callsubr
          46 33 42 48 22 -36 -57 6 vhcurveto
          0 vlineto
          -148 24 109 -57 118 hhcurveto
          88 76 37 49 55 hvcurveto
          -46 43 57 -23 64 -103 callsubr
          55 vlineto
          endchar
        </CharString>
        <CharString name="dvL_TTA">
          358 824 579 rmoveto
          114 55 -958 -55 782 93 callgsubr
          -47 -44 -10 -19 -37 hvcurveto
          28 -29 -36 17 -48 hhcurveto
          -72 -48 -106 callgsubr
          47 39 60 29 21 -10 -13 15 vhcurveto
          -43 -38 -27 -55 -66 -69 callgsubr
        </CharString>
        <CharString name="dvL_TTHA">
          431 867 256 rmoveto
          -83 -64 -58 -93 -98 -58 58 84 97 81 38 76 91 65 -46 -90 vhcurveto
          144 323 rmoveto
          55 -1031 -55 720 -135 vlineto
          -32 -1 -33 -7 -29 -12 rrcurveto
          28 -29 -36 17 -48 hhcurveto
          -72 -48 -106 callgsubr
          47 39 60 27 20 -9 -12 15 vhcurveto
          -40 -30 -27 -46 -63 vvcurveto
          -114 88 -80 131 132 90 79 114 100 callgsubr
        </CharString>
        <CharString name="dvL_VA">
          472 1052 -4 callsubr
          -1072 -55 891 -260 hlineto
          -103 callgsubr
          -42 -38 -11 -20 -31 hvcurveto
          22 -27 -33 14 -43 hhcurveto
          -72 -48 -106 callgsubr
          47 39 60 26 21 -9 -11 14 vhcurveto
          -25 -32 -15 -40 -46 vvcurveto
          -72 callsubr
        </CharString>
        <CharString name="dvL_V_DDA">
          747 1180 168 callgsubr
          -1347 -55 1138 177 callgsubr
          -36 12 -28 24 -21 hvcurveto
          -69 -25 -53 -60 -98 hhcurveto
          -73 -65 54 81 67 callsubr
          hvcurveto
          55 vlineto
          4 -16 -24 3 -22 hhcurveto
          -43 -39 -12 -21 -31 hvcurveto
          24 -27 -34 14 -44 hhcurveto
          -72 -48 -106 callgsubr
          47 39 60 28 21 -10 -12 15 vhcurveto
          -25 -31 -14 -40 -45 vvcurveto
          136 callgsubr
          130 64 94 61 24 vhcurveto
          25 -9 31 -5 37 -2 rrcurveto
          97 -5 39 -23 -54 vvcurveto
          -65 -53 -33 -77 -47 -62 14 20 -39 vhcurveto
          -59 vlineto
          -15 30 69 -12 49 hhcurveto
          120 74 62 88 101 -78 28 -96 5 hvcurveto
          -110 6 -31 23 48 vvcurveto
          52 48 17 45 vhcurveto
          endchar
        </CharString>
        <CharString name="dvL_YA">
          503 902 327 -107 callsubr
          69 callsubr
          -1103 -55 653 128 callgsubr
          -31 -16 -27 -30 -22 vhcurveto
          36 -22 -52 25 -51 hhcurveto
          -72 -48 -106 callgsubr
          47 39 60 35 25 -15 -20 15 vhcurveto
          -20 -7 -24 -7 -26 -4 rrcurveto
          -154 20 98 -80 118 -103 callsubr
          vlineto
          endchar
        </CharString>
        <CharString name="dvM">
          -209 457 339 rmoveto
          -273 240 187 55 -391 -55 -82 callsubr
          273 hlineto
          endchar
        </CharString>
        <CharString name="dvMA">
          9 -20 579 rmoveto
          -82 callsubr
          223 61 callsubr
          -609 hlineto
          427 -55 rmoveto
          -240 -223 240 vlineto
          endchar
        </CharString>
        <CharString name="dvM_BA">
          401 800 310 rmoveto
          -74 callgsubr
          -104 -83 -60 -92 -23 hvcurveto
          -232 240 616 hlineto
          -76 -415 -52 callsubr
          -1001 -55 -82 callsubr
          226 hlineto
          -123 1 94 -79 110 hhcurveto
          88 68 42 48 29 hvcurveto
          -173 -80 callgsubr
        </CharString>
        <CharString name="dvM_BHA">
          295 179 callgsubr
          136 -8 vlineto
          77 callgsubr
          30 5 6 hlineto
          35 11 -22 -48 hvcurveto
          -175 vlineto
          270 295 rmoveto
          -295 -208 187 vlineto
          102 callsubr
          -369 -55 -82 callsubr
          197 127 callgsubr
          208 61 callsubr
          hlineto
          endchar
        </CharString>
        <CharString name="dvM_BH_RA">
          304 184 579 rmoveto
          145 -8 hlineto
          77 callgsubr
          21 4 hlineto
          1 5 5 0 5 62 callgsubr
          -135 vlineto
          -20 -4 -16 -16 -5 -20 rrcurveto
          -207 hlineto
          518 295 rmoveto
          -253 -208 145 vlineto
          102 callsubr
          -378 -55 -82 callsubr
          214 hlineto
          5 -16 8 -17 6 -15 174 callsubr
          208 -74 hlineto
          -329 -293 rlineto
          88 hlineto
          241 213 rlineto
          -173 -7 callgsubr
        </CharString>
        <CharString name="dvM_BH_VA">
          606 179 callgsubr
          126 -8 vlineto
          77 callgsubr
          40 5 hlineto
          32 -2 10 -22 -46 vvcurveto
          -175 vlineto
          773 295 rmoveto
          -546 -55 365 -260 hlineto
          -87 -52 -88 -111 84 callgsubr
          vhcurveto
          6 1 12 vlineto
          69 8 55 44 68 hhcurveto
          22 20 -2 -6 17 hvcurveto
          55 vlineto
          4 -16 -24 3 -22 hhcurveto
          -89 -69 -50 -75 -24 hvcurveto
          -184 92 callsubr
          -359 -55 -82 callsubr
          187 127 callgsubr
          175 -6 hlineto
          -72 callsubr
        </CharString>
        <CharString name="dvM_BH_YA">
          663 1062 327 -107 callsubr
          -878 -240 rmoveto
          240 136 -8 vlineto
          77 callgsubr
          30 5 6 hlineto
          35 11 -22 -48 hvcurveto
          -175 vlineto
          227 295 rmoveto
          -55 143 -47 callgsubr
          -179 92 callsubr
          -369 -55 -82 callsubr
          197 127 callgsubr
          194 hlineto
          -102 39 82 -53 96 -103 callsubr
          55 vlineto
          endchar
        </CharString>
        <CharString name="dvM_B_RA">
          401 800 310 rmoveto
          -74 callgsubr
          -104 -83 -60 -92 -23 hvcurveto
          -232 240 616 hlineto
          -76 -415 -52 callsubr
          -1001 -55 -82 callsubr
          226 hlineto
          1 -123 95 -81 116 2 -167 -148 rcurveline
          85 hlineto
          260 230 rlineto
          -165 -80 callgsubr
        </CharString>
        <CharString name="dvM_B_YA">
          743 1142 327 -107 callsubr
          -424 -418 -71 callgsubr
          -309 190 rmoveto
          689 hlineto
          -91 callgsubr
          7 -56 18 -46 25 -36 -10 -13 -12 -12 -12 -12 139 callgsubr
          rcurveline
          -97 callgsubr
          -104 -83 -60 -92 -23 hvcurveto
          -222 hlineto
          1139 295 rmoveto
          -1343 -55 -82 callsubr
          216 hlineto
          -123 1 97 -79 113 hhcurveto
          97 66 45 58 51 hvcurveto
          -37 41 53 -19 57 -103 callsubr
          vlineto
          endchar
        </CharString>
        <CharString name="dvM_DA">
          325 179 callgsubr
          538 -110 -113 vlineto
          -109 -71 -53 -77 -25 hvcurveto
          379 76 48 callgsubr
          -925 64 callgsubr
          209 hlineto
          -5 0 -4 -5 vvcurveto
          -109 79 -89 126 61 49 21 31 26 vhcurveto
          -65 callgsubr
        </CharString>
        <CharString name="dvM_HA">
          295 179 callgsubr
          514 -104 -184 120 callgsubr
          -16 2 -13 4 -13 hvcurveto
          353 84 rmoveto
          156 116 55 -895 64 callgsubr
          255 hlineto
          8 -9 10 -7 9 -6 rrcurveto
          -75 callsubr
        </CharString>
        <CharString name="dvM_LA">
          510 908 453 rmoveto
          -30 callsubr
          -77 -57 -51 -76 -22 hvcurveto
          -230 240 724 hlineto
          103 callsubr
          -1110 -55 -82 callsubr
          220 hlineto
          -1 -8 0 -7 -8 vvcurveto
          -146 90 -116 140 -12 callgsubr
          vhcurveto
          -88 callgsubr
        </CharString>
        <CharString name="dvM_MA">
          299 697 -26 callsubr
          -513 -240 rmoveto
          240 228 -240 vlineto
          467 295 rmoveto
          -899 -55 -82 callsubr
          186 hlineto
          -27 15 -35 12 -28 vhcurveto
          22 -50 rlineto
          -55 callgsubr
        </CharString>
        <CharString name="dvM_NA">
          9 184 381 rmoveto
          198 223 -198 vlineto
          -427 253 rmoveto
          -55 142 -200 -74 callsubr
          223 -89 hlineto
          -247 -162 108 callgsubr
          186 119 rlineto
          -171 -7 callgsubr
        </CharString>
        <CharString name="dvM_PA">
          317 715 -33 callsubr
          -531 -240 rmoveto
          240 216 -204 vlineto
          -13 1 -12 1 -11 vhcurveto
          495 295 rmoveto
          -917 -55 -82 callsubr
          228 hlineto
          -76 23 58 -32 85 hhcurveto
          -29 callsubr
        </CharString>
        <CharString name="dvM_P_RA">
          312 710 -51 callsubr
          -526 -240 rmoveto
          240 211 -184 vlineto
          -20 1 -19 3 -17 vhcurveto
          493 295 rmoveto
          -912 -55 -82 callsubr
          230 hlineto
          26 -58 49 -27 70 -3 155 callsubr
          rcurveline
          -8 callgsubr
        </CharString>
</ttFont>
